# Blender 4.2.2 LTS
# www.blender.org
mtllib obstaculos2.mtl
o rrgba.w.004
v 0.721409 -0.165786 -1.665337
v 0.721462 -0.169911 -1.605607
v 0.781225 -0.168375 -1.665569
v 0.781278 -0.172500 -1.605839
v 0.841094 -0.175090 -1.606071
v 0.841041 -0.170965 -1.665801
v 0.721356 -0.161660 -1.725067
v 0.781172 -0.164250 -1.725299
v 0.840988 -0.166839 -1.725531
v 0.721423 -0.174294 -1.536703
v 0.721428 -0.178204 -1.476958
v 0.781225 -0.177205 -1.536898
v 0.781229 -0.181115 -1.477153
v 0.841030 -0.184026 -1.477348
v 0.841026 -0.180115 -1.537092
v 0.721419 -0.170383 -1.596447
v 0.781220 -0.173294 -1.596642
v 0.841022 -0.176205 -1.596837
v 0.724743 -0.183259 -1.408230
v 0.724737 -0.187169 -1.348485
v 0.784537 -0.186326 -1.408425
v 0.784531 -0.190236 -1.348680
v 0.844324 -0.193303 -1.348875
v 0.844330 -0.189393 -1.408620
v 0.724749 -0.179349 -1.467975
v 0.784543 -0.182416 -1.468170
v 0.844336 -0.185483 -1.468364
v 0.725751 -0.191781 -1.279084
v 0.725765 -0.195610 -1.219334
v 0.785560 -0.194530 -1.279275
v 0.785574 -0.198359 -1.219525
v 0.845383 -0.201108 -1.219716
v 0.845369 -0.197279 -1.279466
v 0.725736 -0.187952 -1.338834
v 0.785545 -0.190701 -1.339025
v 0.845354 -0.193450 -1.339216
v 0.725755 -0.199664 -1.148270
v 0.725764 -0.203283 -1.088507
v 0.785560 -0.202516 -1.148451
v 0.785568 -0.206134 -1.088688
v 0.845372 -0.208986 -1.088869
v 0.845364 -0.205367 -1.148632
v 0.725747 -0.196046 -1.208033
v 0.785551 -0.198897 -1.208214
v 0.845356 -0.201749 -1.208395
v 0.729078 -0.207998 -1.018815
v 0.729072 -0.211917 -0.959071
v 0.788872 -0.211065 -1.019010
v 0.788866 -0.214984 -0.959266
v 0.848659 -0.218051 -0.959461
v 0.848665 -0.214132 -1.019206
v 0.729084 -0.204079 -1.078559
v 0.788878 -0.207146 -1.078754
v 0.848671 -0.210213 -1.078950
v 0.728696 -0.216635 -0.888283
v 0.728710 -0.220191 -0.828516
v 0.788505 -0.219388 -0.888461
v 0.788519 -0.222944 -0.828694
v 0.848328 -0.225697 -0.828873
v 0.848313 -0.222141 -0.888640
v 0.728681 -0.213080 -0.948050
v 0.788490 -0.215833 -0.948228
v 0.848299 -0.218586 -0.948406
v 0.728724 -0.224765 -0.755074
v 0.728702 -0.228676 -0.695329
v 0.788505 -0.228081 -0.755269
v 0.788482 -0.231991 -0.695524
v 0.848263 -0.235307 -0.695719
v 0.848285 -0.231396 -0.755464
v 0.728746 -0.220855 -0.814819
v 0.788527 -0.224170 -0.815013
v 0.848307 -0.227485 -0.815208
v 0.732052 -0.235481 -0.624047
v 0.732004 -0.240249 -0.564365
v 0.791817 -0.239066 -0.624286
v 0.791769 -0.243835 -0.564604
v 0.851534 -0.247420 -0.564843
v 0.851581 -0.242652 -0.624525
v 0.732100 -0.230713 -0.683729
v 0.791864 -0.234298 -0.683968
v 0.851629 -0.237884 -0.684207
v 0.733088 -0.246977 -0.490218
v 0.733012 -0.252123 -0.430567
v 0.792839 -0.250778 -0.490470
v 0.792763 -0.255925 -0.430819
v 0.852514 -0.259726 -0.431071
v 0.852591 -0.254579 -0.490722
v 0.733165 -0.241830 -0.549869
v 0.792916 -0.245631 -0.550121
v 0.852667 -0.249432 -0.550373
v 0.733091 -0.259571 -0.356284
v 0.732999 -0.265481 -0.296703
v 0.792839 -0.263414 -0.356573
v 0.792748 -0.269325 -0.296993
v 0.852496 -0.273168 -0.297282
v 0.852588 -0.267257 -0.356862
v 0.733183 -0.253660 -0.415864
v 0.792931 -0.257504 -0.416153
v 0.852680 -0.261347 -0.416442
v 0.736445 -0.272927 -0.223080
v 0.736275 -0.279317 -0.163550
v 0.796152 -0.277373 -0.223386
v 0.795981 -0.283763 -0.163856
v 0.855688 -0.288210 -0.164162
v 0.855858 -0.281819 -0.223693
v 0.736615 -0.266536 -0.282610
v 0.796322 -0.270983 -0.282916
v 0.856028 -0.275429 -0.283223
v 0.736450 -0.288705 -0.089483
v 0.736425 -0.296051 -0.030063
v 0.796152 -0.293195 -0.090014
v 0.796127 -0.300541 -0.030593
v 0.855829 -0.305030 -0.031124
v 0.855853 -0.297685 -0.090544
v 0.736475 -0.281359 -0.148903
v 0.796176 -0.285849 -0.149434
v 0.855878 -0.290339 -0.149964
v 4.352820 0.017752 0.688732
v 4.412694 0.017752 0.688732
v 4.352820 0.017752 0.628860
v 4.412694 0.017752 0.628860
v 4.412694 0.017752 0.568987
v 4.352820 0.017752 0.568987
v 4.292948 0.017752 0.688732
v 4.292948 0.017752 0.628860
v 4.292948 0.017752 0.568987
v 4.352820 0.017752 0.814487
v 4.412694 0.017752 0.814487
v 4.352820 0.017752 0.754614
v 4.412694 0.017752 0.754614
v 4.412694 0.017752 0.694742
v 4.352820 0.017752 0.694742
v 4.292948 0.017752 0.814487
v 4.292948 0.017752 0.754614
v 4.292948 0.017752 0.694742
v 4.703431 0.017752 0.688732
v 4.763304 0.017752 0.688732
v 4.703431 0.017752 0.628860
v 4.763304 0.017752 0.628860
v 4.763304 0.017752 0.568987
v 4.703431 0.017752 0.568987
v 4.643559 0.017752 0.688732
v 4.643559 0.017752 0.628860
v 4.643559 0.017752 0.568987
v 4.703431 0.017752 0.814487
v 4.763304 0.017752 0.814487
v 4.703431 0.017752 0.754614
v 4.763304 0.017752 0.754614
v 4.763304 0.017752 0.694742
v 4.703431 0.017752 0.694742
v 4.643559 0.017752 0.814487
v 4.643559 0.017752 0.754614
v 4.643559 0.017752 0.694742
v 6.529543 0.017752 0.450220
v 6.589416 0.017752 0.450220
v 6.529543 0.017752 0.390348
v 6.589415 0.017752 0.390347
v 6.589415 0.017752 0.330475
v 6.529543 0.017752 0.330475
v 6.469670 0.017752 0.450220
v 6.469670 0.017752 0.390348
v 6.469670 0.017752 0.330475
v 6.529543 0.017752 0.575974
v 6.589416 0.017752 0.575974
v 6.529543 0.017752 0.516102
v 6.589415 0.017752 0.516102
v 6.589415 0.017752 0.456229
v 6.529543 0.017752 0.456230
v 6.469671 0.017752 0.575974
v 6.469671 0.017752 0.516102
v 6.469670 0.017752 0.456229
v 9.333548 0.411032 0.562693
v 9.393420 0.411032 0.562693
v 9.333548 0.411032 0.502821
v 9.393420 0.411032 0.502821
v 9.393420 0.411032 0.442948
v 9.333548 0.411032 0.442949
v 9.273676 0.411032 0.562693
v 9.273676 0.411032 0.502821
v 9.273676 0.411032 0.442948
v 9.333548 0.411032 0.688448
v 9.393420 0.411032 0.688448
v 9.333548 0.411032 0.628575
v 9.393420 0.411032 0.628575
v 9.393420 0.411032 0.568703
v 9.333548 0.411032 0.568703
v 9.273676 0.411032 0.688448
v 9.273676 0.411032 0.628575
v 9.273676 0.411032 0.568703
v 9.704634 0.411032 0.562693
v 9.764505 0.411032 0.562694
v 9.704634 0.411032 0.502821
v 9.764505 0.411032 0.502821
v 9.764505 0.411032 0.442949
v 9.704634 0.411032 0.442949
v 9.644761 0.411032 0.562693
v 9.644761 0.411032 0.502821
v 9.644761 0.411032 0.442949
v 9.704634 0.411032 0.688448
v 9.764505 0.411032 0.688448
v 9.704634 0.411032 0.628575
v 9.764505 0.411032 0.628575
v 9.764505 0.411032 0.568703
v 9.704634 0.411032 0.568703
v 9.644761 0.411032 0.688448
v 9.644761 0.411032 0.628575
v 9.644761 0.411032 0.568703
v 10.635378 0.439733 -3.996106
v 10.635445 0.441269 -4.055959
v 10.575550 0.442104 -3.996113
v 10.575619 0.443640 -4.055965
v 10.515792 0.446010 -4.055972
v 10.515725 0.444475 -3.996119
v 10.635311 0.438198 -3.936254
v 10.575483 0.440569 -3.936260
v 10.515658 0.442939 -3.936267
v 10.711059 0.457070 -4.763323
v 10.711145 0.458718 -4.823173
v 10.651268 0.460200 -4.763323
v 10.651354 0.461848 -4.823173
v 10.591564 0.464978 -4.823173
v 10.591477 0.463329 -4.763323
v 10.710973 0.455421 -4.703473
v 10.651181 0.458551 -4.703473
v 10.591393 0.461681 -4.703473
v 10.635343 0.478212 -5.445903
v 10.635427 0.479861 -5.505753
v 10.575550 0.481342 -5.445903
v 10.575637 0.482990 -5.505753
v 10.515847 0.486120 -5.505753
v 10.515760 0.484472 -5.445903
v 10.635256 0.476563 -5.386054
v 10.575465 0.479693 -5.386054
v 10.515674 0.482823 -5.386053
v 10.711061 0.493505 -6.165480
v 10.711147 0.495153 -6.225330
v 10.651269 0.496604 -6.165480
v 10.651355 0.498253 -6.225330
v 10.591562 0.501353 -6.225330
v 10.591476 0.499704 -6.165480
v 10.710977 0.491856 -6.105630
v 10.651184 0.494956 -6.105630
v 10.591393 0.498055 -6.105630
v 11.753530 0.411031 -2.691343
v 11.753528 0.411031 -2.751215
v 11.693656 0.411031 -2.691343
v 11.693655 0.411031 -2.751215
v 11.633783 0.411031 -2.751215
v 11.633783 0.411031 -2.691343
v 11.753528 0.411031 -2.631470
v 11.693656 0.411031 -2.631470
v 11.633783 0.411031 -2.631470
v 11.753530 0.411031 -2.975069
v 11.753530 0.411031 -3.034941
v 11.693656 0.411031 -2.975069
v 11.693656 0.411031 -3.034941
v 11.633785 0.411031 -3.034941
v 11.633783 0.411031 -2.975069
v 11.753530 0.411031 -2.915196
v 11.693658 0.411031 -2.915196
v 11.633785 0.411031 -2.915196
v 11.753530 0.411031 -3.258794
v 11.753530 0.411031 -3.318667
v 11.693656 0.411031 -3.258794
v 11.693655 0.411031 -3.318667
v 11.633783 0.411031 -3.318667
v 11.633783 0.411031 -3.258794
v 11.753528 0.411031 -3.198922
v 11.693656 0.411031 -3.198922
v 11.633783 0.411031 -3.198922
v 11.753530 0.411031 -3.542520
v 11.753528 0.411031 -3.602393
v 11.693656 0.411031 -3.542520
v 11.693655 0.411031 -3.602393
v 11.633783 0.411031 -3.602393
v 11.633782 0.411031 -3.542520
v 11.753528 0.411031 -3.482648
v 11.693656 0.411031 -3.482648
v 11.633783 0.411031 -3.482648
v 11.753530 0.411031 -3.813050
v 11.753528 0.411031 -3.872922
v 11.693656 0.411031 -3.813050
v 11.693655 0.411031 -3.872922
v 11.633783 0.411031 -3.872922
v 11.633783 0.411031 -3.813050
v 11.753528 0.411031 -3.753177
v 11.693656 0.411031 -3.753177
v 11.633783 0.411031 -3.753177
v 11.753530 0.411031 -4.083579
v 11.753530 0.411031 -4.143451
v 11.693656 0.411031 -4.083579
v 11.693656 0.411031 -4.143451
v 11.633785 0.411031 -4.143451
v 11.633783 0.411031 -4.083579
v 11.753530 0.411031 -4.023706
v 11.693658 0.411031 -4.023706
v 11.633783 0.411031 -4.023706
v 11.753530 0.411031 -4.380501
v 11.753530 0.411031 -4.440373
v 11.693656 0.411031 -4.380501
v 11.693656 0.411031 -4.440373
v 11.633783 0.411031 -4.440373
v 11.633783 0.411031 -4.380501
v 11.753530 0.411031 -4.320628
v 11.693656 0.411031 -4.320628
v 11.633783 0.411031 -4.320628
v 11.753530 0.411031 -4.664227
v 11.753528 0.411031 -4.724100
v 11.693656 0.411031 -4.664227
v 11.693655 0.411031 -4.724099
v 11.633783 0.411031 -4.724099
v 11.633783 0.411031 -4.664227
v 11.753528 0.411031 -4.604354
v 11.693656 0.411031 -4.604354
v 11.633783 0.411031 -4.604354
v 11.753530 0.411031 -4.928158
v 11.753530 0.411031 -4.988031
v 11.693656 0.411031 -4.928158
v 11.693655 0.411031 -4.988030
v 11.633783 0.411031 -4.988031
v 11.633783 0.411031 -4.928158
v 11.753528 0.411031 -4.868286
v 11.693656 0.411031 -4.868286
v 11.633783 0.411031 -4.868286
v 11.753530 0.411031 -5.198687
v 11.753530 0.411031 -5.258560
v 11.693656 0.411031 -5.198687
v 11.693656 0.411031 -5.258560
v 11.633785 0.411031 -5.258560
v 11.633783 0.411031 -5.198687
v 11.753530 0.411031 -5.138815
v 11.693658 0.411031 -5.138815
v 11.633785 0.411031 -5.138815
v 11.753530 0.411031 -5.456020
v 11.753530 0.411031 -5.515893
v 11.693656 0.411031 -5.456020
v 11.693656 0.411031 -5.515893
v 11.633785 0.411031 -5.515893
v 11.633783 0.411031 -5.456020
v 11.753530 0.411031 -5.396147
v 11.693658 0.411031 -5.396147
v 11.633785 0.411031 -5.396147
v 11.753530 0.411031 -5.706754
v 11.753530 0.411031 -5.766627
v 11.693656 0.411031 -5.706754
v 11.693656 0.411031 -5.766627
v 11.633785 0.411031 -5.766627
v 11.633783 0.411031 -5.706754
v 11.753530 0.411031 -5.646883
v 11.693658 0.411031 -5.646883
v 11.633785 0.411031 -5.646882
v 11.753530 0.411031 -5.983882
v 11.753528 0.411031 -6.043755
v 11.693656 0.411031 -5.983882
v 11.693655 0.411031 -6.043754
v 11.633783 0.411031 -6.043755
v 11.633783 0.411031 -5.983882
v 11.753528 0.411031 -5.924009
v 11.693656 0.411031 -5.924009
v 11.633783 0.411031 -5.924009
v 11.753530 0.411031 -6.261010
v 11.753530 0.411031 -6.320882
v 11.693656 0.411031 -6.261010
v 11.693656 0.411031 -6.320882
v 11.633785 0.411031 -6.320882
v 11.633783 0.411031 -6.261010
v 11.753530 0.411031 -6.201137
v 11.693658 0.411031 -6.201138
v 11.633785 0.411031 -6.201137
v 11.753530 0.411031 -6.531539
v 11.753528 0.411031 -6.591412
v 11.693656 0.411031 -6.531539
v 11.693655 0.411031 -6.591412
v 11.633783 0.411031 -6.591411
v 11.633783 0.411031 -6.531539
v 11.753528 0.411031 -6.471666
v 11.693656 0.411031 -6.471666
v 11.633783 0.411031 -6.471666
v 0.280117 0.007758 -3.198684
v 0.280117 0.075161 -3.198684
v 0.301343 0.007758 -3.219910
v 0.301343 0.075161 -3.219910
v 0.301343 0.007758 -3.219910
v 0.301343 0.075161 -3.219910
v 0.322568 0.007758 -3.198684
v 0.322568 0.075161 -3.198684
v 0.322568 0.007758 -3.198684
v 0.322568 0.075161 -3.198684
v 0.301343 0.007758 -3.177459
v 0.301343 0.075161 -3.177459
v 0.301343 0.007758 -3.177459
v 0.301343 0.075161 -3.177459
v 0.280117 0.007758 -3.198684
v 0.280117 0.075161 -3.198684
v 0.301343 0.007758 -3.219910
v 0.301343 0.007758 -3.177459
v 0.280117 0.007758 -3.198684
v 0.322568 0.007758 -3.198684
v 0.280117 0.075161 -3.198684
v 0.322568 0.075161 -3.198684
v 0.301343 0.075161 -3.219910
v 0.301343 0.075161 -3.177459
v 0.888175 0.007758 -3.198684
v 0.888175 0.075161 -3.198684
v 0.909400 0.007758 -3.219910
v 0.909400 0.075161 -3.219910
v 0.909400 0.007758 -3.219910
v 0.909400 0.075161 -3.219910
v 0.930626 0.007758 -3.198684
v 0.930626 0.075161 -3.198684
v 0.930626 0.007758 -3.198684
v 0.930626 0.075161 -3.198684
v 0.909400 0.007758 -3.177459
v 0.909400 0.075161 -3.177459
v 0.909400 0.007758 -3.177459
v 0.909400 0.075161 -3.177459
v 0.888175 0.007758 -3.198684
v 0.888175 0.075161 -3.198684
v 0.909400 0.007758 -3.219910
v 0.909400 0.007758 -3.177459
v 0.888175 0.007758 -3.198684
v 0.930626 0.007758 -3.198684
v 0.888175 0.075161 -3.198684
v 0.930626 0.075161 -3.198684
v 0.909400 0.075161 -3.219910
v 0.909400 0.075161 -3.177459
v 2.613892 0.527829 -9.644214
v 2.589962 0.527829 -9.600464
v 2.564368 0.498975 -9.642883
v 2.564368 0.612892 -9.642883
v 2.589424 0.585801 -9.601356
v 2.612850 0.585801 -9.644186
v 2.587066 0.527829 -9.686919
v 2.564368 0.498975 -9.642883
v 2.564368 0.612892 -9.642883
v 2.586589 0.585801 -9.685992
v 2.538773 0.527829 -9.685301
v 2.564368 0.498975 -9.642883
v 2.539312 0.585801 -9.684408
v 2.564368 0.612892 -9.642883
v 2.514843 0.527829 -9.641551
v 2.564368 0.498975 -9.642883
v 2.515886 0.585801 -9.641580
v 2.564368 0.612892 -9.642883
v 2.541670 0.527829 -9.598846
v 2.564368 0.498975 -9.642883
v 2.542147 0.585801 -9.599773
v 2.564368 0.612892 -9.642883
v 2.589962 0.527829 -9.600464
v 2.564368 0.498975 -9.642883
v 2.589424 0.585801 -9.601356
v 2.564368 0.612892 -9.642883
v 2.684595 0.527829 -9.688627
v 2.660665 0.527829 -9.644877
v 2.635070 0.498975 -9.687295
v 2.635070 0.612892 -9.687295
v 2.660126 0.585801 -9.645770
v 2.683553 0.585801 -9.688600
v 2.657768 0.527828 -9.731332
v 2.635070 0.498975 -9.687295
v 2.657291 0.585801 -9.730407
v 2.635070 0.612892 -9.687295
v 2.609476 0.527828 -9.729715
v 2.635070 0.498975 -9.687295
v 2.610015 0.585801 -9.728823
v 2.635070 0.612892 -9.687295
v 2.585546 0.527829 -9.685965
v 2.635070 0.498975 -9.687295
v 2.586589 0.585801 -9.685992
v 2.635070 0.612892 -9.687295
v 2.612372 0.527829 -9.643259
v 2.635070 0.498975 -9.687295
v 2.635070 0.612892 -9.687295
v 2.612850 0.585801 -9.644186
v 2.660665 0.527829 -9.644877
v 2.635070 0.498975 -9.687295
v 2.635070 0.612892 -9.687295
v 2.660126 0.585801 -9.645770
v 2.758132 0.527829 -9.648404
v 2.734203 0.527829 -9.604654
v 2.708609 0.498975 -9.647072
v 2.757091 0.585801 -9.648376
v 2.733664 0.585801 -9.605547
v 2.708609 0.612892 -9.647072
v 2.731307 0.527829 -9.691110
v 2.708609 0.498975 -9.647072
v 2.730829 0.585801 -9.690182
v 2.708609 0.612892 -9.647072
v 2.683014 0.527829 -9.689491
v 2.708609 0.498975 -9.647072
v 2.683553 0.585801 -9.688600
v 2.708609 0.612892 -9.647072
v 2.659084 0.527829 -9.645741
v 2.708609 0.498975 -9.647072
v 2.708609 0.612892 -9.647072
v 2.660126 0.585801 -9.645770
v 2.685910 0.527829 -9.603036
v 2.708609 0.498975 -9.647072
v 2.708609 0.612892 -9.647072
v 2.686388 0.585801 -9.603963
v 2.734203 0.527829 -9.604654
v 2.708609 0.498975 -9.647072
v 2.733664 0.585801 -9.605547
v 2.708609 0.612892 -9.647072
v 2.687430 0.527829 -9.603991
v 2.663500 0.527829 -9.560241
v 2.637906 0.498975 -9.602660
v 2.686388 0.585801 -9.603963
v 2.662961 0.585801 -9.561133
v 2.637906 0.612892 -9.602660
v 2.660604 0.527829 -9.646696
v 2.637906 0.498975 -9.602660
v 2.637906 0.612892 -9.602660
v 2.660126 0.585801 -9.645770
v 2.612312 0.527829 -9.645079
v 2.637906 0.498975 -9.602660
v 2.637906 0.612892 -9.602660
v 2.612850 0.585801 -9.644186
v 2.588382 0.527829 -9.601329
v 2.637906 0.498975 -9.602660
v 2.637906 0.612892 -9.602660
v 2.589424 0.585801 -9.601356
v 2.615208 0.527829 -9.558623
v 2.637906 0.498975 -9.602660
v 2.615685 0.585801 -9.559550
v 2.637906 0.612892 -9.602660
v 2.663500 0.527829 -9.560241
v 2.637906 0.498975 -9.602660
v 2.662961 0.585801 -9.561133
v 2.637906 0.612892 -9.602660
v 7.112353 0.960295 -8.858866
v 7.064822 0.960295 -8.843786
v 7.075641 0.931441 -8.892132
v 7.075641 1.045359 -8.892132
v 7.065050 1.018268 -8.844803
v 7.111581 1.018268 -8.859566
v 7.122481 0.960295 -8.908271
v 7.075641 0.931441 -8.892132
v 7.075641 1.045359 -8.892132
v 7.121496 1.018268 -8.907931
v 7.086461 0.960295 -8.940478
v 7.075641 0.931441 -8.892132
v 7.086234 1.018268 -8.939462
v 7.075641 1.045359 -8.892132
v 7.038929 0.960295 -8.925398
v 7.075641 0.931441 -8.892132
v 7.039701 1.018268 -8.924698
v 7.075641 1.045359 -8.892132
v 7.028801 0.960295 -8.875994
v 7.075641 0.931441 -8.892132
v 7.029788 1.018268 -8.876333
v 7.075641 1.045359 -8.892132
v 7.064822 0.960295 -8.843786
v 7.075641 0.931441 -8.892132
v 7.065050 1.018268 -8.844803
v 7.075641 1.045359 -8.892132
v 7.194148 0.960295 -8.842100
v 7.146616 0.960295 -8.827019
v 7.157435 0.931441 -8.875365
v 7.157435 1.045359 -8.875365
v 7.146843 1.018268 -8.828036
v 7.193375 1.018268 -8.842799
v 7.204276 0.960295 -8.891504
v 7.157435 0.931441 -8.875365
v 7.203290 1.018268 -8.891164
v 7.157435 1.045359 -8.875365
v 7.168255 0.960295 -8.923712
v 7.157435 0.931441 -8.875365
v 7.168027 1.018268 -8.922694
v 7.157435 1.045359 -8.875365
v 7.120723 0.960295 -8.908631
v 7.157435 0.931441 -8.875365
v 7.121496 1.018268 -8.907931
v 7.157435 1.045359 -8.875365
v 7.110596 0.960295 -8.859227
v 7.157435 0.931441 -8.875365
v 7.157435 1.045359 -8.875365
v 7.111581 1.018268 -8.859567
v 7.146616 0.960295 -8.827019
v 7.157435 0.931441 -8.875365
v 7.157435 1.045359 -8.875365
v 7.146843 1.018268 -8.828036
v 7.219496 0.960295 -8.762205
v 7.171964 0.960295 -8.747124
v 7.182784 0.931441 -8.795470
v 7.218724 1.018268 -8.762904
v 7.172192 1.018268 -8.748141
v 7.182784 1.045359 -8.795470
v 7.229623 0.960295 -8.811609
v 7.182784 0.931441 -8.795470
v 7.228637 1.018268 -8.811270
v 7.182784 1.045359 -8.795470
v 7.193603 0.960295 -8.843818
v 7.182784 0.931441 -8.795470
v 7.193375 1.018268 -8.842799
v 7.182784 1.045359 -8.795470
v 7.146071 0.960295 -8.828736
v 7.182784 0.931441 -8.795470
v 7.182784 1.045359 -8.795470
v 7.146843 1.018268 -8.828036
v 7.135944 0.960295 -8.779331
v 7.182784 0.931441 -8.795470
v 7.182784 1.045359 -8.795470
v 7.136929 1.018268 -8.779672
v 7.171964 0.960295 -8.747124
v 7.182784 0.931441 -8.795470
v 7.172192 1.018268 -8.748141
v 7.182784 1.045359 -8.795470
v 7.137702 0.960295 -8.778971
v 7.090169 0.960295 -8.763891
v 7.100990 0.931441 -8.812237
v 7.136929 1.018268 -8.779672
v 7.090397 1.018268 -8.764908
v 7.100990 1.045359 -8.812237
v 7.147829 0.960295 -8.828376
v 7.100990 0.931441 -8.812237
v 7.100990 1.045359 -8.812237
v 7.146843 1.018268 -8.828036
v 7.111808 0.960295 -8.860583
v 7.100990 0.931441 -8.812237
v 7.100990 1.045359 -8.812237
v 7.111581 1.018268 -8.859566
v 7.064277 0.960295 -8.845503
v 7.100990 0.931441 -8.812237
v 7.100990 1.045359 -8.812237
v 7.065050 1.018268 -8.844803
v 7.054150 0.960295 -8.796099
v 7.100990 0.931441 -8.812237
v 7.055135 1.018268 -8.796438
v 7.100990 1.045359 -8.812237
v 7.090169 0.960295 -8.763891
v 7.100990 0.931441 -8.812237
v 7.090397 1.018268 -8.764908
v 7.100990 1.045359 -8.812237
v 8.917699 1.029275 -6.203223
v 8.893769 1.029275 -6.159473
v 8.868174 1.000421 -6.201892
v 8.868174 1.114338 -6.201892
v 8.893229 1.087247 -6.160365
v 8.916656 1.087247 -6.203195
v 8.890873 1.029275 -6.245928
v 8.868174 1.000421 -6.201892
v 8.868174 1.114338 -6.201892
v 8.890394 1.087247 -6.245002
v 8.842580 1.029275 -6.244311
v 8.868174 1.000421 -6.201892
v 8.843119 1.087247 -6.243419
v 8.868174 1.114338 -6.201892
v 8.818650 1.029275 -6.200561
v 8.868174 1.000421 -6.201892
v 8.819692 1.087247 -6.200588
v 8.868174 1.114338 -6.201892
v 8.845476 1.029275 -6.157856
v 8.868174 1.000421 -6.201892
v 8.845955 1.087247 -6.158782
v 8.868174 1.114338 -6.201892
v 8.893769 1.029275 -6.159473
v 8.868174 1.000421 -6.201892
v 8.893229 1.087247 -6.160365
v 8.868174 1.114338 -6.201892
v 8.988401 1.029275 -6.247636
v 8.964471 1.029275 -6.203886
v 8.938876 1.000421 -6.246305
v 8.938876 1.114338 -6.246305
v 8.963933 1.087247 -6.204779
v 8.987359 1.087247 -6.247608
v 8.961575 1.029275 -6.290342
v 8.938876 1.000421 -6.246305
v 8.961098 1.087247 -6.289415
v 8.938876 1.114338 -6.246305
v 8.913282 1.029275 -6.288724
v 8.938876 1.000421 -6.246305
v 8.913821 1.087247 -6.287831
v 8.938876 1.114338 -6.246305
v 8.889353 1.029275 -6.244974
v 8.938876 1.000421 -6.246305
v 8.890394 1.087247 -6.245002
v 8.938876 1.114338 -6.246305
v 8.916179 1.029275 -6.202268
v 8.938876 1.000421 -6.246305
v 8.938876 1.114338 -6.246305
v 8.916656 1.087247 -6.203195
v 8.964471 1.029275 -6.203886
v 8.938876 1.000421 -6.246305
v 8.938876 1.114338 -6.246305
v 8.963933 1.087247 -6.204779
v 9.061939 1.029275 -6.207413
v 9.038009 1.029275 -6.163663
v 9.012415 1.000421 -6.206081
v 9.060897 1.087247 -6.207386
v 9.037471 1.087247 -6.164556
v 9.012415 1.114338 -6.206081
v 9.035112 1.029275 -6.250119
v 9.012415 1.000421 -6.206081
v 9.034636 1.087247 -6.249191
v 9.012415 1.114338 -6.206081
v 8.986820 1.029275 -6.248500
v 9.012415 1.000421 -6.206081
v 8.987359 1.087247 -6.247608
v 9.012415 1.114338 -6.206081
v 8.962892 1.029275 -6.204751
v 9.012415 1.000421 -6.206081
v 9.012415 1.114338 -6.206081
v 8.963933 1.087247 -6.204779
v 8.989717 1.029275 -6.162045
v 9.012415 1.000421 -6.206081
v 9.012415 1.114338 -6.206081
v 8.990194 1.087247 -6.162972
v 9.038009 1.029275 -6.163663
v 9.012415 1.000421 -6.206081
v 9.037471 1.087247 -6.164556
v 9.012415 1.114338 -6.206081
v 8.991237 1.029275 -6.163001
v 8.967307 1.029275 -6.119250
v 8.941712 1.000421 -6.161669
v 8.990194 1.087247 -6.162972
v 8.966768 1.087247 -6.120142
v 8.941712 1.114338 -6.161669
v 8.964411 1.029275 -6.205705
v 8.941712 1.000421 -6.161669
v 8.941712 1.114338 -6.161669
v 8.963933 1.087247 -6.204779
v 8.916118 1.029275 -6.204087
v 8.941712 1.000421 -6.161669
v 8.941712 1.114338 -6.161669
v 8.916656 1.087247 -6.203195
v 8.892188 1.029275 -6.160337
v 8.941712 1.000421 -6.161669
v 8.941712 1.114338 -6.161669
v 8.893229 1.087247 -6.160365
v 8.919014 1.029275 -6.117632
v 8.941712 1.000421 -6.161669
v 8.919492 1.087247 -6.118559
v 8.941712 1.114338 -6.161669
v 8.967307 1.029275 -6.119250
v 8.941712 1.000421 -6.161669
v 8.966768 1.087247 -6.120142
v 8.941712 1.114338 -6.161669
v 10.812011 0.638273 -7.612225
v 10.767475 0.638273 -7.589791
v 10.770484 0.609419 -7.639241
v 10.770484 0.723337 -7.639241
v 10.767538 0.696246 -7.590831
v 10.811137 0.696246 -7.612793
v 10.814167 0.638273 -7.662610
v 10.770484 0.609419 -7.639241
v 10.770484 0.723337 -7.639241
v 10.813249 0.696246 -7.662118
v 10.773492 0.638273 -7.688693
v 10.770484 0.609419 -7.639241
v 10.773427 0.696246 -7.687651
v 10.770484 0.723337 -7.639241
v 10.728956 0.638273 -7.666258
v 10.770484 0.609419 -7.639241
v 10.729830 0.696246 -7.665689
v 10.770484 0.723337 -7.639241
v 10.726799 0.638273 -7.615873
v 10.770484 0.609419 -7.639241
v 10.727718 0.696246 -7.616364
v 10.770484 0.723337 -7.639241
v 10.767475 0.638273 -7.589791
v 10.770484 0.609419 -7.639241
v 10.767538 0.696246 -7.590831
v 10.770484 0.723337 -7.639241
v 10.895430 0.638273 -7.608654
v 10.850893 0.638273 -7.586219
v 10.853902 0.609419 -7.635671
v 10.853902 0.723337 -7.635671
v 10.850957 0.696246 -7.587260
v 10.894555 0.696246 -7.609222
v 10.897586 0.638273 -7.659039
v 10.853902 0.609419 -7.635671
v 10.896667 0.696246 -7.658547
v 10.853902 0.723337 -7.635671
v 10.856910 0.638273 -7.685121
v 10.853902 0.609419 -7.635671
v 10.856847 0.696246 -7.684081
v 10.853902 0.723337 -7.635671
v 10.812375 0.638273 -7.662687
v 10.853902 0.609419 -7.635671
v 10.813249 0.696246 -7.662118
v 10.853902 0.723337 -7.635671
v 10.810217 0.638273 -7.612301
v 10.853902 0.609419 -7.635671
v 10.853902 0.723337 -7.635671
v 10.811137 0.696246 -7.612793
v 10.850893 0.638273 -7.586219
v 10.853902 0.609419 -7.635671
v 10.853902 0.723337 -7.635671
v 10.850957 0.696246 -7.587260
v 10.933137 0.638273 -7.533796
v 10.888601 0.638273 -7.511362
v 10.891610 0.609419 -7.560812
v 10.932265 0.696246 -7.534363
v 10.888665 0.696246 -7.512402
v 10.891610 0.723337 -7.560812
v 10.935294 0.638273 -7.584181
v 10.891610 0.609419 -7.560812
v 10.934376 0.696246 -7.583689
v 10.891610 0.723337 -7.560812
v 10.894618 0.638273 -7.610262
v 10.891610 0.609419 -7.560812
v 10.894555 0.696246 -7.609222
v 10.891610 0.723337 -7.560812
v 10.850083 0.638273 -7.587829
v 10.891610 0.609419 -7.560812
v 10.891610 0.723337 -7.560812
v 10.850957 0.696246 -7.587260
v 10.847926 0.638273 -7.537443
v 10.891610 0.609419 -7.560812
v 10.891610 0.723337 -7.560812
v 10.848845 0.696246 -7.537934
v 10.888601 0.638273 -7.511362
v 10.891610 0.609419 -7.560812
v 10.888665 0.696246 -7.512402
v 10.891610 0.723337 -7.560812
v 10.849718 0.638273 -7.537366
v 10.805184 0.638273 -7.514933
v 10.808191 0.609419 -7.564383
v 10.848845 0.696246 -7.537934
v 10.805246 0.696246 -7.515973
v 10.808191 0.723337 -7.564383
v 10.851876 0.638273 -7.587752
v 10.808191 0.609419 -7.564383
v 10.808191 0.723337 -7.564383
v 10.850957 0.696246 -7.587260
v 10.811200 0.638273 -7.613833
v 10.808191 0.609419 -7.564383
v 10.808191 0.723337 -7.564383
v 10.811137 0.696246 -7.612793
v 10.766664 0.638273 -7.591399
v 10.808191 0.609419 -7.564383
v 10.808191 0.723337 -7.564383
v 10.767538 0.696246 -7.590831
v 10.764507 0.638273 -7.541014
v 10.808191 0.609419 -7.564383
v 10.765427 0.696246 -7.541505
v 10.808191 0.723337 -7.564383
v 10.805184 0.638273 -7.514933
v 10.808191 0.609419 -7.564383
v 10.805246 0.696246 -7.515973
v 10.808191 0.723337 -7.564383
v 10.965494 0.487197 -2.364572
v 10.979689 0.487197 -2.316769
v 10.931552 0.458343 -2.328483
v 10.931552 0.572260 -2.328483
v 10.978677 0.545169 -2.317015
v 10.964780 0.545169 -2.363813
v 10.916286 0.487197 -2.375615
v 10.931552 0.458343 -2.328483
v 10.931552 0.572260 -2.328483
v 10.916607 0.545169 -2.374623
v 10.883415 0.487197 -2.340199
v 10.931552 0.458343 -2.328483
v 10.884428 0.545169 -2.339953
v 10.931552 0.572260 -2.328483
v 10.897610 0.487197 -2.292395
v 10.931552 0.458343 -2.328483
v 10.898325 0.545169 -2.293155
v 10.931552 0.572260 -2.328483
v 10.946819 0.487197 -2.281353
v 10.931552 0.458343 -2.328483
v 10.946497 0.545169 -2.282344
v 10.931552 0.572260 -2.328483
v 10.979689 0.487197 -2.316769
v 10.931552 0.458343 -2.328483
v 10.978677 0.545169 -2.317015
v 10.931552 0.572260 -2.328483
v 10.983777 0.487197 -2.446041
v 10.997972 0.487197 -2.398237
v 10.949835 0.458343 -2.409952
v 10.949835 0.572260 -2.409952
v 10.996959 0.545169 -2.398484
v 10.983063 0.545169 -2.445281
v 10.934568 0.487197 -2.457083
v 10.949835 0.458343 -2.409952
v 10.934891 0.545169 -2.456092
v 10.949835 0.572260 -2.409952
v 10.901698 0.487197 -2.421668
v 10.949835 0.458343 -2.409952
v 10.902711 0.545169 -2.421421
v 10.949835 0.572260 -2.409952
v 10.915893 0.487197 -2.373864
v 10.949835 0.458343 -2.409952
v 10.916607 0.545169 -2.374623
v 10.949835 0.572260 -2.409952
v 10.965101 0.487197 -2.362821
v 10.949835 0.458343 -2.409952
v 10.949835 0.572260 -2.409952
v 10.964780 0.545169 -2.363813
v 10.997972 0.487197 -2.398237
v 10.949835 0.458343 -2.409952
v 10.949835 0.572260 -2.409952
v 10.996959 0.545169 -2.398484
v 11.064128 0.487197 -2.469901
v 11.078324 0.487197 -2.422097
v 11.030186 0.458343 -2.433812
v 11.063416 0.545169 -2.469141
v 11.077311 0.545169 -2.422344
v 11.030186 0.572260 -2.433812
v 11.014920 0.487197 -2.480944
v 11.030186 0.458343 -2.433812
v 11.015243 0.545169 -2.479952
v 11.030186 0.572260 -2.433812
v 10.982049 0.487197 -2.445528
v 11.030186 0.458343 -2.433812
v 10.983063 0.545169 -2.445281
v 11.030186 0.572260 -2.433812
v 10.996245 0.487197 -2.397724
v 11.030186 0.458343 -2.433812
v 11.030186 0.572260 -2.433812
v 10.996959 0.545169 -2.398484
v 11.045453 0.487197 -2.386681
v 11.030186 0.458343 -2.433812
v 11.030186 0.572260 -2.433812
v 11.045131 0.545169 -2.387673
v 11.078324 0.487197 -2.422097
v 11.030186 0.458343 -2.433812
v 11.077311 0.545169 -2.422344
v 11.030186 0.572260 -2.433812
v 11.045846 0.487197 -2.388432
v 11.060041 0.487197 -2.340629
v 11.011905 0.458343 -2.352344
v 11.045132 0.545169 -2.387673
v 11.059029 0.545169 -2.340875
v 11.011905 0.572260 -2.352344
v 10.996638 0.487197 -2.399475
v 11.011905 0.458343 -2.352344
v 11.011905 0.572260 -2.352344
v 10.996959 0.545169 -2.398484
v 10.963767 0.487197 -2.364059
v 11.011905 0.458343 -2.352344
v 11.011905 0.572260 -2.352344
v 10.964780 0.545169 -2.363813
v 10.977962 0.487197 -2.316256
v 11.011905 0.458343 -2.352344
v 11.011905 0.572260 -2.352344
v 10.978677 0.545169 -2.317015
v 11.027170 0.487197 -2.305212
v 11.011905 0.458343 -2.352344
v 11.026849 0.545169 -2.306204
v 11.011905 0.572260 -2.352344
v 11.060041 0.487197 -2.340629
v 11.011905 0.458343 -2.352344
v 11.059029 0.545169 -2.340875
v 11.011905 0.572260 -2.352344
v 12.158521 0.484599 0.723431
v 12.201978 0.484599 0.747890
v 12.159250 0.455745 0.772968
v 12.159250 0.569663 0.772968
v 12.201077 0.542571 0.748418
v 12.158536 0.542571 0.724473
v 12.115492 0.484599 0.749737
v 12.159250 0.455745 0.772968
v 12.159250 0.569663 0.772968
v 12.116414 0.542571 0.750225
v 12.116524 0.484599 0.798045
v 12.159250 0.455745 0.772968
v 12.117422 0.542571 0.797517
v 12.159250 0.569663 0.772968
v 12.159980 0.484599 0.822504
v 12.159250 0.455745 0.772968
v 12.159966 0.542571 0.821461
v 12.159250 0.569663 0.772968
v 12.203009 0.484599 0.796199
v 12.159250 0.455745 0.772968
v 12.202086 0.542571 0.795709
v 12.159250 0.569663 0.772968
v 12.201978 0.484599 0.747890
v 12.159250 0.455745 0.772968
v 12.201077 0.542571 0.748418
v 12.159250 0.569663 0.772968
v 12.114969 0.484599 0.652193
v 12.158424 0.484599 0.676653
v 12.115699 0.455745 0.701730
v 12.115699 0.569663 0.701730
v 12.157526 0.542571 0.677180
v 12.114985 0.542571 0.653236
v 12.071941 0.484599 0.678499
v 12.115699 0.455745 0.701730
v 12.072862 0.542571 0.678988
v 12.115699 0.569663 0.701730
v 12.072971 0.484599 0.726808
v 12.115699 0.455745 0.701730
v 12.073871 0.542571 0.726281
v 12.115699 0.569663 0.701730
v 12.116428 0.484599 0.751268
v 12.115699 0.455745 0.701730
v 12.116414 0.542571 0.750225
v 12.115699 0.569663 0.701730
v 12.159457 0.484599 0.724961
v 12.115699 0.455745 0.701730
v 12.115699 0.569663 0.701730
v 12.158536 0.542571 0.724473
v 12.158424 0.484599 0.676653
v 12.115699 0.455745 0.701730
v 12.115699 0.569663 0.701730
v 12.157526 0.542571 0.677180
v 12.156081 0.484599 0.579150
v 12.199538 0.484599 0.603609
v 12.156812 0.455745 0.628687
v 12.156097 0.542571 0.580192
v 12.198638 0.542571 0.604137
v 12.156812 0.569663 0.628687
v 12.113053 0.484599 0.605456
v 12.156812 0.455745 0.628687
v 12.113975 0.542571 0.605944
v 12.156812 0.569663 0.628687
v 12.114085 0.484599 0.653764
v 12.156812 0.455745 0.628687
v 12.114985 0.542571 0.653236
v 12.156812 0.569663 0.628687
v 12.157541 0.484599 0.678223
v 12.156812 0.455745 0.628687
v 12.156812 0.569663 0.628687
v 12.157526 0.542571 0.677180
v 12.200570 0.484599 0.651918
v 12.156812 0.455745 0.628687
v 12.156812 0.569663 0.628687
v 12.199648 0.542571 0.651428
v 12.199538 0.484599 0.603609
v 12.156812 0.455745 0.628687
v 12.198638 0.542571 0.604137
v 12.156812 0.569663 0.628687
v 12.199633 0.484599 0.650386
v 12.243090 0.484599 0.674846
v 12.200363 0.455745 0.699923
v 12.199648 0.542571 0.651428
v 12.242189 0.542571 0.675373
v 12.200363 0.569663 0.699923
v 12.156605 0.484599 0.676692
v 12.200363 0.455745 0.699923
v 12.200363 0.569663 0.699923
v 12.157526 0.542571 0.677180
v 12.157637 0.484599 0.725000
v 12.200363 0.455745 0.699923
v 12.200363 0.569663 0.699923
v 12.158536 0.542571 0.724473
v 12.201093 0.484599 0.749460
v 12.200363 0.455745 0.699923
v 12.200363 0.569663 0.699923
v 12.201077 0.542571 0.748418
v 12.244120 0.484599 0.723154
v 12.200363 0.455745 0.699923
v 12.243199 0.542571 0.722665
v 12.200363 0.569663 0.699923
v 12.243090 0.484599 0.674846
v 12.200363 0.455745 0.699923
v 12.242189 0.542571 0.675373
v 12.200363 0.569663 0.699923
v 0.280117 0.007758 -3.198684
v 0.280117 0.075161 -3.198684
v 0.301343 0.007758 -3.219910
v 0.301343 0.075161 -3.219910
v 0.301343 0.007758 -3.219910
v 0.301343 0.075161 -3.219910
v 0.322568 0.007758 -3.198684
v 0.322568 0.075161 -3.198684
v 0.322568 0.007758 -3.198684
v 0.322568 0.075161 -3.198684
v 0.301343 0.007758 -3.177459
v 0.301343 0.075161 -3.177459
v 0.301343 0.007758 -3.177459
v 0.301343 0.075161 -3.177459
v 0.280117 0.007758 -3.198684
v 0.280117 0.075161 -3.198684
v 0.301343 0.007758 -3.219910
v 0.301343 0.007758 -3.177459
v 0.280117 0.007758 -3.198684
v 0.322568 0.007758 -3.198684
v 0.280117 0.075161 -3.198684
v 0.322568 0.075161 -3.198684
v 0.301343 0.075161 -3.219910
v 0.301343 0.075161 -3.177459
v 0.888175 0.007758 -3.198684
v 0.888175 0.075161 -3.198684
v 0.909400 0.007758 -3.219910
v 0.909400 0.075161 -3.219910
v 0.909400 0.007758 -3.219910
v 0.909400 0.075161 -3.219910
v 0.930626 0.007758 -3.198684
v 0.930626 0.075161 -3.198684
v 0.930626 0.007758 -3.198684
v 0.930626 0.075161 -3.198684
v 0.909400 0.007758 -3.177459
v 0.909400 0.075161 -3.177459
v 0.909400 0.007758 -3.177459
v 0.909400 0.075161 -3.177459
v 0.888175 0.007758 -3.198684
v 0.888175 0.075161 -3.198684
v 0.909400 0.007758 -3.219910
v 0.909400 0.007758 -3.177459
v 0.888175 0.007758 -3.198684
v 0.930626 0.007758 -3.198684
v 0.888175 0.075161 -3.198684
v 0.930626 0.075161 -3.198684
v 0.909400 0.075161 -3.219910
v 0.909400 0.075161 -3.177459
v 4.681464 1.017489 -4.389254
v 4.684825 1.065230 -4.389254
v 4.659700 1.083614 -4.374257
v 4.650684 1.054137 -4.389254
v 4.681464 1.017489 -4.389254
v 4.659700 1.083614 -4.374257
v 4.659700 1.083614 -4.374257
v 4.604241 1.042580 -4.389254
v 4.650684 1.054137 -4.389254
v 4.629584 1.083179 -4.389254
v 4.604241 1.042580 -4.389254
v 4.659700 1.083614 -4.374257
v 4.629583 1.083179 -4.389254
v 4.659700 1.083614 -4.374257
v 4.604241 1.123778 -4.389254
v 4.659700 1.083614 -4.374257
v 4.650684 1.112221 -4.389254
v 4.604241 1.123778 -4.389254
v 4.659700 1.083614 -4.374257
v 4.681464 1.148869 -4.389254
v 4.650684 1.112221 -4.389254
v 4.659869 1.083669 -4.404251
v 4.629583 1.083179 -4.389254
v 4.604241 1.123778 -4.389254
v 4.650684 1.112221 -4.389254
v 4.659869 1.083669 -4.404251
v 4.604241 1.123778 -4.389254
v 4.629584 1.083179 -4.389254
v 4.659869 1.083669 -4.404251
v 4.604241 1.042580 -4.389254
v 4.659869 1.083669 -4.404251
v 4.650684 1.054137 -4.389254
v 4.604241 1.042580 -4.389254
v 4.650684 1.054137 -4.389254
v 4.659869 1.083669 -4.404251
v 4.681464 1.017489 -4.389254
v 4.659869 1.083669 -4.404251
v 4.684825 1.065230 -4.389254
v 4.681464 1.017489 -4.389254
v 4.684825 1.065230 -4.389254
v 4.659869 1.083669 -4.404251
v 4.729191 1.083179 -4.389254
v 4.659869 1.083669 -4.404251
v 4.681464 1.105754 -4.389254
v 4.729191 1.083179 -4.389254
v 4.659869 1.083669 -4.404251
v 4.681464 1.148869 -4.389254
v 4.681464 1.105754 -4.389254
v 4.650684 1.112221 -4.389254
v 4.681464 1.148869 -4.389254
v 4.659869 1.083669 -4.404251
v 4.681464 1.148869 -4.389254
v 4.659700 1.083614 -4.374257
v 4.681464 1.105754 -4.389254
v 4.659700 1.083614 -4.374257
v 4.729191 1.083179 -4.389254
v 4.681464 1.105754 -4.389254
v 4.659700 1.083614 -4.374257
v 4.684825 1.065230 -4.389254
v 4.729191 1.083179 -4.389254
v 4.173652 1.043198 -5.213120
v 4.170292 0.995457 -5.213120
v 4.195416 0.977073 -5.198123
v 4.204433 1.006550 -5.213120
v 4.173652 1.043198 -5.213120
v 4.195416 0.977073 -5.198123
v 4.195416 0.977073 -5.198123
v 4.250876 1.018107 -5.213120
v 4.204433 1.006550 -5.213120
v 4.225533 0.977508 -5.213120
v 4.250876 1.018107 -5.213120
v 4.195416 0.977073 -5.198123
v 4.225533 0.977508 -5.213120
v 4.195416 0.977073 -5.198123
v 4.250876 0.936909 -5.213120
v 4.195416 0.977073 -5.198123
v 4.204433 0.948466 -5.213120
v 4.250876 0.936909 -5.213120
v 4.195416 0.977073 -5.198123
v 4.173652 0.911818 -5.213120
v 4.204433 0.948466 -5.213120
v 4.195249 0.977018 -5.228116
v 4.225533 0.977508 -5.213120
v 4.250876 0.936909 -5.213120
v 4.204433 0.948466 -5.213120
v 4.195249 0.977018 -5.228116
v 4.250876 0.936909 -5.213120
v 4.225533 0.977508 -5.213120
v 4.195249 0.977018 -5.228116
v 4.250876 1.018107 -5.213120
v 4.195249 0.977018 -5.228116
v 4.204433 1.006550 -5.213120
v 4.250876 1.018107 -5.213120
v 4.204433 1.006550 -5.213120
v 4.195249 0.977018 -5.228116
v 4.173652 1.043198 -5.213120
v 4.195249 0.977018 -5.228116
v 4.170292 0.995457 -5.213120
v 4.173652 1.043198 -5.213120
v 4.170292 0.995457 -5.213120
v 4.195249 0.977018 -5.228116
v 4.125926 0.977508 -5.213120
v 4.195249 0.977018 -5.228116
v 4.173652 0.954934 -5.213120
v 4.125926 0.977508 -5.213120
v 4.195249 0.977018 -5.228116
v 4.173652 0.911818 -5.213120
v 4.173652 0.954934 -5.213120
v 4.204433 0.948466 -5.213120
v 4.173652 0.911818 -5.213120
v 4.195249 0.977018 -5.228116
v 4.173652 0.911818 -5.213120
v 4.195416 0.977073 -5.198123
v 4.173652 0.954934 -5.213120
v 4.195416 0.977073 -5.198123
v 4.125926 0.977508 -5.213120
v 4.173652 0.954934 -5.213120
v 4.195416 0.977073 -5.198123
v 4.170292 0.995457 -5.213120
v 4.125926 0.977508 -5.213120
v 4.689021 0.888769 -5.842027
v 4.692382 0.936511 -5.842027
v 4.667257 0.954895 -5.827030
v 4.658241 0.925417 -5.842027
v 4.689021 0.888769 -5.842027
v 4.667257 0.954895 -5.827030
v 4.667257 0.954895 -5.827030
v 4.611798 0.913861 -5.842027
v 4.658241 0.925417 -5.842027
v 4.637140 0.954460 -5.842027
v 4.611798 0.913861 -5.842027
v 4.667257 0.954895 -5.827030
v 4.637140 0.954460 -5.842027
v 4.667257 0.954895 -5.827030
v 4.611798 0.995058 -5.842027
v 4.667257 0.954895 -5.827030
v 4.658241 0.983502 -5.842027
v 4.611798 0.995058 -5.842027
v 4.667257 0.954895 -5.827030
v 4.689021 1.020150 -5.842027
v 4.658241 0.983502 -5.842027
v 4.667425 0.954949 -5.857023
v 4.637140 0.954460 -5.842027
v 4.611798 0.995058 -5.842027
v 4.658241 0.983502 -5.842027
v 4.667425 0.954949 -5.857023
v 4.611798 0.995058 -5.842027
v 4.637140 0.954460 -5.842027
v 4.667425 0.954949 -5.857023
v 4.611798 0.913861 -5.842027
v 4.667425 0.954949 -5.857023
v 4.658241 0.925417 -5.842027
v 4.611798 0.913861 -5.842027
v 4.658241 0.925417 -5.842027
v 4.667425 0.954949 -5.857023
v 4.689021 0.888769 -5.842027
v 4.667425 0.954949 -5.857023
v 4.692382 0.936511 -5.842027
v 4.689021 0.888769 -5.842027
v 4.692382 0.936511 -5.842027
v 4.667425 0.954949 -5.857023
v 4.736748 0.954460 -5.842027
v 4.667425 0.954949 -5.857023
v 4.689021 0.977034 -5.842027
v 4.736748 0.954460 -5.842027
v 4.667425 0.954949 -5.857023
v 4.689021 1.020150 -5.842027
v 4.689021 0.977034 -5.842027
v 4.658241 0.983502 -5.842027
v 4.689021 1.020150 -5.842027
v 4.667425 0.954949 -5.857023
v 4.689021 1.020150 -5.842027
v 4.667257 0.954895 -5.827030
v 4.689021 0.977034 -5.842027
v 4.667257 0.954895 -5.827030
v 4.736748 0.954460 -5.842027
v 4.689021 0.977034 -5.842027
v 4.667257 0.954895 -5.827030
v 4.692382 0.936511 -5.842027
v 4.736748 0.954460 -5.842027
v 4.166096 0.896449 -6.665892
v 4.162735 0.848708 -6.665892
v 4.187860 0.830323 -6.650896
v 4.196876 0.859801 -6.665892
v 4.166096 0.896449 -6.665892
v 4.187860 0.830323 -6.650896
v 4.187860 0.830323 -6.650896
v 4.243319 0.871357 -6.665892
v 4.196876 0.859801 -6.665892
v 4.217976 0.830759 -6.665892
v 4.243319 0.871357 -6.665892
v 4.187860 0.830323 -6.650896
v 4.217976 0.830759 -6.665892
v 4.187860 0.830323 -6.650896
v 4.243319 0.790160 -6.665892
v 4.187860 0.830323 -6.650896
v 4.196876 0.801717 -6.665892
v 4.243319 0.790160 -6.665892
v 4.187860 0.830323 -6.650896
v 4.166096 0.765068 -6.665892
v 4.196876 0.801717 -6.665892
v 4.187691 0.830269 -6.680889
v 4.217976 0.830759 -6.665892
v 4.243319 0.790160 -6.665892
v 4.196876 0.801717 -6.665892
v 4.187691 0.830269 -6.680889
v 4.243319 0.790160 -6.665892
v 4.217976 0.830759 -6.665892
v 4.187691 0.830269 -6.680889
v 4.243319 0.871357 -6.665892
v 4.187691 0.830269 -6.680889
v 4.196876 0.859801 -6.665892
v 4.243319 0.871357 -6.665892
v 4.196876 0.859801 -6.665892
v 4.187691 0.830269 -6.680889
v 4.166096 0.896449 -6.665892
v 4.187691 0.830269 -6.680889
v 4.162735 0.848708 -6.665892
v 4.166096 0.896449 -6.665892
v 4.162735 0.848708 -6.665892
v 4.187691 0.830269 -6.680889
v 4.118369 0.830759 -6.665892
v 4.187691 0.830269 -6.680889
v 4.166096 0.808184 -6.665892
v 4.118369 0.830759 -6.665892
v 4.187691 0.830269 -6.680889
v 4.166096 0.765068 -6.665892
v 4.166096 0.808184 -6.665892
v 4.196876 0.801717 -6.665892
v 4.166096 0.765068 -6.665892
v 4.187691 0.830269 -6.680889
v 4.166096 0.765068 -6.665892
v 4.187860 0.830323 -6.650896
v 4.166096 0.808184 -6.665892
v 4.187860 0.830323 -6.650896
v 4.118369 0.830759 -6.665892
v 4.166096 0.808184 -6.665892
v 4.187860 0.830323 -6.650896
v 4.162735 0.848708 -6.665892
v 4.118369 0.830759 -6.665892
v 4.689021 0.718873 -7.516016
v 4.692382 0.766614 -7.516016
v 4.667257 0.784999 -7.501020
v 4.658241 0.755521 -7.516016
v 4.689021 0.718873 -7.516016
v 4.667257 0.784999 -7.501020
v 4.667257 0.784999 -7.501020
v 4.611798 0.743964 -7.516016
v 4.658241 0.755521 -7.516016
v 4.637140 0.784563 -7.516016
v 4.611798 0.743964 -7.516016
v 4.667257 0.784999 -7.501020
v 4.637140 0.784563 -7.516016
v 4.667257 0.784999 -7.501020
v 4.611798 0.825162 -7.516016
v 4.667257 0.784999 -7.501020
v 4.658241 0.813605 -7.516016
v 4.611798 0.825162 -7.516016
v 4.667257 0.784999 -7.501020
v 4.689021 0.850253 -7.516016
v 4.658241 0.813605 -7.516016
v 4.667425 0.785053 -7.531013
v 4.637140 0.784563 -7.516016
v 4.611798 0.825162 -7.516016
v 4.658241 0.813605 -7.516016
v 4.667425 0.785053 -7.531013
v 4.611798 0.825162 -7.516016
v 4.637140 0.784563 -7.516016
v 4.667425 0.785053 -7.531013
v 4.611798 0.743964 -7.516016
v 4.667425 0.785053 -7.531013
v 4.658241 0.755521 -7.516016
v 4.611798 0.743964 -7.516016
v 4.658241 0.755521 -7.516016
v 4.667425 0.785053 -7.531013
v 4.689021 0.718873 -7.516016
v 4.667425 0.785053 -7.531013
v 4.692382 0.766614 -7.516016
v 4.689021 0.718873 -7.516016
v 4.692382 0.766614 -7.516016
v 4.667425 0.785053 -7.531013
v 4.736748 0.784563 -7.516016
v 4.667425 0.785053 -7.531013
v 4.689021 0.807138 -7.516016
v 4.736748 0.784563 -7.516016
v 4.667425 0.785053 -7.531013
v 4.689021 0.850253 -7.516016
v 4.689021 0.807138 -7.516016
v 4.658241 0.813605 -7.516016
v 4.689021 0.850253 -7.516016
v 4.667425 0.785053 -7.531013
v 4.689021 0.850253 -7.516016
v 4.667257 0.784999 -7.501020
v 4.689021 0.807138 -7.516016
v 4.667257 0.784999 -7.501020
v 4.736748 0.784563 -7.516016
v 4.689021 0.807138 -7.516016
v 4.667257 0.784999 -7.501020
v 4.692382 0.766614 -7.516016
v 4.736748 0.784563 -7.516016
v 4.166096 0.732612 -8.339883
v 4.162735 0.684871 -8.339883
v 4.187860 0.666486 -8.324886
v 4.196876 0.695964 -8.339883
v 4.166096 0.732612 -8.339883
v 4.187860 0.666486 -8.324886
v 4.187860 0.666486 -8.324886
v 4.243319 0.707520 -8.339883
v 4.196876 0.695964 -8.339883
v 4.217976 0.666922 -8.339883
v 4.243319 0.707520 -8.339883
v 4.187860 0.666486 -8.324886
v 4.217976 0.666922 -8.339883
v 4.187860 0.666486 -8.324886
v 4.243319 0.626323 -8.339883
v 4.187860 0.666486 -8.324886
v 4.196876 0.637880 -8.339883
v 4.243319 0.626323 -8.339883
v 4.187860 0.666486 -8.324886
v 4.166096 0.601232 -8.339883
v 4.196876 0.637880 -8.339883
v 4.187692 0.666432 -8.354879
v 4.217976 0.666922 -8.339883
v 4.243319 0.626323 -8.339883
v 4.196876 0.637880 -8.339883
v 4.187692 0.666432 -8.354879
v 4.243319 0.626323 -8.339883
v 4.217976 0.666922 -8.339883
v 4.187692 0.666432 -8.354879
v 4.243319 0.707520 -8.339883
v 4.187692 0.666432 -8.354879
v 4.196876 0.695964 -8.339883
v 4.243319 0.707520 -8.339883
v 4.196876 0.695964 -8.339883
v 4.187692 0.666432 -8.354879
v 4.166096 0.732612 -8.339883
v 4.187692 0.666432 -8.354879
v 4.162735 0.684871 -8.339883
v 4.166096 0.732612 -8.339883
v 4.162735 0.684871 -8.339883
v 4.187692 0.666432 -8.354879
v 4.118369 0.666922 -8.339883
v 4.187692 0.666432 -8.354879
v 4.166096 0.644347 -8.339883
v 4.118369 0.666922 -8.339883
v 4.187692 0.666432 -8.354879
v 4.166096 0.601232 -8.339883
v 4.166096 0.644347 -8.339883
v 4.196876 0.637880 -8.339883
v 4.166096 0.601232 -8.339883
v 4.187692 0.666432 -8.354879
v 4.166096 0.601232 -8.339883
v 4.187860 0.666486 -8.324886
v 4.166096 0.644347 -8.339883
v 4.187860 0.666486 -8.324886
v 4.118369 0.666922 -8.339883
v 4.166096 0.644347 -8.339883
v 4.187860 0.666486 -8.324886
v 4.162735 0.684871 -8.339883
v 4.118369 0.666922 -8.339883
vn 0.0434 0.9967 0.0688
vn 0.0487 0.9967 0.0652
vn 0.0513 0.9965 0.0652
vn 0.0460 0.9969 0.0639
vn 0.0477 0.9970 0.0604
vn 0.0513 0.9965 0.0654
vn 0.0461 0.9972 0.0593
vn 0.0555 0.9963 0.0652
vn 0.0600 0.9950 0.0795
vn 0.0636 0.9943 0.0859
vn 0.0644 0.9930 0.0986
vn 0.0744 0.9915 0.1066
vn 0.0744 0.9915 0.1067
vn 0.0755 0.9896 0.1224
vn -0.0000 1.0000 -0.0000
vn 0.0396 0.9989 0.0257
vn 0.0523 0.9983 0.0276
vn 0.0517 0.9983 0.0276
vn 0.0518 0.9983 0.0276
vn -0.7071 -0.0000 -0.7071
vn 0.7071 -0.0000 -0.7071
vn 0.7071 -0.0000 0.7071
vn -0.7071 -0.0000 0.7071
vn -0.0000 -1.0000 -0.0000
vn 0.5030 -0.8641 -0.0148
vn 0.4903 -0.8292 0.2682
vn 0.4763 0.8398 0.2605
vn 0.4875 0.8730 -0.0143
vn 0.1442 -0.5838 -0.7989
vn 0.5031 -0.8641 -0.0149
vn 0.4745 -0.8282 -0.2981
vn 0.4610 0.8389 -0.2896
vn 0.4874 0.8730 -0.0144
vn 0.1377 0.5997 -0.7883
vn -0.4723 -0.4326 -0.7680
vn 0.1443 -0.5838 -0.7990
vn -0.0186 -0.8319 -0.5547
vn -0.4666 0.4546 -0.7587
vn -0.0180 0.8423 -0.5386
vn -0.9017 -0.4315 0.0271
vn -0.4903 -0.8292 -0.2682
vn -0.8909 0.4535 0.0267
vn -0.4763 0.8398 -0.2605
vn -0.4224 -0.4323 0.7967
vn -0.4745 -0.8282 0.2981
vn -0.4174 0.4543 0.7870
vn -0.4610 0.8389 0.2896
vn 0.0309 -0.3871 0.9215
vn 0.0186 -0.8319 0.5546
vn 0.0306 0.4077 0.9126
vn 0.0180 0.8423 0.5386
vn 0.7649 -0.5826 -0.2747
vn 0.7525 0.5982 -0.2753
vn 0.4224 -0.4323 -0.7967
vn 0.7649 -0.5826 -0.2748
vn 0.4174 0.4543 -0.7870
vn 0.7525 0.5982 -0.2754
vn 0.4609 0.8389 -0.2895
vn -0.7800 -0.5825 -0.2286
vn -0.7677 0.5982 -0.2299
vn -0.2350 -0.8641 0.4450
vn -0.7677 0.5982 -0.2298
vn -0.2277 0.8730 0.4312
vn 0.0186 -0.8319 0.5547
vn -0.2350 -0.8641 0.4451
vn -0.2277 0.8730 0.4313
vn 0.9017 -0.4315 -0.0270
vn 0.8107 -0.3823 0.4434
vn 0.8909 0.4535 -0.0267
vn 0.8030 0.4028 0.4392
vn -0.1968 -0.5844 -0.7872
vn -0.0186 -0.8319 -0.5546
vn -0.1895 0.6002 -0.7771
vn -0.0180 0.8423 -0.5387
vn -0.5030 -0.8641 0.0148
vn -0.1895 0.6002 -0.7770
vn -0.4875 0.8730 0.0143
vn -0.1443 -0.5839 0.7989
vn -0.5031 -0.8641 0.0149
vn -0.4874 0.8730 0.0144
vn -0.1377 0.5997 0.7883
vn -0.1443 -0.5838 0.7990
vn 0.0180 0.8423 0.5387
vn 0.7800 -0.5825 0.2286
vn 0.7677 0.5982 0.2299
vn 0.2350 -0.8641 -0.4450
vn 0.4610 0.8388 -0.2896
vn 0.7677 0.5982 0.2298
vn 0.2277 0.8730 -0.4312
vn -0.2631 -0.8641 -0.4290
vn 0.2349 -0.8641 -0.4451
vn 0.2277 0.8730 -0.4313
vn -0.2549 0.8730 -0.4157
vn -0.7649 -0.5826 0.2748
vn -0.2550 0.8730 -0.4157
vn -0.7525 0.5982 0.2753
vn -0.7525 0.5982 0.2754
vn 0.3738 -0.8641 0.3370
vn 0.1690 -0.8292 0.5327
vn 0.1642 0.8398 0.5174
vn 0.3622 0.8730 0.3265
vn 0.6565 -0.5838 -0.4776
vn 0.3739 -0.8641 0.3369
vn 0.5490 -0.8282 0.1125
vn 0.5333 0.8388 0.1093
vn 0.3623 0.8730 0.3265
vn 0.6444 0.5997 -0.4745
vn 0.1894 -0.4326 -0.8815
vn 0.6565 -0.5838 -0.4777
vn 0.3699 -0.8319 -0.4137
vn 0.1871 0.4546 -0.8708
vn 0.3592 0.8423 -0.4018
vn -0.6704 -0.4315 -0.6036
vn -0.1690 -0.8292 -0.5327
vn -0.6623 0.4535 -0.5964
vn -0.1642 0.8398 -0.5174
vn -0.8559 -0.4323 0.2839
vn -0.5490 -0.8282 -0.1125
vn -0.8456 0.4543 0.2803
vn -0.5333 0.8389 -0.1093
vn -0.6146 -0.3871 0.6874
vn -0.3699 -0.8319 0.4137
vn -0.6086 0.4077 0.6807
vn -0.3592 0.8423 0.4018
vn 0.7427 -0.5826 0.3300
vn 0.7342 0.5982 0.3211
vn 0.8559 -0.4323 -0.2839
vn 0.8456 0.4543 -0.2803
vn 0.7342 0.5983 0.3211
vn 0.5333 0.8389 0.1093
vn 0.1895 -0.4326 -0.8815
vn -0.4058 -0.5825 -0.7043
vn -0.3959 0.5982 -0.6967
vn -0.1642 0.8398 -0.5175
vn -0.4775 -0.8641 0.1592
vn -0.5333 0.8388 -0.1093
vn -0.3960 0.5982 -0.6967
vn -0.4626 0.8730 0.1542
vn -0.4774 -0.8641 0.1593
vn -0.3592 0.8424 0.4017
vn -0.4626 0.8730 0.1543
vn 0.6704 -0.4315 0.6036
vn 0.2794 -0.3823 0.8808
vn 0.6623 0.4535 0.5964
vn 0.2768 0.4028 0.8724
vn 0.1642 0.8398 0.5175
vn 0.8456 0.4543 -0.2804
vn 0.4018 -0.5844 -0.7050
vn 0.4000 0.6002 -0.6926
vn -0.3738 -0.8641 -0.3369
vn 0.4019 -0.5844 -0.7050
vn -0.3622 0.8730 -0.3265
vn -0.6564 -0.5839 0.4777
vn -0.3739 -0.8641 -0.3369
vn -0.3623 0.8730 -0.3264
vn -0.6444 0.5997 0.4745
vn -0.6146 -0.3871 0.6873
vn -0.6565 -0.5838 0.4777
vn 0.4058 -0.5825 0.7043
vn 0.3959 0.5982 0.6967
vn 0.2768 0.4027 0.8725
vn 0.4774 -0.8641 -0.1592
vn 0.3960 0.5982 0.6967
vn 0.4626 0.8730 -0.1543
vn 0.1064 -0.8641 -0.4919
vn 0.4774 -0.8641 -0.1593
vn 0.4626 0.8730 -0.1544
vn 0.1031 0.8730 -0.4766
vn -0.7427 -0.5826 -0.3301
vn 0.1063 -0.8641 -0.4919
vn 0.1030 0.8730 -0.4767
vn -0.7342 0.5982 -0.3211
vn -0.7427 -0.5826 -0.3300
vn 0.1443 -0.5839 -0.7989
vn 0.1377 0.5996 -0.7883
vn -0.0180 0.8424 -0.5386
vn -0.9017 -0.4315 0.0270
vn -0.4610 0.8388 0.2896
vn -0.7800 -0.5825 -0.2285
vn -0.2349 -0.8641 0.4451
vn 0.8909 0.4535 -0.0268
vn 0.4609 0.8389 -0.2896
vn -0.4874 0.8730 0.0143
vn -0.5030 -0.8641 0.0149
vn 0.4904 -0.8292 0.2682
vn -0.2630 -0.8641 -0.4290
vn -0.7525 0.5983 0.2753
vn -0.4609 0.8389 0.2896
vn 0.4226 -0.8641 0.2734
vn 0.2514 -0.8292 0.4992
vn 0.2442 0.8398 0.4848
vn 0.4094 0.8730 0.2649
vn 0.5723 -0.5839 -0.5758
vn 0.4226 -0.8641 0.2733
vn 0.5599 -0.8282 0.0240
vn 0.5439 0.8388 0.0233
vn 0.4095 0.8730 0.2648
vn 0.5609 0.5997 -0.5708
vn 0.0471 -0.4326 -0.9004
vn 0.5723 -0.5838 -0.5759
vn 0.2996 -0.8319 -0.4672
vn 0.0465 0.4546 -0.8895
vn 0.2909 0.8423 -0.4537
vn -0.7577 -0.4315 -0.4896
vn -0.2514 -0.8292 -0.4992
vn -0.7486 0.4535 -0.4837
vn -0.2442 0.8398 -0.4848
vn -0.8000 -0.4323 0.4161
vn -0.5599 -0.8282 -0.0239
vn -0.7904 0.4543 0.4110
vn -0.5439 0.8389 -0.0233
vn -0.4977 -0.3871 0.7762
vn -0.2996 -0.8319 0.4672
vn -0.4929 0.4077 0.7687
vn -0.2909 0.8423 0.4537
vn 0.7857 -0.5826 0.2080
vn 0.7758 0.5982 0.2005
vn 0.8000 -0.4323 -0.4162
vn 0.7857 -0.5826 0.2079
vn 0.5599 -0.8282 0.0239
vn 0.7904 0.4543 -0.4110
vn 0.5439 0.8389 0.0233
vn -0.5124 -0.5825 -0.6309
vn -0.5015 0.5982 -0.6250
vn -0.4461 -0.8641 0.2329
vn -0.5124 -0.5825 -0.6310
vn -0.4323 0.8730 0.2257
vn -0.2995 -0.8319 0.4671
vn -0.4461 -0.8641 0.2330
vn -0.4322 0.8730 0.2258
vn 0.7577 -0.4315 0.4896
vn 0.4157 -0.3823 0.8253
vn 0.2514 -0.8292 0.4991
vn 0.7486 0.4535 0.4837
vn 0.4118 0.4028 0.8174
vn 0.8000 -0.4323 -0.4161
vn 0.2849 -0.5844 -0.7598
vn 0.2995 -0.8319 -0.4672
vn 0.2850 0.6002 -0.7473
vn 0.2909 0.8424 -0.4537
vn -0.4226 -0.8641 -0.2734
vn -0.2514 -0.8292 -0.4991
vn -0.2442 0.8398 -0.4849
vn -0.4094 0.8730 -0.2649
vn -0.5723 -0.5838 0.5759
vn -0.4226 -0.8641 -0.2733
vn -0.5599 -0.8282 -0.0240
vn -0.5439 0.8388 -0.0232
vn -0.4095 0.8730 -0.2648
vn -0.5609 0.5997 0.5708
vn -0.2995 -0.8319 0.4672
vn -0.5609 0.5996 0.5708
vn 0.5124 -0.5825 0.6309
vn 0.5015 0.5982 0.6250
vn 0.4118 0.4028 0.8175
vn 0.2442 0.8398 0.4849
vn 0.4461 -0.8641 -0.2329
vn 0.5124 -0.5826 0.6309
vn 0.5438 0.8389 0.0233
vn 0.4323 0.8730 -0.2258
vn 0.0269 -0.8641 -0.5026
vn 0.4461 -0.8641 -0.2330
vn 0.4322 0.8730 -0.2258
vn 0.0262 0.8730 -0.4870
vn -0.7857 -0.5826 -0.2080
vn 0.0260 0.8730 -0.4870
vn -0.7758 0.5982 -0.2004
vn -0.2909 0.8424 0.4537
vn 0.3439 -0.8641 -0.3675
vn 0.5358 -0.8292 -0.1591
vn 0.5204 0.8398 -0.1545
vn 0.3332 0.8730 -0.3561
vn -0.4654 -0.5839 -0.6652
vn 0.3438 -0.8641 -0.3676
vn 0.1227 -0.8282 -0.5468
vn 0.1192 0.8388 -0.5312
vn 0.3331 0.8730 -0.3562
vn -0.4625 0.5997 -0.6531
vn -0.8778 -0.4326 -0.2058
vn -0.4654 -0.5838 -0.6652
vn -0.4068 -0.8319 -0.3775
vn -0.8672 0.4546 -0.2032
vn -0.3950 0.8423 -0.3666
vn -0.6160 -0.4315 0.6591
vn -0.5358 -0.8292 0.1591
vn -0.6086 0.4535 0.6511
vn -0.5204 0.8398 0.1545
vn 0.2680 -0.4323 0.8610
vn -0.1227 -0.8282 0.5468
vn 0.2646 0.4543 0.8507
vn -0.1192 0.8388 0.5312
vn 0.6758 -0.3871 0.6272
vn 0.4068 -0.8319 0.3775
vn 0.6693 0.4077 0.6212
vn 0.3950 0.8423 0.3666
vn 0.3438 -0.5826 -0.7365
vn 0.3347 0.5982 -0.7281
vn -0.2679 -0.4323 -0.8610
vn -0.2646 0.4543 -0.8507
vn 0.1192 0.8389 -0.5311
vn -0.8672 0.4546 -0.2033
vn -0.3950 0.8423 -0.3667
vn -0.7117 -0.5825 0.3926
vn -0.7040 0.5982 0.3829
vn 0.1503 -0.8641 0.4803
vn -0.7039 0.5982 0.3830
vn 0.1457 0.8730 0.4654
vn 0.1504 -0.8641 0.4803
vn 0.3950 0.8423 0.3667
vn 0.6160 -0.4315 -0.6590
vn 0.8858 -0.3823 -0.2630
vn 0.6086 0.4535 -0.6511
vn 0.8774 0.4028 -0.2605
vn -0.6974 -0.5844 -0.4149
vn -0.6850 0.6002 -0.4129
vn -0.3439 -0.8641 0.3675
vn -0.6974 -0.5844 -0.4148
vn -0.6850 0.6002 -0.4128
vn -0.3332 0.8730 0.3561
vn 0.4654 -0.5838 0.6653
vn -0.3438 -0.8641 0.3676
vn -0.3331 0.8731 0.3561
vn 0.4625 0.5997 0.6531
vn 0.4654 -0.5838 0.6652
vn 0.7117 -0.5825 -0.3926
vn 0.7039 0.5982 -0.3829
vn -0.1503 -0.8641 -0.4803
vn 0.7039 0.5982 -0.3830
vn -0.1456 0.8730 -0.4654
vn -0.4898 -0.8641 -0.1155
vn -0.1504 -0.8641 -0.4803
vn -0.3950 0.8424 -0.3666
vn -0.1457 0.8730 -0.4654
vn -0.4746 0.8730 -0.1119
vn -0.3438 -0.5826 0.7365
vn -0.4899 -0.8641 -0.1154
vn -0.4746 0.8731 -0.1118
vn -0.3347 0.5982 0.7281
vn 0.2679 -0.4323 0.8610
vn -0.3437 -0.5827 0.7364
vn -0.1192 0.8389 0.5311
vn -0.0087 -0.8641 -0.5032
vn 0.2741 -0.8292 -0.4870
vn 0.2663 0.8398 -0.4731
vn -0.0084 0.8730 -0.4876
vn -0.7971 -0.5838 -0.1540
vn -0.0088 -0.8641 -0.5032
vn -0.2923 -0.8282 -0.4781
vn -0.2839 0.8389 -0.4644
vn -0.0085 0.8730 -0.4876
vn -0.7866 0.5997 -0.1473
vn -0.7737 -0.4326 0.4629
vn -0.5548 -0.8319 0.0119
vn -0.7643 0.4546 0.4574
vn -0.7866 0.5996 -0.1473
vn -0.5388 0.8423 0.0115
vn 0.0161 -0.4315 0.9020
vn -0.2741 -0.8292 0.4870
vn 0.0159 0.4535 0.8911
vn -0.2663 0.8398 0.4731
vn 0.7915 -0.4323 0.4320
vn 0.2923 -0.8282 0.4781
vn 0.7819 0.4543 0.4269
vn 0.2839 0.8388 0.4645
vn 0.9218 -0.3871 -0.0197
vn 0.5548 -0.8319 -0.0118
vn 0.9129 0.4077 -0.0195
vn 0.5388 0.8423 -0.0115
vn -0.2655 -0.5826 -0.7682
vn -0.2662 0.5982 -0.7558
vn -0.7915 -0.4323 -0.4320
vn -0.7819 0.4543 -0.4269
vn -0.5548 -0.8319 0.0118
vn -0.2380 -0.5825 0.7772
vn -0.2391 0.5982 0.7648
vn 0.4421 -0.8641 0.2404
vn 0.2839 0.8389 0.4644
vn -0.2392 0.5982 0.7648
vn 0.4284 0.8730 0.2329
vn 0.5548 -0.8319 -0.0119
vn 0.4422 -0.8641 0.2403
vn 0.4285 0.8730 0.2328
vn -0.0161 -0.4315 -0.9020
vn 0.4532 -0.3823 -0.8053
vn 0.2741 -0.8292 -0.4871
vn -0.0159 0.4535 -0.8911
vn 0.4490 0.4028 -0.7976
vn -0.2839 0.8388 -0.4644
vn -0.7896 -0.5844 0.1872
vn -0.7793 0.6002 0.1801
vn 0.0087 -0.8641 0.5032
vn -0.7895 -0.5844 0.1873
vn -0.7793 0.6003 0.1801
vn 0.0084 0.8730 0.4876
vn 0.7971 -0.5839 0.1540
vn 0.0088 -0.8641 0.5032
vn 0.0085 0.8730 0.4876
vn 0.7866 0.5997 0.1473
vn 0.7971 -0.5838 0.1540
vn 0.2380 -0.5825 -0.7772
vn 0.2392 0.5982 -0.7648
vn -0.4421 -0.8641 -0.2404
vn 0.2391 0.5982 -0.7648
vn -0.4284 0.8730 -0.2330
vn -0.4322 -0.8641 0.2578
vn -0.4422 -0.8641 -0.2403
vn -0.4285 0.8730 -0.2329
vn -0.4188 0.8730 0.2498
vn 0.2655 -0.5826 0.7682
vn -0.4321 -0.8641 0.2579
vn -0.4187 0.8730 0.2499
vn 0.2662 0.5982 0.7558
vn 0.2655 -0.5826 0.7681
vn 0.4934 -0.0347 0.8691
vn -0.3841 -0.3226 0.8651
vn 0.1192 -0.4789 0.8697
vn -0.4323 0.2699 0.8604
vn -0.4266 -0.2663 0.8644
vn 0.1221 0.4907 0.8627
vn -0.3904 0.3279 0.8603
vn -0.4244 -0.2649 -0.8658
vn 0.1224 0.4921 -0.8619
vn -0.4309 0.2690 -0.8614
vn 0.1191 -0.4788 -0.8698
vn -0.3823 -0.3211 -0.8665
vn 0.4957 -0.0349 -0.8678
vn 0.1850 -0.4572 -0.8699
vn 0.1954 0.4130 -0.8895
vn 0.5704 -0.0000 -0.8214
vn -0.3894 0.3270 -0.8611
vn 0.5674 -0.0000 0.8234
vn 0.1947 0.4116 0.8903
vn 0.1849 -0.4570 0.8700
vn -0.4934 0.0347 0.8691
vn 0.3841 0.3226 0.8651
vn -0.1192 0.4789 0.8697
vn 0.4323 -0.2699 0.8604
vn 0.4266 0.2663 0.8644
vn -0.1221 -0.4907 0.8627
vn 0.3904 -0.3279 0.8603
vn 0.4245 0.2650 -0.8658
vn -0.1224 -0.4921 -0.8619
vn 0.4309 -0.2690 -0.8614
vn -0.1191 0.4788 -0.8698
vn 0.3823 0.3211 -0.8665
vn -0.4957 0.0349 -0.8678
vn -0.1850 0.4572 -0.8699
vn -0.1953 -0.4130 -0.8895
vn -0.5704 -0.0000 -0.8214
vn 0.3894 -0.3270 -0.8611
vn -0.5674 -0.0000 0.8234
vn -0.1947 -0.4116 0.8903
vn -0.1849 0.4570 0.8700
vn 0.1221 0.4908 0.8627
vn -0.3904 0.3279 0.8602
vn 0.1191 -0.4787 -0.8698
vn 0.1953 0.4130 -0.8895
vn 0.1947 0.4117 0.8903
vn 0.1849 -0.4571 0.8700
vn -0.1191 0.4787 -0.8698
vn 0.3823 0.3211 -0.8664
vn 0.1192 -0.4789 0.8698
vn -0.4244 -0.2650 -0.8658
vn 0.4244 0.2649 -0.8658
vn -0.1849 0.4572 -0.8699
vn 0.3893 -0.3270 -0.8611
vn -0.1947 -0.4117 0.8903
vt 0.332000 0.922900
vt 0.332000 0.853300
vt 0.406300 0.922900
vt 0.406300 0.853300
vt 0.480600 0.853300
vt 0.480600 0.922900
vt 0.332000 0.992600
vt 0.406300 0.992600
vt 0.480600 0.992600
vt 0.136000 0.695600
vt 0.136000 0.774100
vt 0.143200 0.695600
vt 0.143200 0.774100
vt 0.128000 0.695600
vt 0.128000 0.774100
vt 0.135100 0.695600
vt 0.135100 0.774100
vt 0.111900 0.695600
vt 0.111900 0.774100
vt 0.119100 0.695600
vt 0.119100 0.774100
vt 0.103900 0.695600
vt 0.103900 0.774100
vt 0.111000 0.695600
vt 0.111000 0.774100
vt 0.119900 0.750500
vt 0.127900 0.734900
vt 0.119900 0.734900
vt 0.127900 0.750500
vt 0.119900 0.695600
vt 0.127900 0.711200
vt 0.127900 0.695600
vt 0.119900 0.711200
vt 0.363200 0.901900
vt 0.339500 0.901900
vt 0.339500 0.858800
vt 0.363200 0.987000
vt 0.339500 0.945400
vt 0.363200 0.945400
vt 0.387100 0.901900
vt 0.363200 0.858800
vt 0.387100 0.987000
vt 0.387100 0.945400
vt 0.410000 0.901900
vt 0.387100 0.858800
vt 0.410000 0.945400
vt 0.410000 0.987000
vt 0.433700 0.901900
vt 0.410000 0.858800
vt 0.433700 0.945400
vt 0.433700 0.987000
vt 0.457700 0.901900
vt 0.433700 0.858800
vt 0.457700 0.945400
vt 0.457700 0.987000
vt 0.480600 0.901900
vt 0.457700 0.858800
vt 0.480600 0.945400
vt 0.480600 0.987000
vt 0.109200 0.716600
vt 0.129100 0.716600
vt 0.136000 0.737400
vt 0.117400 0.717800
vt 0.137300 0.717800
vt 0.110400 0.738300
vt 0.135900 0.736500
vt 0.109400 0.715500
vt 0.129300 0.715500
vt 0.116100 0.715900
vt 0.136000 0.715900
vt 0.109300 0.736100
vt 0.129300 0.715800
vt 0.135800 0.736300
vt 0.109400 0.715800
vt 0.109500 0.736200
vt 0.116000 0.715800
vt 0.135900 0.715800
vt 0.134800 0.738200
vt 0.108200 0.717900
vt 0.128100 0.717900
vt 0.135800 0.715600
vt 0.129300 0.736200
vt 0.109400 0.736200
vt 0.116000 0.736200
vt 0.135900 0.736200
vt 0.116100 0.736200
vt 0.109300 0.715800
vt 0.136100 0.736200
vt 0.136000 0.715500
vt 0.129300 0.736500
vt 0.109400 0.736500
vt 0.117400 0.734200
vt 0.110500 0.713600
vt 0.137300 0.734200
vt 0.136100 0.714600
vt 0.129100 0.735400
vt 0.109200 0.735400
vt 0.117500 0.731500
vt 0.110700 0.710600
vt 0.137400 0.731500
vt 0.133800 0.708600
vt 0.129600 0.731200
vt 0.107600 0.731200
vt 0.109100 0.716900
vt 0.136200 0.735000
vt 0.118300 0.735000
vt 0.128100 0.734100
vt 0.108200 0.734100
vt 0.134700 0.713800
vt 0.136300 0.716900
vt 0.109100 0.735100
vt 0.118300 0.716900
vt 0.133800 0.743500
vt 0.107600 0.720800
vt 0.129600 0.720800
vt 0.110700 0.741400
vt 0.117500 0.720500
vt 0.137500 0.720500
s 1
usemtl Material.007
f 1/1/1 2/2/1 3/3/1
f 4/4/1 3/3/1 2/2/1
f 3/3/1 5/5/1 6/6/1
f 5/5/1 3/3/1 4/4/1
f 7/7/1 1/1/1 8/8/1
f 3/3/1 8/8/1 1/1/1
f 8/8/1 6/6/1 9/9/1
f 6/6/1 8/8/1 3/3/1
f 10/1/2 11/2/2 12/3/2
f 13/4/2 12/3/2 11/2/2
f 12/3/2 14/5/2 15/6/2
f 14/5/2 12/3/2 13/4/2
f 16/7/2 10/1/2 17/8/2
f 12/3/2 17/8/2 10/1/2
f 17/8/2 15/6/2 18/9/2
f 15/6/2 17/8/2 12/3/2
f 19/1/3 20/2/3 21/3/3
f 22/4/3 21/3/3 20/2/3
f 21/3/3 23/5/3 24/6/3
f 23/5/3 21/3/3 22/4/3
f 25/7/3 19/1/3 26/8/3
f 21/3/3 26/8/3 19/1/3
f 26/8/3 24/6/3 27/9/3
f 24/6/3 26/8/3 21/3/3
f 28/1/4 29/2/4 30/3/4
f 31/4/4 30/3/4 29/2/4
f 30/3/4 32/5/4 33/6/4
f 32/5/4 30/3/4 31/4/4
f 34/7/4 28/1/4 35/8/4
f 30/3/4 35/8/4 28/1/4
f 35/8/4 33/6/4 36/9/4
f 33/6/4 35/8/4 30/3/4
f 37/1/5 38/2/5 39/3/5
f 40/4/5 39/3/5 38/2/5
f 39/3/5 41/5/5 42/6/5
f 41/5/5 39/3/5 40/4/5
f 43/7/5 37/1/5 44/8/5
f 39/3/5 44/8/5 37/1/5
f 44/8/5 42/6/5 45/9/5
f 42/6/5 44/8/5 39/3/5
f 46/1/6 47/2/6 48/3/6
f 49/4/6 48/3/6 47/2/6
f 48/3/6 50/5/6 51/6/6
f 50/5/6 48/3/6 49/4/6
f 52/7/6 46/1/6 53/8/6
f 48/3/6 53/8/6 46/1/6
f 53/8/6 51/6/6 54/9/6
f 51/6/6 53/8/6 48/3/6
f 55/1/7 56/2/7 57/3/7
f 58/4/7 57/3/7 56/2/7
f 57/3/7 59/5/7 60/6/7
f 59/5/7 57/3/7 58/4/7
f 61/7/7 55/1/7 62/8/7
f 57/3/7 62/8/7 55/1/7
f 62/8/7 60/6/7 63/9/7
f 60/6/7 62/8/7 57/3/7
f 64/1/8 65/2/8 66/3/8
f 67/4/8 66/3/8 65/2/8
f 66/3/8 68/5/8 69/6/8
f 68/5/8 66/3/8 67/4/8
f 70/7/8 64/1/8 71/8/8
f 66/3/8 71/8/8 64/1/8
f 71/8/8 69/6/8 72/9/8
f 69/6/8 71/8/8 66/3/8
f 73/1/9 74/2/9 75/3/9
f 76/4/9 75/3/9 74/2/9
f 75/3/9 77/5/9 78/6/9
f 77/5/9 75/3/9 76/4/9
f 79/7/9 73/1/9 80/8/9
f 75/3/9 80/8/9 73/1/9
f 80/8/9 78/6/9 81/9/9
f 78/6/9 80/8/9 75/3/9
f 82/1/10 83/2/10 84/3/10
f 85/4/10 84/3/10 83/2/10
f 84/3/10 86/5/10 87/6/10
f 86/5/10 84/3/10 85/4/10
f 88/7/10 82/1/10 89/8/10
f 84/3/10 89/8/10 82/1/10
f 89/8/10 87/6/10 90/9/10
f 87/6/10 89/8/10 84/3/10
f 91/1/11 92/2/11 93/3/11
f 94/4/11 93/3/11 92/2/11
f 93/3/11 95/5/11 96/6/11
f 95/5/11 93/3/11 94/4/11
f 97/7/11 91/1/11 98/8/11
f 93/3/11 98/8/11 91/1/11
f 98/8/11 96/6/11 99/9/11
f 96/6/11 98/8/11 93/3/11
f 100/1/12 101/2/12 102/3/12
f 103/4/12 102/3/12 101/2/12
f 102/3/12 104/5/12 105/6/12
f 104/5/12 102/3/12 103/4/12
f 106/7/13 100/1/12 107/8/13
f 102/3/12 107/8/13 100/1/12
f 107/8/13 105/6/12 108/9/12
f 105/6/12 107/8/13 102/3/12
f 109/1/14 110/2/14 111/3/14
f 112/4/14 111/3/14 110/2/14
f 111/3/14 113/5/14 114/6/14
f 113/5/14 111/3/14 112/4/14
f 115/7/14 109/1/14 116/8/14
f 111/3/14 116/8/14 109/1/14
f 116/8/14 114/6/14 117/9/14
f 114/6/14 116/8/14 111/3/14
f 118/1/15 119/2/15 120/3/15
f 121/4/15 120/3/15 119/2/15
f 120/3/15 122/5/15 123/6/15
f 122/5/15 120/3/15 121/4/15
f 124/7/15 118/1/15 125/8/15
f 120/3/15 125/8/15 118/1/15
f 125/8/15 123/6/15 126/9/15
f 123/6/15 125/8/15 120/3/15
f 127/1/15 128/2/15 129/3/15
f 130/4/15 129/3/15 128/2/15
f 129/3/15 131/5/15 132/6/15
f 131/5/15 129/3/15 130/4/15
f 133/7/15 127/1/15 134/8/15
f 129/3/15 134/8/15 127/1/15
f 134/8/15 132/6/15 135/9/15
f 132/6/15 134/8/15 129/3/15
f 136/1/15 137/2/15 138/3/15
f 139/4/15 138/3/15 137/2/15
f 138/3/15 140/5/15 141/6/15
f 140/5/15 138/3/15 139/4/15
f 142/7/15 136/1/15 143/8/15
f 138/3/15 143/8/15 136/1/15
f 143/8/15 141/6/15 144/9/15
f 141/6/15 143/8/15 138/3/15
f 145/1/15 146/2/15 147/3/15
f 148/4/15 147/3/15 146/2/15
f 147/3/15 149/5/15 150/6/15
f 149/5/15 147/3/15 148/4/15
f 151/7/15 145/1/15 152/8/15
f 147/3/15 152/8/15 145/1/15
f 152/8/15 150/6/15 153/9/15
f 150/6/15 152/8/15 147/3/15
f 154/1/15 155/2/15 156/3/15
f 157/4/15 156/3/15 155/2/15
f 156/3/15 158/5/15 159/6/15
f 158/5/15 156/3/15 157/4/15
f 160/7/15 154/1/15 161/8/15
f 156/3/15 161/8/15 154/1/15
f 161/8/15 159/6/15 162/9/15
f 159/6/15 161/8/15 156/3/15
f 163/1/15 164/2/15 165/3/15
f 166/4/15 165/3/15 164/2/15
f 165/3/15 167/5/15 168/6/15
f 167/5/15 165/3/15 166/4/15
f 169/7/15 163/1/15 170/8/15
f 165/3/15 170/8/15 163/1/15
f 170/8/15 168/6/15 171/9/15
f 168/6/15 170/8/15 165/3/15
f 172/1/15 173/2/15 174/3/15
f 175/4/15 174/3/15 173/2/15
f 174/3/15 176/5/15 177/6/15
f 176/5/15 174/3/15 175/4/15
f 178/7/15 172/1/15 179/8/15
f 174/3/15 179/8/15 172/1/15
f 179/8/15 177/6/15 180/9/15
f 177/6/15 179/8/15 174/3/15
f 181/1/15 182/2/15 183/3/15
f 184/4/15 183/3/15 182/2/15
f 183/3/15 185/5/15 186/6/15
f 185/5/15 183/3/15 184/4/15
f 187/7/15 181/1/15 188/8/15
f 183/3/15 188/8/15 181/1/15
f 188/8/15 186/6/15 189/9/15
f 186/6/15 188/8/15 183/3/15
f 190/1/15 191/2/15 192/3/15
f 193/4/15 192/3/15 191/2/15
f 192/3/15 194/5/15 195/6/15
f 194/5/15 192/3/15 193/4/15
f 196/7/15 190/1/15 197/8/15
f 192/3/15 197/8/15 190/1/15
f 197/8/15 195/6/15 198/9/15
f 195/6/15 197/8/15 192/3/15
f 199/1/15 200/2/15 201/3/15
f 202/4/15 201/3/15 200/2/15
f 201/3/15 203/5/15 204/6/15
f 203/5/15 201/3/15 202/4/15
f 205/7/15 199/1/15 206/8/15
f 201/3/15 206/8/15 199/1/15
f 206/8/15 204/6/15 207/9/15
f 204/6/15 206/8/15 201/3/15
f 208/1/16 209/2/16 210/3/16
f 211/4/16 210/3/16 209/2/16
f 210/3/16 212/5/16 213/6/16
f 212/5/16 210/3/16 211/4/16
f 214/7/16 208/1/16 215/8/16
f 210/3/16 215/8/16 208/1/16
f 215/8/16 213/6/16 216/9/16
f 213/6/16 215/8/16 210/3/16
f 217/1/17 218/2/17 219/3/17
f 220/4/17 219/3/17 218/2/17
f 219/3/17 221/5/17 222/6/17
f 221/5/17 219/3/17 220/4/17
f 223/7/17 217/1/17 224/8/17
f 219/3/17 224/8/17 217/1/17
f 224/8/17 222/6/17 225/9/17
f 222/6/17 224/8/17 219/3/17
f 226/1/17 227/2/17 228/3/17
f 229/4/17 228/3/17 227/2/17
f 228/3/17 230/5/17 231/6/17
f 230/5/17 228/3/17 229/4/17
f 232/7/17 226/1/17 233/8/17
f 228/3/17 233/8/17 226/1/17
f 233/8/17 231/6/17 234/9/17
f 231/6/17 233/8/17 228/3/17
f 235/1/18 236/2/19 237/3/18
f 238/4/19 237/3/18 236/2/19
f 237/3/18 239/5/19 240/6/18
f 239/5/19 237/3/18 238/4/19
f 241/7/19 235/1/18 242/8/18
f 237/3/18 242/8/18 235/1/18
f 242/8/18 240/6/18 243/9/18
f 240/6/18 242/8/18 237/3/18
f 244/1/15 245/2/15 246/3/15
f 247/4/15 246/3/15 245/2/15
f 246/3/15 248/5/15 249/6/15
f 248/5/15 246/3/15 247/4/15
f 250/7/15 244/1/15 251/8/15
f 246/3/15 251/8/15 244/1/15
f 251/8/15 249/6/15 252/9/15
f 249/6/15 251/8/15 246/3/15
f 253/1/15 254/2/15 255/3/15
f 256/4/15 255/3/15 254/2/15
f 255/3/15 257/5/15 258/6/15
f 257/5/15 255/3/15 256/4/15
f 259/7/15 253/1/15 260/8/15
f 255/3/15 260/8/15 253/1/15
f 260/8/15 258/6/15 261/9/15
f 258/6/15 260/8/15 255/3/15
f 262/1/15 263/2/15 264/3/15
f 265/4/15 264/3/15 263/2/15
f 264/3/15 266/5/15 267/6/15
f 266/5/15 264/3/15 265/4/15
f 268/7/15 262/1/15 269/8/15
f 264/3/15 269/8/15 262/1/15
f 269/8/15 267/6/15 270/9/15
f 267/6/15 269/8/15 264/3/15
f 271/1/15 272/2/15 273/3/15
f 274/4/15 273/3/15 272/2/15
f 273/3/15 275/5/15 276/6/15
f 275/5/15 273/3/15 274/4/15
f 277/7/15 271/1/15 278/8/15
f 273/3/15 278/8/15 271/1/15
f 278/8/15 276/6/15 279/9/15
f 276/6/15 278/8/15 273/3/15
f 280/1/15 281/2/15 282/3/15
f 283/4/15 282/3/15 281/2/15
f 282/3/15 284/5/15 285/6/15
f 284/5/15 282/3/15 283/4/15
f 286/7/15 280/1/15 287/8/15
f 282/3/15 287/8/15 280/1/15
f 287/8/15 285/6/15 288/9/15
f 285/6/15 287/8/15 282/3/15
f 289/1/15 290/2/15 291/3/15
f 292/4/15 291/3/15 290/2/15
f 291/3/15 293/5/15 294/6/15
f 293/5/15 291/3/15 292/4/15
f 295/7/15 289/1/15 296/8/15
f 291/3/15 296/8/15 289/1/15
f 296/8/15 294/6/15 297/9/15
f 294/6/15 296/8/15 291/3/15
f 298/1/15 299/2/15 300/3/15
f 301/4/15 300/3/15 299/2/15
f 300/3/15 302/5/15 303/6/15
f 302/5/15 300/3/15 301/4/15
f 304/7/15 298/1/15 305/8/15
f 300/3/15 305/8/15 298/1/15
f 305/8/15 303/6/15 306/9/15
f 303/6/15 305/8/15 300/3/15
f 307/1/15 308/2/15 309/3/15
f 310/4/15 309/3/15 308/2/15
f 309/3/15 311/5/15 312/6/15
f 311/5/15 309/3/15 310/4/15
f 313/7/15 307/1/15 314/8/15
f 309/3/15 314/8/15 307/1/15
f 314/8/15 312/6/15 315/9/15
f 312/6/15 314/8/15 309/3/15
f 316/1/15 317/2/15 318/3/15
f 319/4/15 318/3/15 317/2/15
f 318/3/15 320/5/15 321/6/15
f 320/5/15 318/3/15 319/4/15
f 322/7/15 316/1/15 323/8/15
f 318/3/15 323/8/15 316/1/15
f 323/8/15 321/6/15 324/9/15
f 321/6/15 323/8/15 318/3/15
f 325/1/15 326/2/15 327/3/15
f 328/4/15 327/3/15 326/2/15
f 327/3/15 329/5/15 330/6/15
f 329/5/15 327/3/15 328/4/15
f 331/7/15 325/1/15 332/8/15
f 327/3/15 332/8/15 325/1/15
f 332/8/15 330/6/15 333/9/15
f 330/6/15 332/8/15 327/3/15
f 334/1/15 335/2/15 336/3/15
f 337/4/15 336/3/15 335/2/15
f 336/3/15 338/5/15 339/6/15
f 338/5/15 336/3/15 337/4/15
f 340/7/15 334/1/15 341/8/15
f 336/3/15 341/8/15 334/1/15
f 341/8/15 339/6/15 342/9/15
f 339/6/15 341/8/15 336/3/15
f 343/1/15 344/2/15 345/3/15
f 346/4/15 345/3/15 344/2/15
f 345/3/15 347/5/15 348/6/15
f 347/5/15 345/3/15 346/4/15
f 349/7/15 343/1/15 350/8/15
f 345/3/15 350/8/15 343/1/15
f 350/8/15 348/6/15 351/9/15
f 348/6/15 350/8/15 345/3/15
f 352/1/15 353/2/15 354/3/15
f 355/4/15 354/3/15 353/2/15
f 354/3/15 356/5/15 357/6/15
f 356/5/15 354/3/15 355/4/15
f 358/7/15 352/1/15 359/8/15
f 354/3/15 359/8/15 352/1/15
f 359/8/15 357/6/15 360/9/15
f 357/6/15 359/8/15 354/3/15
f 361/1/15 362/2/15 363/3/15
f 364/4/15 363/3/15 362/2/15
f 363/3/15 365/5/15 366/6/15
f 365/5/15 363/3/15 364/4/15
f 367/7/15 361/1/15 368/8/15
f 363/3/15 368/8/15 361/1/15
f 368/8/15 366/6/15 369/9/15
f 366/6/15 368/8/15 363/3/15
f 370/1/15 371/2/15 372/3/15
f 373/4/15 372/3/15 371/2/15
f 372/3/15 374/5/15 375/6/15
f 374/5/15 372/3/15 373/4/15
f 376/7/15 370/1/15 377/8/15
f 372/3/15 377/8/15 370/1/15
f 377/8/15 375/6/15 378/9/15
f 375/6/15 377/8/15 372/3/15
usemtl Material.001
f 379/10/20 380/11/20 381/12/20
f 382/13/20 381/12/20 380/11/20
f 383/14/21 384/15/21 385/16/21
f 386/17/21 385/16/21 384/15/21
f 387/18/22 388/19/22 389/20/22
f 390/21/22 389/20/22 388/19/22
f 391/22/23 392/23/23 393/24/23
f 394/25/23 393/24/23 392/23/23
f 395/26/24 396/27/24 397/28/24
f 398/29/24 396/27/24 395/26/24
f 399/30/15 400/31/15 401/32/15
f 400/31/15 399/30/15 402/33/15
f 403/10/20 404/11/20 405/12/20
f 406/13/20 405/12/20 404/11/20
f 407/14/21 408/15/21 409/16/21
f 410/17/21 409/16/21 408/15/21
f 411/18/22 412/19/22 413/20/22
f 414/21/22 413/20/22 412/19/22
f 415/22/23 416/23/23 417/24/23
f 418/25/23 417/24/23 416/23/23
f 419/26/24 420/27/24 421/28/24
f 422/29/24 420/27/24 419/26/24
f 423/30/15 424/31/15 425/32/15
f 424/31/15 423/30/15 426/33/15
f 1099/60/414 1100/61/414 1101/62/414
f 1102/63/415 1103/64/415 1104/65/415
f 1105/66/416 1106/67/416 1107/68/416
f 1108/69/417 1109/70/417 1110/71/417
f 1111/72/418 1112/73/418 1113/74/418
f 1114/75/419 1115/76/419 1116/77/419
f 1117/78/420 1118/79/420 1119/80/420
f 1120/81/421 1121/82/421 1122/83/421
f 1123/84/422 1124/74/422 1125/85/422
f 1126/86/423 1127/87/423 1128/88/423
f 1129/89/424 1130/90/424 1131/91/424
f 1132/92/425 1133/93/425 1134/94/425
f 1135/95/426 1136/96/426 1137/97/426
f 1138/98/427 1139/99/427 1140/100/427
f 1141/101/428 1142/102/428 1143/103/428
f 1144/104/429 1145/105/429 1146/106/429
f 1147/107/430 1148/108/430 1149/109/430
f 1150/110/431 1151/111/431 1152/112/431
f 1153/113/432 1154/114/432 1155/115/432
f 1156/116/433 1157/117/433 1158/118/433
f 1159/60/434 1160/61/434 1161/62/434
f 1162/63/435 1163/64/435 1164/65/435
f 1165/66/436 1166/67/436 1167/68/436
f 1168/69/437 1169/70/437 1170/71/437
f 1171/72/438 1172/73/438 1173/74/438
f 1174/75/439 1175/76/439 1176/77/439
f 1177/78/440 1178/79/440 1179/80/440
f 1180/81/441 1181/82/441 1182/83/441
f 1183/84/442 1184/74/442 1185/85/442
f 1186/86/443 1187/87/443 1188/88/443
f 1189/89/444 1190/90/444 1191/91/444
f 1192/92/445 1193/93/445 1194/94/445
f 1195/95/446 1196/96/446 1197/97/446
f 1198/98/447 1199/99/447 1200/100/447
f 1201/101/448 1202/102/448 1203/103/448
f 1204/104/449 1205/105/449 1206/106/449
f 1207/107/450 1208/108/450 1209/109/450
f 1210/110/451 1211/111/451 1212/112/451
f 1213/113/452 1214/114/452 1215/115/452
f 1216/116/453 1217/117/453 1218/118/453
f 1219/60/414 1220/61/414 1221/62/414
f 1222/63/415 1223/64/415 1224/65/415
f 1225/66/416 1226/67/416 1227/68/416
f 1228/69/417 1229/70/417 1230/71/417
f 1231/72/418 1232/73/418 1233/74/418
f 1234/75/454 1235/76/454 1236/77/454
f 1237/78/455 1238/79/455 1239/80/455
f 1240/81/421 1241/82/421 1242/83/421
f 1243/84/422 1244/74/422 1245/85/422
f 1246/86/423 1247/87/423 1248/88/423
f 1249/89/456 1250/90/456 1251/91/456
f 1252/92/425 1253/93/425 1254/94/425
f 1255/95/426 1256/96/426 1257/97/426
f 1258/98/427 1259/99/427 1260/100/427
f 1261/101/457 1262/102/457 1263/103/457
f 1264/104/429 1265/105/429 1266/106/429
f 1267/107/430 1268/108/430 1269/109/430
f 1270/110/431 1271/111/431 1272/112/431
f 1273/113/458 1274/114/458 1275/115/458
f 1276/116/459 1277/117/459 1278/118/459
f 1279/60/434 1280/61/434 1281/62/434
f 1282/63/435 1283/64/435 1284/65/435
f 1285/66/436 1286/67/436 1287/68/436
f 1288/69/437 1289/70/437 1290/71/437
f 1291/72/438 1292/73/438 1293/74/438
f 1294/75/439 1295/76/439 1296/77/439
f 1297/78/440 1298/79/440 1299/80/440
f 1300/81/441 1301/82/441 1302/83/441
f 1303/84/442 1304/74/442 1305/85/442
f 1306/86/443 1307/87/443 1308/88/443
f 1309/89/460 1310/90/460 1311/91/460
f 1312/92/461 1313/93/461 1314/94/461
f 1315/95/446 1316/96/446 1317/97/446
f 1318/98/447 1319/99/447 1320/100/447
f 1321/101/448 1322/102/448 1323/103/448
f 1324/104/449 1325/105/449 1326/106/449
f 1327/107/450 1328/108/450 1329/109/450
f 1330/110/451 1331/111/451 1332/112/451
f 1333/113/452 1334/114/452 1335/115/452
f 1336/116/453 1337/117/453 1338/118/453
f 1339/60/414 1340/61/414 1341/62/414
f 1342/63/415 1343/64/415 1344/65/415
f 1345/66/462 1346/67/462 1347/68/462
f 1348/69/417 1349/70/417 1350/71/417
f 1351/72/418 1352/73/418 1353/74/418
f 1354/75/419 1355/76/419 1356/77/419
f 1357/78/420 1358/79/420 1359/80/420
f 1360/81/463 1361/82/463 1362/83/463
f 1363/84/422 1364/74/422 1365/85/422
f 1366/86/423 1367/87/423 1368/88/423
f 1369/89/424 1370/90/424 1371/91/424
f 1372/92/425 1373/93/425 1374/94/425
f 1375/95/426 1376/96/426 1377/97/426
f 1378/98/427 1379/99/427 1380/100/427
f 1381/101/457 1382/102/457 1383/103/457
f 1384/104/429 1385/105/429 1386/106/429
f 1387/107/430 1388/108/430 1389/109/430
f 1390/110/431 1391/111/431 1392/112/431
f 1393/113/432 1394/114/432 1395/115/432
f 1396/116/433 1397/117/433 1398/118/433
f 1399/60/434 1400/61/434 1401/62/434
f 1402/63/435 1403/64/435 1404/65/435
f 1405/66/436 1406/67/436 1407/68/436
f 1408/69/437 1409/70/437 1410/71/437
f 1411/72/438 1412/73/438 1413/74/438
f 1414/75/439 1415/76/439 1416/77/439
f 1417/78/440 1418/79/440 1419/80/440
f 1420/81/464 1421/82/464 1422/83/464
f 1423/84/442 1424/74/442 1425/85/442
f 1426/86/443 1427/87/443 1428/88/443
f 1429/89/460 1430/90/460 1431/91/460
f 1432/92/445 1433/93/445 1434/94/445
f 1435/95/446 1436/96/446 1437/97/446
f 1438/98/465 1439/99/465 1440/100/465
f 1441/101/448 1442/102/448 1443/103/448
f 1444/104/449 1445/105/449 1446/106/449
f 1447/107/466 1448/108/466 1449/109/466
f 1450/110/451 1451/111/451 1452/112/451
f 1453/113/467 1454/114/467 1455/115/467
f 1456/116/453 1457/117/453 1458/118/453
usemtl Material.002
f 427/34/25 428/35/26 429/36/26
f 430/37/27 431/38/27 432/39/28
f 433/40/29 427/34/30 434/41/31
f 435/42/32 432/39/33 436/43/34
f 437/44/35 433/40/36 438/45/37
f 439/46/38 436/43/34 433/40/36
f 439/46/38 433/40/36 437/44/35
f 440/47/39 436/43/34 439/46/38
f 441/48/40 437/44/35 442/49/41
f 443/50/42 439/46/38 437/44/35
f 443/50/42 437/44/35 441/48/40
f 444/51/43 439/46/38 443/50/42
f 445/52/44 441/48/40 446/53/45
f 447/54/46 443/50/42 441/48/40
f 447/54/46 441/48/40 445/52/44
f 448/55/47 443/50/42 447/54/46
f 449/56/48 445/52/44 450/57/49
f 451/58/50 447/54/46 445/52/44
f 451/58/50 445/52/44 449/56/48
f 452/59/51 447/54/46 451/58/50
f 453/34/52 454/35/26 455/36/26
f 456/37/27 457/38/27 458/39/53
f 459/40/54 453/34/55 460/41/31
f 461/43/56 458/39/57 453/34/55
f 461/43/56 453/34/55 459/40/54
f 462/42/58 458/39/57 461/43/56
f 463/44/35 459/40/54 464/45/37
f 465/46/38 461/43/56 459/40/54
f 465/46/38 459/40/54 463/44/35
f 466/47/39 461/43/56 465/46/38
f 467/48/59 463/44/35 468/49/41
f 469/50/60 465/46/38 463/44/35
f 469/50/60 463/44/35 467/48/59
f 470/51/43 465/46/38 469/50/60
f 471/52/61 467/48/59 472/53/45
f 473/55/47 469/50/62 474/54/63
f 475/56/64 471/52/65 476/57/64
f 477/59/51 474/54/66 478/58/51
f 479/34/67 480/35/68 481/36/26
f 482/39/69 483/38/70 480/35/68
f 482/39/69 480/35/68 479/34/67
f 484/37/27 483/38/70 482/39/69
f 485/40/54 479/34/67 486/41/31
f 487/43/56 482/39/69 479/34/67
f 487/43/56 479/34/67 485/40/54
f 488/42/32 482/39/69 487/43/56
f 489/44/71 485/40/54 490/45/72
f 491/46/73 487/43/56 485/40/54
f 491/46/73 485/40/54 489/44/71
f 492/47/74 487/43/56 491/46/73
f 493/48/75 489/44/71 494/49/41
f 495/51/43 491/46/76 496/50/77
f 497/52/78 493/48/79 498/53/45
f 499/55/47 496/50/80 500/54/81
f 501/56/48 497/52/82 502/57/49
f 503/58/50 500/54/81 497/52/82
f 503/58/50 497/52/82 501/56/48
f 504/59/83 500/54/81 503/58/50
f 505/34/84 506/35/68 507/36/26
f 508/39/85 509/38/70 506/35/68
f 508/39/85 506/35/68 505/34/84
f 510/37/27 509/38/70 508/39/85
f 511/40/86 505/34/84 512/41/31
f 513/42/87 508/39/88 514/43/89
f 515/44/90 511/40/91 516/45/37
f 517/47/39 514/43/92 518/46/93
f 519/48/94 515/44/90 520/49/41
f 521/51/43 518/46/95 522/50/96
f 523/52/44 519/48/94 524/53/45
f 525/54/46 522/50/97 519/48/94
f 525/54/46 519/48/94 523/52/44
f 526/55/47 522/50/97 525/54/46
f 527/56/48 523/52/44 528/57/64
f 529/58/50 525/54/46 523/52/44
f 529/58/50 523/52/44 527/56/48
f 530/59/51 525/54/46 529/58/50
f 531/34/98 532/35/99 533/36/99
f 534/37/100 535/38/100 536/39/101
f 537/40/102 531/34/103 538/41/104
f 539/42/105 536/39/106 540/43/107
f 541/44/108 537/40/109 542/45/110
f 543/46/111 540/43/107 537/40/109
f 543/46/111 537/40/109 541/44/108
f 544/47/112 540/43/107 543/46/111
f 545/48/113 541/44/108 546/49/114
f 547/50/115 543/46/111 541/44/108
f 547/50/115 541/44/108 545/48/113
f 548/51/116 543/46/111 547/50/115
f 549/52/117 545/48/113 550/53/118
f 551/54/119 547/50/115 545/48/113
f 551/54/119 545/48/113 549/52/117
f 552/55/120 547/50/115 551/54/119
f 553/56/121 549/52/117 554/57/122
f 555/58/123 551/54/119 549/52/117
f 555/58/123 549/52/117 553/56/121
f 556/59/124 551/54/119 555/58/123
f 557/34/125 558/35/99 559/36/99
f 560/37/100 561/38/100 562/39/126
f 563/40/127 557/34/125 564/41/104
f 565/43/128 562/39/129 557/34/125
f 565/43/128 557/34/125 563/40/127
f 566/42/130 562/39/129 565/43/128
f 567/44/131 563/40/127 568/45/110
f 569/46/111 565/43/128 563/40/127
f 569/46/111 563/40/127 567/44/131
f 570/47/112 565/43/128 569/46/111
f 571/48/132 567/44/131 572/49/114
f 573/50/133 569/46/111 567/44/131
f 573/50/133 567/44/131 571/48/132
f 574/51/134 569/46/111 573/50/133
f 575/52/135 571/48/132 576/53/118
f 577/55/136 573/50/137 578/54/138
f 579/56/122 575/52/139 580/57/122
f 581/59/140 578/54/141 582/58/140
f 583/34/142 584/35/143 585/36/99
f 586/39/144 587/38/145 584/35/143
f 586/39/144 584/35/143 583/34/142
f 588/37/146 587/38/145 586/39/144
f 589/40/127 583/34/142 590/41/104
f 591/43/147 586/39/144 583/34/142
f 591/43/147 583/34/142 589/40/127
f 592/42/105 586/39/144 591/43/147
f 593/44/148 589/40/127 594/45/110
f 595/46/149 591/43/147 589/40/127
f 595/46/149 589/40/127 593/44/148
f 596/47/112 591/43/147 595/46/149
f 597/48/150 593/44/151 598/49/114
f 599/51/134 595/46/149 600/50/152
f 601/52/153 597/48/154 602/53/118
f 603/55/120 600/50/155 604/54/156
f 605/56/157 601/52/158 606/57/122
f 607/58/123 604/54/156 601/52/158
f 607/58/123 601/52/158 605/56/157
f 608/59/124 604/54/156 607/58/123
f 609/34/159 610/35/143 611/36/99
f 612/39/160 613/38/161 610/35/143
f 612/39/160 610/35/143 609/34/159
f 614/37/146 613/38/161 612/39/160
f 615/40/162 609/34/159 616/41/104
f 617/42/130 612/39/163 618/43/164
f 619/44/165 615/40/166 620/45/110
f 621/47/112 618/43/167 622/46/168
f 623/48/169 619/44/170 624/49/114
f 625/51/116 622/46/171 626/50/172
f 627/52/117 623/48/173 628/53/118
f 629/54/119 626/50/172 623/48/173
f 629/54/119 623/48/173 627/52/117
f 630/55/120 626/50/172 629/54/119
f 631/56/157 627/52/117 632/57/122
f 633/58/123 629/54/119 627/52/117
f 633/58/123 627/52/117 631/56/157
f 634/59/140 629/54/119 633/58/123
f 635/34/25 636/35/26 637/36/26
f 638/37/27 639/38/27 640/39/28
f 641/40/174 635/34/30 642/41/31
f 643/42/87 640/39/33 644/43/34
f 645/44/35 641/40/36 646/45/72
f 647/46/38 644/43/175 641/40/36
f 647/46/38 641/40/36 645/44/35
f 648/47/176 644/43/175 647/46/38
f 649/48/177 645/44/35 650/49/41
f 651/50/42 647/46/38 645/44/35
f 651/50/42 645/44/35 649/48/177
f 652/51/43 647/46/38 651/50/42
f 653/52/44 649/48/177 654/53/45
f 655/54/46 651/50/42 649/48/177
f 655/54/46 649/48/177 653/52/44
f 656/55/178 651/50/42 655/54/46
f 657/56/48 653/52/44 658/57/49
f 659/58/50 655/54/46 653/52/44
f 659/58/50 653/52/44 657/56/48
f 660/59/51 655/54/46 659/58/50
f 661/34/55 662/35/26 663/36/26
f 664/37/27 665/38/27 666/39/53
f 667/40/54 661/34/55 668/41/31
f 669/43/56 666/39/53 661/34/55
f 669/43/56 661/34/55 667/40/54
f 670/42/32 666/39/53 669/43/56
f 671/44/35 667/40/54 672/45/72
f 673/46/38 669/43/56 667/40/54
f 673/46/38 667/40/54 671/44/35
f 674/47/39 669/43/56 673/46/38
f 675/48/179 671/44/35 676/49/41
f 677/50/60 673/46/38 671/44/35
f 677/50/60 671/44/35 675/48/179
f 678/51/43 673/46/38 677/50/60
f 679/52/61 675/48/59 680/53/45
f 681/55/178 677/50/60 682/54/66
f 683/56/49 679/52/180 684/57/49
f 685/59/51 682/54/66 686/58/51
f 687/34/67 688/35/68 689/36/26
f 690/39/181 691/38/70 688/35/68
f 690/39/181 688/35/68 687/34/67
f 692/37/27 691/38/70 690/39/181
f 693/40/54 687/34/67 694/41/31
f 695/43/56 690/39/181 687/34/67
f 695/43/56 687/34/67 693/40/54
f 696/42/182 690/39/181 695/43/56
f 697/44/71 693/40/54 698/45/72
f 699/46/73 695/43/56 693/40/54
f 699/46/73 693/40/54 697/44/71
f 700/47/176 695/43/56 699/46/73
f 701/48/75 697/44/71 702/49/41
f 703/51/43 699/46/73 704/50/183
f 705/52/78 701/48/184 706/53/45
f 707/55/47 704/50/80 708/54/81
f 709/56/48 705/52/82 710/57/49
f 711/58/50 708/54/81 705/52/82
f 711/58/50 705/52/82 709/56/48
f 712/59/83 708/54/81 711/58/50
f 713/34/84 714/35/68 715/36/185
f 716/39/85 717/38/70 714/35/68
f 716/39/85 714/35/68 713/34/84
f 718/37/27 717/38/70 716/39/85
f 719/40/86 713/34/84 720/41/31
f 721/42/87 716/39/88 722/43/89
f 723/44/186 719/40/91 724/45/72
f 725/47/39 722/43/92 726/46/93
f 727/48/94 723/44/90 728/49/41
f 729/51/43 726/46/95 730/50/187
f 731/52/44 727/48/94 732/53/45
f 733/54/46 730/50/96 727/48/94
f 733/54/46 727/48/94 731/52/44
f 734/55/188 730/50/96 733/54/46
f 735/56/48 731/52/44 736/57/49
f 737/58/50 733/54/46 731/52/44
f 737/58/50 731/52/44 735/56/48
f 738/59/51 733/54/46 737/58/50
f 739/34/189 740/35/190 741/36/190
f 742/37/191 743/38/191 744/39/192
f 745/40/193 739/34/194 746/41/195
f 747/42/196 744/39/197 748/43/198
f 749/44/199 745/40/200 750/45/201
f 751/46/202 748/43/198 745/40/200
f 751/46/202 745/40/200 749/44/199
f 752/47/203 748/43/198 751/46/202
f 753/48/204 749/44/199 754/49/205
f 755/50/206 751/46/202 749/44/199
f 755/50/206 749/44/199 753/48/204
f 756/51/207 751/46/202 755/50/206
f 757/52/208 753/48/204 758/53/209
f 759/54/210 755/50/206 753/48/204
f 759/54/210 753/48/204 757/52/208
f 760/55/211 755/50/206 759/54/210
f 761/56/212 757/52/208 762/57/213
f 763/58/214 759/54/210 757/52/208
f 763/58/214 757/52/208 761/56/212
f 764/59/215 759/54/210 763/58/214
f 765/34/216 766/35/190 767/36/190
f 768/37/191 769/38/191 770/39/217
f 771/40/218 765/34/219 772/41/220
f 773/43/221 770/39/217 765/34/219
f 773/43/221 765/34/219 771/40/218
f 774/42/222 770/39/217 773/43/221
f 775/44/199 771/40/218 776/45/201
f 777/46/202 773/43/221 771/40/218
f 777/46/202 771/40/218 775/44/199
f 778/47/203 773/43/221 777/46/202
f 779/48/223 775/44/199 780/49/205
f 781/50/224 777/46/202 775/44/199
f 781/50/224 775/44/199 779/48/223
f 782/51/207 777/46/202 781/50/224
f 783/52/225 779/48/226 784/53/209
f 785/55/211 781/50/224 786/54/227
f 787/56/228 783/52/229 788/57/228
f 789/59/215 786/54/230 790/58/215
f 791/34/231 792/35/232 793/36/233
f 794/39/234 795/38/235 792/35/232
f 794/39/234 792/35/232 791/34/231
f 796/37/191 795/38/235 794/39/234
f 797/40/236 791/34/231 798/41/195
f 799/43/221 794/39/234 791/34/231
f 799/43/221 791/34/231 797/40/236
f 800/42/222 794/39/234 799/43/221
f 801/44/237 797/40/236 802/45/238
f 803/46/239 799/43/221 797/40/236
f 803/46/239 797/40/236 801/44/237
f 804/47/240 799/43/221 803/46/239
f 805/48/241 801/44/237 806/49/242
f 807/51/243 803/46/239 808/50/244
f 809/52/245 805/48/246 810/53/247
f 811/55/248 808/50/249 812/54/250
f 813/56/212 809/52/245 814/57/251
f 815/58/214 812/54/252 809/52/245
f 815/58/214 809/52/245 813/56/212
f 816/59/215 812/54/252 815/58/214
f 817/34/253 818/35/232 819/36/233
f 820/39/254 821/38/255 818/35/232
f 820/39/254 818/35/232 817/34/253
f 822/37/256 821/38/255 820/39/254
f 823/40/257 817/34/258 824/41/195
f 825/42/259 820/39/254 826/43/260
f 827/44/261 823/40/262 828/45/238
f 829/47/203 826/43/263 830/46/264
f 831/48/265 827/44/261 832/49/242
f 833/51/243 830/46/266 834/50/267
f 835/52/208 831/48/265 836/53/247
f 837/54/210 834/50/267 831/48/265
f 837/54/210 831/48/265 835/52/208
f 838/55/211 834/50/267 837/54/210
f 839/56/212 835/52/208 840/57/251
f 841/58/214 837/54/210 835/52/208
f 841/58/214 835/52/208 839/56/212
f 842/59/268 837/54/210 841/58/214
f 843/34/269 844/35/270 845/36/270
f 846/37/271 847/38/271 848/39/272
f 849/40/273 843/34/274 850/41/275
f 851/42/276 848/39/277 852/43/278
f 853/44/279 849/40/280 854/45/281
f 855/46/282 852/43/278 849/40/280
f 855/46/282 849/40/280 853/44/279
f 856/47/283 852/43/278 855/46/282
f 857/48/284 853/44/279 858/49/285
f 859/50/286 855/46/282 853/44/279
f 859/50/286 853/44/279 857/48/284
f 860/51/287 855/46/282 859/50/286
f 861/52/288 857/48/284 862/53/289
f 863/54/290 859/50/286 857/48/284
f 863/54/290 857/48/284 861/52/288
f 864/55/291 859/50/286 863/54/290
f 865/56/292 861/52/288 866/57/293
f 867/58/294 863/54/290 861/52/288
f 867/58/294 861/52/288 865/56/292
f 868/59/295 863/54/290 867/58/294
f 869/34/296 870/35/270 871/36/270
f 872/37/271 873/38/271 874/39/297
f 875/40/298 869/34/296 876/41/275
f 877/43/299 874/39/297 869/34/296
f 877/43/299 869/34/296 875/40/298
f 878/42/300 874/39/297 877/43/299
f 879/44/279 875/40/298 880/45/281
f 881/46/301 877/43/299 875/40/298
f 881/46/301 875/40/298 879/44/279
f 882/47/302 877/43/299 881/46/301
f 883/48/303 879/44/279 884/49/285
f 885/50/304 881/46/301 879/44/279
f 885/50/304 879/44/279 883/48/303
f 886/51/287 881/46/301 885/50/304
f 887/52/305 883/48/303 888/53/289
f 889/55/291 885/50/306 890/54/307
f 891/56/293 887/52/308 892/57/293
f 893/59/309 890/54/307 894/58/309
f 895/34/310 896/35/311 897/36/270
f 898/39/312 899/38/313 896/35/311
f 898/39/312 896/35/311 895/34/310
f 900/37/271 899/38/313 898/39/312
f 901/40/298 895/34/310 902/41/275
f 903/43/299 898/39/312 895/34/310
f 903/43/299 895/34/310 901/40/298
f 904/42/300 898/39/312 903/43/299
f 905/44/314 901/40/298 906/45/281
f 907/46/315 903/43/299 901/40/298
f 907/46/315 901/40/298 905/44/314
f 908/47/302 903/43/299 907/46/315
f 909/48/316 905/44/317 910/49/285
f 911/51/287 907/46/318 912/50/319
f 913/52/320 909/48/321 914/53/289
f 915/55/291 912/50/322 916/54/323
f 917/56/292 913/52/324 918/57/293
f 919/58/294 916/54/323 913/52/324
f 919/58/294 913/52/324 917/56/292
f 920/59/295 916/54/323 919/58/294
f 921/34/325 922/35/311 923/36/270
f 924/39/326 925/38/313 922/35/311
f 924/39/326 922/35/311 921/34/325
f 926/37/271 925/38/313 924/39/326
f 927/40/327 921/34/325 928/41/275
f 929/42/300 924/39/328 930/43/329
f 931/44/330 927/40/331 932/45/281
f 933/47/332 930/43/333 934/46/334
f 935/48/335 931/44/336 936/49/285
f 937/51/287 934/46/337 938/50/338
f 939/52/339 935/48/340 940/53/289
f 941/54/290 938/50/338 935/48/340
f 941/54/290 935/48/340 939/52/339
f 942/55/341 938/50/338 941/54/290
f 943/56/292 939/52/339 944/57/293
f 945/58/294 941/54/290 939/52/339
f 945/58/294 939/52/339 943/56/292
f 946/59/295 941/54/290 945/58/294
f 947/34/342 948/35/343 949/36/343
f 950/37/344 951/38/344 952/39/345
f 953/40/346 947/34/347 954/41/348
f 955/42/349 952/39/350 956/43/351
f 957/44/352 953/40/346 958/45/353
f 959/46/354 956/43/355 953/40/346
f 959/46/354 953/40/346 957/44/352
f 960/47/356 956/43/355 959/46/354
f 961/48/357 957/44/352 962/49/358
f 963/50/359 959/46/354 957/44/352
f 963/50/359 957/44/352 961/48/357
f 964/51/360 959/46/354 963/50/359
f 965/52/361 961/48/357 966/53/362
f 967/54/363 963/50/359 961/48/357
f 967/54/363 961/48/357 965/52/361
f 968/55/364 963/50/359 967/54/363
f 969/56/365 965/52/361 970/57/366
f 971/58/367 967/54/363 965/52/361
f 971/58/367 965/52/361 969/56/365
f 972/59/368 967/54/363 971/58/367
f 973/34/369 974/35/343 975/36/343
f 976/37/344 977/38/344 978/39/370
f 979/40/371 973/34/369 980/41/348
f 981/43/372 978/39/370 973/34/369
f 981/43/372 973/34/369 979/40/371
f 982/42/349 978/39/370 981/43/372
f 983/44/352 979/40/371 984/45/373
f 985/46/354 981/43/372 979/40/371
f 985/46/354 979/40/371 983/44/352
f 986/47/356 981/43/372 985/46/354
f 987/48/374 983/44/352 988/49/358
f 989/50/375 985/46/354 983/44/352
f 989/50/375 983/44/352 987/48/374
f 990/51/360 985/46/354 989/50/375
f 991/52/376 987/48/374 992/53/362
f 993/55/377 989/50/378 994/54/379
f 995/56/380 991/52/381 996/57/380
f 997/59/368 994/54/382 998/58/368
f 999/34/383 1000/35/384 1001/36/385
f 1002/39/386 1003/38/387 1000/35/384
f 1002/39/386 1000/35/384 999/34/383
f 1004/37/344 1003/38/387 1002/39/386
f 1005/40/371 999/34/383 1006/41/348
f 1007/43/372 1002/39/386 999/34/383
f 1007/43/372 999/34/383 1005/40/371
f 1008/42/388 1002/39/386 1007/43/372
f 1009/44/389 1005/40/371 1010/45/373
f 1011/46/390 1007/43/372 1005/40/371
f 1011/46/390 1005/40/371 1009/44/389
f 1012/47/356 1007/43/372 1011/46/390
f 1013/48/391 1009/44/392 1014/49/358
f 1015/51/360 1011/46/393 1016/50/394
f 1017/52/395 1013/48/396 1018/53/362
f 1019/55/364 1016/50/397 1020/54/398
f 1021/56/365 1017/52/399 1022/57/366
f 1023/58/367 1020/54/398 1017/52/399
f 1023/58/367 1017/52/399 1021/56/365
f 1024/59/368 1020/54/398 1023/58/367
f 1025/34/400 1026/35/384 1027/36/385
f 1028/39/401 1029/38/387 1026/35/384
f 1028/39/401 1026/35/384 1025/34/400
f 1030/37/344 1029/38/387 1028/39/401
f 1031/40/402 1025/34/400 1032/41/348
f 1033/42/388 1028/39/403 1034/43/404
f 1035/44/405 1031/40/406 1036/45/353
f 1037/47/356 1034/43/407 1038/46/408
f 1039/48/409 1035/44/410 1040/49/358
f 1041/51/360 1038/46/411 1042/50/412
f 1043/52/361 1039/48/413 1044/53/362
f 1045/54/363 1042/50/412 1039/48/413
f 1045/54/363 1039/48/413 1043/52/361
f 1046/55/377 1042/50/412 1045/54/363
f 1047/56/365 1043/52/361 1048/57/366
f 1049/58/367 1045/54/363 1043/52/361
f 1049/58/367 1043/52/361 1047/56/365
f 1050/59/368 1045/54/363 1049/58/367
usemtl Material.013
f 1051/10/20 1052/11/20 1053/12/20
f 1054/13/20 1053/12/20 1052/11/20
f 1055/14/21 1056/15/21 1057/16/21
f 1058/17/21 1057/16/21 1056/15/21
f 1059/18/22 1060/19/22 1061/20/22
f 1062/21/22 1061/20/22 1060/19/22
f 1063/22/23 1064/23/23 1065/24/23
f 1066/25/23 1065/24/23 1064/23/23
f 1067/26/24 1068/27/24 1069/28/24
f 1070/29/24 1068/27/24 1067/26/24
f 1071/30/15 1072/31/15 1073/32/15
f 1072/31/15 1071/30/15 1074/33/15
f 1075/10/20 1076/11/20 1077/12/20
f 1078/13/20 1077/12/20 1076/11/20
f 1079/14/21 1080/15/21 1081/16/21
f 1082/17/21 1081/16/21 1080/15/21
f 1083/18/22 1084/19/22 1085/20/22
f 1086/21/22 1085/20/22 1084/19/22
f 1087/22/23 1088/23/23 1089/24/23
f 1090/25/23 1089/24/23 1088/23/23
f 1091/26/24 1092/27/24 1093/28/24
f 1094/29/24 1092/27/24 1091/26/24
f 1095/30/15 1096/31/15 1097/32/15
f 1096/31/15 1095/30/15 1098/33/15
