# Blender 4.2.2 LTS
# www.blender.org
mtllib pista3.mtl
o Mesh_Raceway_Collision_Rework_Wall
v -0.083881 -0.025320 -0.130393
v -0.083881 0.105923 -0.130393
v -0.097380 0.105732 -0.106105
v -0.097380 -0.025511 -0.106105
v -0.055949 -0.050226 -0.245292
v -0.037191 0.021494 -0.245292
v -0.177467 0.014298 -0.245292
v -0.303767 -0.026951 -0.245292
v -0.202437 0.105086 -0.245036
v -0.311777 -0.026157 -0.245036
v -0.319261 0.105569 -0.244278
v -0.319261 -0.025674 -0.244278
v -0.011907 -0.052126 -0.245292
v -0.030029 0.079117 -0.245292
v 0.032520 -0.052416 -0.245292
v 0.032520 0.078827 -0.245292
v 0.071515 -0.050933 -0.245291
v 0.071515 0.080311 -0.245291
v 0.108785 -0.047903 -0.245292
v 0.098350 0.049896 -0.245292
v 0.145258 -0.044269 -0.245292
v 0.145258 0.049896 -0.245292
v 0.192706 -0.038198 -0.245183
v 0.192706 0.049896 -0.245183
v 0.216430 -0.034967 -0.245128
v 0.220690 0.049896 -0.245128
v 0.228292 -0.033371 -0.245101
v 0.228292 0.097872 -0.245101
v 0.235991 -0.032391 -0.245074
v 0.235991 0.098852 -0.245074
v -0.313197 -0.026157 -0.345693
v -0.156604 0.105086 -0.345693
v -0.145204 0.042714 -0.345850
v -0.303767 -0.026951 -0.345850
v -0.322554 -0.025674 -0.345229
v -0.322554 0.105569 -0.345229
v -0.011229 0.042714 -0.345849
v -0.055949 -0.050291 -0.345849
v -0.005139 0.043477 -0.345849
v -0.011907 -0.052187 -0.345849
v 0.012167 0.055817 -0.345850
v 0.032520 -0.052446 -0.345850
v 0.080365 0.057361 -0.345850
v 0.071515 -0.050903 -0.345850
v 0.108785 0.050560 -0.345850
v 0.108785 -0.047842 -0.345850
v 0.145258 0.050560 -0.345850
v 0.145258 -0.044208 -0.345850
v 0.192706 0.050560 -0.345809
v 0.192706 -0.038167 -0.345809
v 0.220372 0.050560 -0.345788
v 0.216430 -0.034951 -0.345788
v 0.228292 0.084052 -0.345777
v 0.228292 -0.033363 -0.345777
v 0.235991 0.087928 -0.345767
v 0.235991 -0.032391 -0.345767
v 0.246755 0.088061 -0.345557
v 0.246755 -0.032259 -0.345557
v 0.257519 0.088193 -0.345347
v 0.257519 -0.032127 -0.345347
v -0.331815 -0.025516 -0.344466
v -0.331815 0.105727 -0.344466
v -0.322554 0.105569 -0.345229
v -0.322554 -0.025674 -0.345229
v -0.349948 -0.025516 -0.342084
v -0.349948 0.105727 -0.342084
v -0.331815 0.105727 -0.344466
v -0.331815 -0.025516 -0.344466
v -0.319261 -0.025674 -0.244278
v -0.319261 0.105569 -0.244278
v -0.326229 0.105727 -0.243038
v -0.326229 -0.025516 -0.243038
v 0.239067 -0.032259 -0.244843
v 0.239067 0.098984 -0.244843
v 0.235991 0.098852 -0.245074
v 0.235991 -0.032391 -0.245074
v 0.242143 -0.032127 -0.244613
v 0.242143 0.099116 -0.244613
v -0.326229 -0.025516 -0.243038
v -0.326229 0.105727 -0.243038
v -0.332691 0.105727 -0.241336
v -0.332691 -0.025516 -0.241336
v -0.367401 -0.025516 -0.338618
v -0.367401 0.105727 -0.338618
v -0.349948 0.105727 -0.342084
v -0.349948 -0.025516 -0.342084
v 0.252090 -0.032127 -0.243191
v 0.252090 0.099116 -0.243191
v 0.242143 0.099116 -0.244613
v 0.242143 -0.032127 -0.244613
v 0.257519 -0.032127 -0.345347
v 0.257519 0.088193 -0.345347
v 0.270742 0.088193 -0.344313
v 0.270742 -0.032127 -0.344313
v 0.259077 -0.032127 -0.241541
v 0.259077 0.099116 -0.241541
v 0.252090 0.099116 -0.243191
v 0.252090 -0.032127 -0.243191
v 0.270742 -0.032127 -0.344313
v 0.270742 0.088193 -0.344313
v 0.284318 0.088193 -0.342419
v 0.284318 -0.032127 -0.342419
v -0.332691 -0.025516 -0.241336
v -0.332691 0.105727 -0.241336
v -0.338657 0.105727 -0.239192
v -0.338657 -0.025516 -0.239192
v -0.383980 -0.025516 -0.334145
v -0.383980 0.105727 -0.334145
v -0.367401 0.105727 -0.338618
v -0.367401 -0.025516 -0.338618
v 0.262705 -0.032127 -0.240451
v 0.262705 0.099116 -0.240451
v 0.259077 0.099116 -0.241541
v 0.259077 -0.032127 -0.241541
v 0.284318 -0.032127 -0.342419
v 0.284318 0.088193 -0.342419
v 0.298350 0.088193 -0.339418
v 0.298350 -0.032127 -0.339418
v 0.270276 -0.032127 -0.237649
v 0.270276 0.099116 -0.237649
v 0.262705 0.099116 -0.240451
v 0.262705 -0.032127 -0.240451
v 0.298350 -0.032127 -0.339418
v 0.298350 0.088193 -0.339418
v 0.312937 0.089708 -0.335066
v 0.312937 -0.032127 -0.335066
v 0.278330 -0.032127 -0.233895
v 0.278330 0.099116 -0.233895
v 0.270276 0.099116 -0.237649
v 0.270276 -0.032127 -0.237649
v 0.312937 -0.032127 -0.335066
v 0.312937 0.089708 -0.335066
v 0.328181 0.093832 -0.329115
v 0.328181 -0.032127 -0.329115
v 0.286940 -0.032127 -0.229044
v 0.286940 0.099116 -0.229044
v 0.278330 0.099116 -0.233895
v 0.278330 -0.032127 -0.233895
v 0.328181 -0.032127 -0.329115
v 0.328181 0.093832 -0.329115
v 0.344183 0.099116 -0.321320
v 0.344183 -0.032127 -0.321320
v 0.291477 -0.032127 -0.226162
v 0.291477 0.099116 -0.226162
v 0.286940 0.099116 -0.229044
v 0.286940 -0.032127 -0.229044
v 0.300752 -0.032127 -0.219491
v 0.300752 0.099116 -0.219491
v 0.291477 0.099116 -0.226162
v 0.291477 -0.032127 -0.226162
v 0.344183 -0.032127 -0.321320
v 0.344183 0.099116 -0.321320
v 0.361044 0.099116 -0.311435
v 0.361044 -0.032127 -0.311435
v 0.361044 -0.032127 -0.311435
v 0.361044 0.099116 -0.311435
v 0.377208 0.099116 -0.299768
v 0.377208 -0.032127 -0.299768
v 0.304897 -0.032127 -0.215885
v 0.304897 0.099116 -0.215885
v 0.300752 0.099116 -0.219491
v 0.300752 -0.032127 -0.219491
v 0.312006 -0.032127 -0.208267
v 0.312006 0.099116 -0.208267
v 0.304897 0.099116 -0.215885
v 0.304897 -0.032127 -0.215885
v 0.377208 -0.032127 -0.299768
v 0.377208 0.099116 -0.299768
v 0.391127 0.099116 -0.286847
v 0.391127 -0.032127 -0.286846
v 0.391127 -0.032127 -0.286846
v 0.391127 0.099116 -0.286847
v 0.402912 0.099116 -0.272756
v 0.402912 -0.032127 -0.272756
v 0.317697 -0.032127 -0.200161
v 0.317697 0.099116 -0.200161
v 0.312006 0.099116 -0.208267
v 0.312006 -0.032127 -0.208267
v 0.402912 -0.032127 -0.272756
v 0.402912 0.099116 -0.272756
v 0.412677 0.099116 -0.257583
v 0.412677 -0.032127 -0.257583
v 0.412677 -0.032127 -0.257583
v 0.412677 0.099116 -0.257583
v 0.420534 0.099116 -0.241412
v 0.420534 -0.032127 -0.241412
v 0.322160 -0.032127 -0.191632
v 0.322160 0.099116 -0.191632
v 0.317697 0.099116 -0.200161
v 0.317697 -0.032127 -0.200161
v 0.420534 -0.032127 -0.241412
v 0.420534 0.099116 -0.241412
v 0.426596 0.099116 -0.224330
v 0.426596 -0.032127 -0.224330
v 0.325584 -0.032127 -0.182744
v 0.325584 0.099116 -0.182744
v 0.322160 0.099116 -0.191632
v 0.322160 -0.032127 -0.191632
v 0.426596 -0.032127 -0.224330
v 0.426596 0.099116 -0.224330
v 0.430974 0.099116 -0.206422
v 0.430974 -0.032127 -0.206422
v 0.328157 -0.032127 -0.173564
v 0.328157 0.099116 -0.173564
v 0.325584 0.099116 -0.182744
v 0.325584 -0.032127 -0.182744
v 0.430974 -0.032127 -0.206422
v 0.430974 0.099116 -0.206422
v 0.432568 0.099116 -0.197186
v 0.432568 -0.032127 -0.197186
v 0.329183 -0.032127 -0.168884
v 0.329183 0.099116 -0.168884
v 0.328157 0.099116 -0.173564
v 0.328157 -0.032127 -0.173564
v 0.330835 -0.032127 -0.159386
v 0.330835 0.099116 -0.159386
v 0.332235 -0.032127 -0.149758
v 0.332235 0.099116 -0.149758
v 0.432568 -0.032127 -0.197186
v 0.432568 0.099116 -0.197186
v 0.434633 0.099116 -0.178200
v 0.434633 -0.032127 -0.178200
v 0.434633 -0.032127 -0.178200
v 0.434633 0.099116 -0.178200
v 0.435133 0.099116 -0.168473
v 0.435133 -0.032127 -0.168473
v 0.435296 0.099116 -0.158604
v 0.435296 -0.032127 -0.158604
v 0.435296 0.099116 0.203384
v 0.435296 -0.032127 0.203384
v 0.434911 0.099116 0.225065
v 0.434911 -0.032127 0.225065
v 0.434298 0.099116 0.243760
v 0.434298 -0.032127 0.243760
v 0.433227 0.099116 0.262178
v 0.433227 -0.032127 0.262178
v 0.431471 0.099116 0.280184
v 0.431471 -0.032127 0.280184
v 0.332840 -0.032127 -0.140064
v 0.332840 0.099116 -0.140064
v 0.332235 0.099116 -0.149758
v 0.332235 -0.032127 -0.149758
v 0.331874 -0.032127 0.203384
v 0.331874 0.099116 0.203384
v 0.332840 0.099116 -0.140064
v 0.332840 -0.032127 -0.140064
v 0.330954 -0.032127 0.214889
v 0.330954 0.099116 0.214889
v 0.331874 0.099116 0.203384
v 0.331874 -0.032127 0.203384
v 0.329392 -0.032127 0.227729
v 0.329392 0.099116 0.227729
v 0.327041 -0.032127 0.238992
v 0.327041 0.099116 0.238992
v 0.329392 0.099116 0.227729
v 0.329392 -0.032127 0.227729
v -0.399488 -0.025516 -0.328736
v -0.399488 0.105727 -0.328736
v -0.383980 0.105727 -0.334145
v -0.383980 -0.025516 -0.334145
v -0.338657 -0.025516 -0.239192
v -0.338657 0.105727 -0.239192
v -0.349140 0.105727 -0.233663
v -0.349140 -0.025516 -0.233663
v 0.323758 -0.032127 0.248613
v 0.323758 0.099116 0.248613
v 0.327041 0.099116 0.238992
v 0.327041 -0.032127 0.238992
v -0.413731 -0.025516 -0.322466
v -0.413731 0.105727 -0.322466
v -0.399488 0.105727 -0.328736
v -0.399488 -0.025516 -0.328736
v -0.349140 -0.025516 -0.233663
v -0.349140 0.105727 -0.233663
v -0.353677 0.105727 -0.230318
v -0.353677 -0.025516 -0.230318
v -0.426515 -0.025516 -0.315408
v -0.426515 0.105727 -0.315408
v -0.413731 0.105727 -0.322466
v -0.413731 -0.025516 -0.322466
v -0.353677 -0.025516 -0.230318
v -0.353677 0.105727 -0.230318
v -0.357757 0.105727 -0.226614
v -0.357757 -0.025516 -0.226614
v -0.437642 -0.025516 -0.307636
v -0.437642 0.105727 -0.307636
v -0.426515 0.105727 -0.315408
v -0.426515 -0.025516 -0.315408
v -0.357757 -0.025516 -0.226614
v -0.357757 0.105727 -0.226614
v -0.361391 0.105727 -0.222571
v -0.361391 -0.025516 -0.222571
v -0.446920 -0.025516 -0.299224
v -0.446920 0.105728 -0.299224
v -0.437642 0.105727 -0.307636
v -0.437642 -0.025516 -0.307636
v -0.455427 -0.025515 -0.290130
v -0.455427 0.105728 -0.290130
v -0.446920 0.105728 -0.299224
v -0.446920 -0.025516 -0.299224
v -0.464121 -0.025515 -0.280038
v -0.464121 0.105728 -0.280038
v -0.361391 -0.025516 -0.222571
v -0.361391 0.105727 -0.222571
v -0.364587 0.105727 -0.218210
v -0.364587 -0.025516 -0.218210
v -0.364587 -0.025516 -0.218210
v -0.364587 0.105727 -0.218210
v -0.367357 0.105728 -0.213551
v -0.367357 -0.025516 -0.213551
v -0.472619 -0.025515 -0.268606
v -0.472619 0.105728 -0.268606
v -0.464121 0.105728 -0.280038
v -0.464121 -0.025515 -0.280038
v -0.367357 -0.025516 -0.213551
v -0.367357 0.105728 -0.213551
v -0.369710 0.105728 -0.208615
v -0.369710 -0.025515 -0.208615
v -0.480540 -0.025515 -0.255497
v -0.480540 0.105728 -0.255497
v -0.472619 0.105728 -0.268606
v -0.472619 -0.025515 -0.268606
v -0.487503 -0.025515 -0.240372
v -0.487503 0.105728 -0.240372
v -0.480540 0.105728 -0.255497
v -0.480540 -0.025515 -0.255497
v -0.369710 -0.025515 -0.208615
v -0.369710 0.105728 -0.208615
v -0.373203 0.105728 -0.197992
v -0.373203 -0.025515 -0.197992
v -0.493125 -0.025515 -0.222890
v -0.493125 0.105728 -0.222890
v -0.487503 0.105728 -0.240372
v -0.487503 -0.025515 -0.240372
v -0.497026 -0.025514 -0.202712
v -0.497026 0.105729 -0.202712
v -0.493125 0.105728 -0.222890
v -0.493125 -0.025515 -0.222890
v -0.373203 -0.025515 -0.197992
v -0.373203 0.105728 -0.197992
v -0.375146 0.105728 -0.186506
v -0.375146 -0.025515 -0.186506
v -0.498823 -0.025514 -0.179500
v -0.498823 0.105729 -0.179500
v -0.497026 0.105729 -0.202712
v -0.497026 -0.025514 -0.202712
v -0.375146 -0.025515 -0.186506
v -0.375146 0.105728 -0.186506
v -0.375618 0.105728 -0.174322
v -0.375618 -0.025515 -0.174322
v -0.498136 -0.025514 -0.152914
v -0.498136 0.105729 -0.152914
v -0.498823 0.105729 -0.179500
v -0.498823 -0.025514 -0.179500
v -0.494384 -0.025514 -0.123480
v -0.494384 0.105729 -0.123480
v -0.498136 0.105729 -0.152914
v -0.498136 -0.025514 -0.152914
v -0.375618 -0.025515 -0.174322
v -0.375618 0.105728 -0.174322
v -0.374046 0.105728 -0.162487
v -0.374046 -0.025515 -0.162487
v -0.374046 -0.025515 -0.162487
v -0.374046 0.105728 -0.162487
v -0.372309 0.105728 -0.157050
v -0.372309 -0.025515 -0.157050
v -0.489221 -0.025513 -0.102983
v -0.489221 0.105730 -0.102983
v -0.494384 0.105729 -0.123480
v -0.494384 -0.025514 -0.123480
v -0.480561 -0.025513 -0.083711
v -0.480561 0.105730 -0.083711
v -0.489221 0.105730 -0.102983
v -0.489221 -0.025513 -0.102983
v -0.372309 -0.025515 -0.157050
v -0.372309 0.105728 -0.157050
v -0.368255 0.105729 -0.148742
v -0.368255 -0.025514 -0.148742
v -0.466090 -0.025513 -0.061055
v -0.466090 0.105730 -0.061055
v -0.480561 0.105730 -0.083711
v -0.480561 -0.025513 -0.083711
v -0.368255 -0.025514 -0.148742
v -0.368255 0.105729 -0.148742
v -0.363695 0.105729 -0.142638
v -0.363695 -0.025514 -0.142638
v -0.447765 -0.025513 -0.041555
v -0.447765 0.105730 -0.041555
v -0.466090 0.105730 -0.061055
v -0.466090 -0.025513 -0.061055
v -0.425882 -0.025513 -0.025269
v -0.425882 0.105731 -0.025269
v -0.447765 0.105730 -0.041555
v -0.447765 -0.025513 -0.041555
v -0.361748 -0.025514 -0.140549
v -0.361748 0.105729 -0.140549
v -0.355451 0.105729 -0.134593
v -0.355451 -0.025514 -0.134593
v -0.400741 -0.025512 -0.012258
v -0.400741 0.105731 -0.012258
v -0.425882 0.105731 -0.025269
v -0.425882 -0.025513 -0.025269
v -0.355451 -0.025514 -0.134593
v -0.355451 0.105729 -0.134593
v -0.345517 0.105729 -0.127778
v -0.345517 -0.025514 -0.127778
v -0.372641 -0.025512 -0.002582
v -0.372641 0.105731 -0.002582
v -0.400741 0.105731 -0.012258
v -0.400741 -0.025512 -0.012258
v -0.345517 -0.025514 -0.127778
v -0.345517 0.105729 -0.127778
v -0.340001 0.105729 -0.124827
v -0.340001 -0.025514 -0.124827
v -0.349727 -0.025512 0.002343
v -0.349727 0.105731 0.002343
v -0.372641 0.105731 -0.002582
v -0.372641 -0.025512 -0.002582
v -0.340001 -0.025514 -0.124827
v -0.340001 0.105729 -0.124827
v -0.328036 0.105729 -0.119828
v -0.328036 -0.025514 -0.119828
v -0.328036 -0.025514 -0.119828
v -0.328036 0.105729 -0.119828
v -0.315051 0.105730 -0.116020
v -0.315051 -0.025513 -0.116020
v -0.308755 -0.025512 0.006528
v -0.308755 0.105731 0.006528
v -0.325594 0.105731 0.005549
v -0.325594 -0.025512 0.005549
v -0.315051 -0.025513 -0.116020
v -0.315051 0.105730 -0.116020
v -0.301314 0.105730 -0.113387
v -0.301314 -0.025513 -0.113387
v -0.282734 -0.025512 0.006133
v -0.282734 0.105731 0.006133
v -0.308755 0.105731 0.006528
v -0.308755 -0.025512 0.006528
v -0.301314 -0.025513 -0.113387
v -0.301314 0.105730 -0.113387
v -0.287093 0.105730 -0.111911
v -0.287093 -0.025513 -0.111911
v -0.287093 -0.025513 -0.111911
v -0.287093 0.105730 -0.111911
v -0.273040 0.105730 -0.112273
v -0.273040 -0.025513 -0.112273
v -0.225430 -0.025512 -0.004524
v -0.225430 0.105731 -0.004524
v -0.257283 0.105731 0.003401
v -0.257283 -0.025512 0.003401
v -0.273040 -0.025513 -0.112273
v -0.273040 0.105730 -0.112273
v -0.259694 0.105731 -0.114950
v -0.259694 -0.025512 -0.114950
v -0.195990 -0.025512 -0.016566
v -0.195990 0.105731 -0.016566
v -0.225430 0.105731 -0.004524
v -0.225430 -0.025512 -0.004524
v -0.259694 -0.025512 -0.114950
v -0.259694 0.105731 -0.114950
v -0.253315 0.105731 -0.117059
v -0.253315 -0.025512 -0.117059
v -0.169113 -0.025512 -0.032143
v -0.169113 0.105731 -0.032143
v -0.195990 0.105731 -0.016566
v -0.195990 -0.025512 -0.016566
v -0.253315 -0.025512 -0.117059
v -0.253315 0.105731 -0.117059
v -0.241202 0.105731 -0.122620
v -0.241202 -0.025512 -0.122620
v -0.241202 -0.025512 -0.122620
v -0.241202 0.105731 -0.122620
v -0.230027 0.105731 -0.129711
v -0.230027 -0.025512 -0.129711
v -0.150816 -0.025511 -0.045874
v -0.150816 0.105732 -0.045874
v -0.169113 0.105731 -0.032143
v -0.169113 -0.025512 -0.032143
v -0.230027 -0.025512 -0.129711
v -0.230027 0.105731 -0.129711
v -0.219881 0.105731 -0.138018
v -0.219881 -0.025512 -0.138018
v -0.114112 -0.025511 -0.082735
v -0.114112 0.105732 -0.082735
v -0.133930 0.105732 -0.060864
v -0.133930 -0.025511 -0.060864
v -0.219881 -0.025512 -0.138018
v -0.219881 0.105731 -0.138018
v -0.210856 0.105732 -0.147226
v -0.210856 -0.025511 -0.147226
v -0.210856 -0.025511 -0.147226
v -0.210856 0.105732 -0.147226
v -0.203045 0.105732 -0.157020
v -0.203045 -0.025511 -0.157020
v -0.097380 -0.025511 -0.106105
v -0.097380 0.105732 -0.106105
v -0.114112 0.105732 -0.082735
v -0.114112 -0.025511 -0.082735
v -0.203045 -0.025511 -0.157020
v -0.203045 0.105732 -0.157020
v -0.196539 0.105732 -0.167087
v -0.196539 -0.025511 -0.167087
v -0.196539 -0.025511 -0.167087
v -0.196539 0.105732 -0.167087
v -0.191432 0.105923 -0.177111
v -0.191432 -0.025321 -0.177111
v -0.078823 -0.024924 -0.142705
v -0.078823 0.106319 -0.142705
v -0.083881 0.105923 -0.130393
v -0.083881 -0.025320 -0.130393
v -0.073765 -0.003986 -0.155017
v -0.073765 0.107518 -0.155017
v -0.188740 -0.024924 -0.183734
v -0.188740 0.106319 -0.183734
v -0.186049 0.107518 -0.190357
v -0.186049 -0.003986 -0.190357
v -0.191432 -0.025321 -0.177111
v -0.191432 0.105923 -0.177111
v -0.006695 0.045154 -0.362579
v -0.006695 0.156657 -0.362579
v -0.073765 0.107518 -0.155017
v -0.073765 -0.003986 -0.155017
v -0.004459 0.026598 -0.369145
v -0.004459 0.157841 -0.369145
v -0.002224 0.027152 -0.375712
v -0.002224 0.158395 -0.375712
v -0.122847 0.027065 -0.383566
v -0.122847 0.158308 -0.383566
v -0.120808 0.158878 -0.389457
v -0.120808 0.027635 -0.389457
v -0.116490 0.158878 -0.402402
v -0.116490 0.027635 -0.402402
v -0.112172 0.158878 -0.415347
v -0.112172 0.027635 -0.415347
v -0.104246 0.158878 -0.437553
v -0.104246 0.027635 -0.437553
v -0.124886 0.045606 -0.377674
v -0.124886 0.157109 -0.377674
v -0.186049 -0.003986 -0.190357
v -0.186049 0.107518 -0.190357
v -0.001263 0.027394 -0.377973
v -0.001263 0.158637 -0.377973
v -0.002224 0.158395 -0.375712
v -0.002224 0.027152 -0.375712
v -0.000302 0.027635 -0.380235
v -0.000302 0.158878 -0.380235
v 0.001945 0.027635 -0.384107
v 0.001945 0.158878 -0.384107
v -0.000302 0.158878 -0.380235
v -0.000302 0.027635 -0.380235
v -0.104246 0.027635 -0.437553
v -0.104246 0.158878 -0.437553
v -0.093712 0.158878 -0.456891
v -0.093712 0.027635 -0.456891
v 0.005715 0.027635 -0.389466
v 0.005715 0.158878 -0.389466
v 0.001945 0.158878 -0.384107
v 0.001945 0.027635 -0.384107
v -0.093712 0.027635 -0.456891
v -0.093712 0.158878 -0.456891
v -0.080303 0.158878 -0.473635
v -0.080303 0.027635 -0.473635
v 0.007889 0.027635 -0.392032
v 0.007889 0.158878 -0.392032
v 0.005715 0.158878 -0.389466
v 0.005715 0.027635 -0.389466
v 0.010252 0.027635 -0.394502
v 0.010252 0.158878 -0.394502
v 0.007889 0.158878 -0.392032
v 0.007889 0.027635 -0.392032
v -0.080303 0.027635 -0.473635
v -0.080303 0.158878 -0.473635
v -0.064365 0.158878 -0.487858
v -0.064365 0.027635 -0.487858
v 0.012800 0.027635 -0.396862
v 0.012800 0.158878 -0.396862
v 0.010252 0.158878 -0.394502
v 0.010252 0.027635 -0.394502
v 0.015531 0.027635 -0.399099
v 0.015531 0.158878 -0.399099
v 0.012800 0.158878 -0.396862
v 0.012800 0.027635 -0.396862
v -0.064365 0.027635 -0.487858
v -0.064365 0.158878 -0.487858
v -0.046244 0.158878 -0.499630
v -0.046244 0.027635 -0.499630
v 0.024790 0.027635 -0.404923
v 0.024790 0.158878 -0.404923
v 0.015531 0.158878 -0.399099
v 0.015531 0.027635 -0.399099
v -0.046244 0.027635 -0.499630
v -0.046244 0.158878 -0.499630
v -0.026285 0.158878 -0.509022
v -0.026285 0.027635 -0.509022
v 0.039515 0.027635 -0.410088
v 0.039515 0.158878 -0.410088
v 0.024790 0.158878 -0.404923
v 0.024790 0.027635 -0.404923
v -0.026285 0.027635 -0.509022
v -0.026285 0.158878 -0.509022
v -0.004836 0.158878 -0.516104
v -0.004836 0.027635 -0.516104
v -0.004836 0.027635 -0.516104
v -0.004836 0.158878 -0.516104
v 0.017758 0.158878 -0.520947
v 0.017758 0.027635 -0.520947
v 0.047844 0.027635 -0.411298
v 0.047844 0.158878 -0.411298
v 0.039515 0.158878 -0.410088
v 0.039515 0.027635 -0.410088
v 0.017758 0.027635 -0.520947
v 0.017758 0.158878 -0.520947
v 0.041151 0.158878 -0.523623
v 0.041151 0.027635 -0.523623
v 0.056648 0.027635 -0.411498
v 0.056648 0.158878 -0.411498
v 0.047844 0.158878 -0.411298
v 0.047844 0.027635 -0.411298
v 0.041151 0.027635 -0.523623
v 0.041151 0.158878 -0.523623
v 0.064997 0.158878 -0.524202
v 0.064997 0.027635 -0.524202
v 0.069018 0.027635 -0.410379
v 0.069018 0.158878 -0.410379
v 0.056648 0.158878 -0.411498
v 0.056648 0.027635 -0.411498
v 0.064997 0.027635 -0.524202
v 0.064997 0.158878 -0.524202
v 0.088025 0.158878 -0.522280
v 0.088025 0.027635 -0.522280
v 0.083082 0.027635 -0.406158
v 0.083082 0.158878 -0.406158
v 0.069018 0.158878 -0.410379
v 0.069018 0.027635 -0.410379
v 0.088025 0.027635 -0.522280
v 0.088025 0.158878 -0.522280
v 0.109157 0.158878 -0.517728
v 0.109157 0.027635 -0.517728
v 0.109157 0.027635 -0.517728
v 0.109157 0.158878 -0.517728
v 0.128335 0.158878 -0.511023
v 0.128335 0.027635 -0.511023
v 0.088863 0.027635 -0.402777
v 0.088863 0.158878 -0.402777
v 0.083082 0.158878 -0.406158
v 0.083082 0.027635 -0.406158
v 0.128335 0.027635 -0.511023
v 0.128335 0.158878 -0.511023
v 0.145501 0.158878 -0.502644
v 0.145501 0.027635 -0.502644
v 0.145501 0.027635 -0.502644
v 0.145501 0.158878 -0.502644
v 0.160597 0.158878 -0.493069
v 0.160597 0.027635 -0.493069
v 0.091400 0.027635 -0.400750
v 0.091400 0.158878 -0.400750
v 0.088863 0.158878 -0.402777
v 0.088863 0.027635 -0.402777
v 0.160597 0.027635 -0.493069
v 0.160597 0.158878 -0.493069
v 0.173564 0.158878 -0.482776
v 0.173564 0.027635 -0.482776
v 0.093686 0.027635 -0.398491
v 0.093686 0.158878 -0.398491
v 0.091400 0.158878 -0.400750
v 0.091400 0.027635 -0.400750
v 0.173564 0.027635 -0.482776
v 0.173564 0.158878 -0.482776
v 0.184344 0.158878 -0.472244
v 0.184344 0.027635 -0.472244
v 0.095708 0.027635 -0.395994
v 0.095708 0.158878 -0.395994
v 0.093686 0.158878 -0.398491
v 0.093686 0.027635 -0.398491
v 0.184344 0.027635 -0.472244
v 0.184344 0.158878 -0.472244
v 0.192880 0.158878 -0.461952
v 0.192880 0.027635 -0.461952
v 0.097456 0.027635 -0.393254
v 0.097456 0.158878 -0.393254
v 0.095708 0.158878 -0.395994
v 0.095708 0.027635 -0.395994
v 0.192880 0.027635 -0.461952
v 0.192880 0.158878 -0.461952
v 0.199113 0.158878 -0.452378
v 0.199113 0.027635 -0.452378
v 0.199113 0.027635 -0.452378
v 0.199113 0.158878 -0.452378
v 0.203196 0.158878 -0.443863
v 0.203196 0.027635 -0.443863
v 0.098918 0.027635 -0.390265
v 0.098918 0.158878 -0.390265
v 0.097456 0.158878 -0.393254
v 0.097456 0.027635 -0.393254
v 0.203196 0.027635 -0.443863
v 0.203196 0.158878 -0.443863
v 0.208964 0.158878 -0.428246
v 0.208964 0.027635 -0.428246
v 0.100081 0.027635 -0.387022
v 0.100081 0.158878 -0.387022
v 0.098918 0.158878 -0.390265
v 0.098918 0.027635 -0.390265
v 0.208964 0.027635 -0.428246
v 0.208964 0.158878 -0.428246
v 0.212594 0.158878 -0.413902
v 0.212594 0.027635 -0.413902
v 0.100935 0.027635 -0.383519
v 0.100935 0.158878 -0.383519
v 0.100081 0.158878 -0.387022
v 0.100081 0.027635 -0.387022
v 0.212594 0.027635 -0.413902
v 0.212594 0.158878 -0.413902
v 0.214696 0.158878 -0.400468
v 0.214696 0.027635 -0.400468
v 0.101468 0.027635 -0.379751
v 0.101468 0.158878 -0.379751
v 0.100935 0.158878 -0.383519
v 0.100935 0.027635 -0.383519
v 0.214696 0.027635 -0.400468
v 0.214696 0.158878 -0.400468
v 0.215881 0.158878 -0.387580
v 0.215881 0.027635 -0.387580
v 0.216321 0.158878 -0.381227
v 0.216321 0.047374 -0.381227
v 0.101668 0.047374 -0.375712
v 0.101668 0.158878 -0.375712
v 0.101468 0.158878 -0.379751
v 0.101468 0.027635 -0.379751
v 0.216321 0.047374 -0.381227
v 0.216321 0.158878 -0.381227
v 0.216321 0.158878 -0.122802
v 0.216321 0.047374 -0.122802
v 0.215943 0.158878 -0.091700
v 0.215943 0.027635 -0.091700
v 0.215623 0.158878 -0.083255
v 0.215623 0.027635 -0.083255
v 0.214483 0.158878 -0.064904
v 0.214483 0.027635 -0.064904
v 0.212470 0.158878 -0.045594
v 0.212470 0.027635 -0.045594
v 0.101129 0.047374 -0.122841
v 0.101129 0.158878 -0.122841
v 0.101668 0.158878 -0.375712
v 0.101668 0.047374 -0.375712
v 0.100952 0.027635 -0.114660
v 0.100952 0.158878 -0.114660
v 0.100271 0.027635 -0.105807
v 0.100271 0.158878 -0.105807
v 0.100952 0.158878 -0.114660
v 0.100952 0.027635 -0.114660
v 0.098859 0.027635 -0.096541
v 0.098859 0.158878 -0.096541
v 0.100271 0.158878 -0.105807
v 0.100271 0.027635 -0.105807
v 0.096488 0.027635 -0.087124
v 0.096488 0.158878 -0.087124
v 0.098859 0.158878 -0.096541
v 0.098859 0.027635 -0.096541
v 0.094872 0.027635 -0.082440
v 0.094872 0.158878 -0.082440
v 0.096488 0.158878 -0.087124
v 0.096488 0.027635 -0.087124
v 0.092930 0.027635 -0.077816
v 0.092930 0.158878 -0.077816
v 0.094872 0.158878 -0.082440
v 0.094872 0.027635 -0.082440
v 0.090634 0.027635 -0.073284
v 0.090634 0.158878 -0.073284
v 0.092930 0.158878 -0.077816
v 0.092930 0.027635 -0.077816
v 0.212470 0.027635 -0.045594
v 0.212470 0.158878 -0.045594
v 0.209337 0.158878 -0.026512
v 0.209337 0.027635 -0.026512
v 0.319397 -0.032127 0.256527
v 0.319397 0.099116 0.256527
v 0.323758 0.099116 0.248613
v 0.323758 -0.032127 0.248613
v 0.087956 0.027635 -0.068877
v 0.087956 0.158878 -0.068877
v 0.090634 0.158878 -0.073284
v 0.090634 0.027635 -0.073284
v 0.209337 0.027635 -0.026512
v 0.209337 0.158878 -0.026512
v 0.204835 0.158878 -0.008843
v 0.204835 0.027635 -0.008843
v 0.081340 0.027635 -0.060570
v 0.081340 0.158878 -0.060570
v 0.087956 0.158878 -0.068877
v 0.087956 0.027635 -0.068877
v 0.204835 0.027635 -0.008843
v 0.204835 0.158878 -0.008843
v 0.198715 0.158878 0.006226
v 0.198715 0.027635 0.006226
v 0.198715 0.027635 0.006226
v 0.198715 0.158878 0.006226
v 0.191873 0.158878 0.017473
v 0.191873 0.027635 0.017473
v 0.191873 0.027635 0.017473
v 0.191873 0.158878 0.017473
v 0.184316 0.158878 0.026463
v 0.184316 0.027635 0.026463
v 0.184316 0.027635 0.026463
v 0.184316 0.158878 0.026463
v 0.176892 0.158878 0.033560
v 0.176892 0.027635 0.033560
v 0.176892 0.027635 0.033560
v 0.176892 0.158878 0.033560
v 0.167399 0.158878 0.040154
v 0.167399 0.027635 0.040154
v 0.167399 0.027635 0.040154
v 0.167399 0.158878 0.040154
v 0.158593 0.158878 0.044683
v 0.158593 0.027635 0.044683
v 0.077344 0.027635 -0.056734
v 0.077344 0.158878 -0.056734
v 0.081340 0.158878 -0.060570
v 0.081340 0.027635 -0.060570
v 0.158593 0.027635 0.044683
v 0.158593 0.158878 0.044683
v 0.148708 0.158878 0.049125
v 0.148708 0.027635 0.049125
v 0.137251 0.158878 0.054000
v 0.137251 0.027635 0.054000
v 0.072853 0.027635 -0.053154
v 0.072853 0.158878 -0.053154
v 0.077344 0.158878 -0.056734
v 0.077344 0.027635 -0.056734
v 0.137251 0.027635 0.054000
v 0.137251 0.158878 0.054000
v 0.124854 0.158878 0.058428
v 0.124854 0.027635 0.058428
v 0.110291 0.158878 0.062954
v 0.110291 0.027635 0.062954
v 0.102060 0.158878 0.065319
v 0.102060 0.027635 0.065319
v 0.093123 0.158878 0.067789
v 0.093123 0.027635 0.067789
v 0.085792 0.158584 0.069755
v 0.085792 0.027341 0.069755
v 0.081121 0.158273 0.071034
v 0.081121 0.027030 0.071034
v -0.246376 0.127261 0.162530
v -0.246376 -0.003982 0.162530
v -0.255629 0.126528 0.165551
v -0.255629 -0.004715 0.165551
v 0.067836 0.027635 -0.049862
v 0.067836 0.158878 -0.049862
v 0.072853 0.158878 -0.053154
v 0.072853 0.027635 -0.053154
v 0.062267 0.027635 -0.046890
v 0.062267 0.158878 -0.046890
v 0.067836 0.158878 -0.049862
v 0.067836 0.027635 -0.049862
v 0.058366 0.027402 -0.045228
v 0.058366 0.158645 -0.045228
v 0.062267 0.158878 -0.046890
v 0.062267 0.027635 -0.046890
v -0.279088 -0.004223 0.045833
v -0.279088 0.127020 0.045833
v 0.053803 0.158291 -0.043650
v 0.053803 0.027048 -0.043650
v -0.290949 -0.004715 0.049473
v -0.290949 0.126528 0.049473
v -0.302105 -0.004715 0.053237
v -0.302105 0.126528 0.053237
v -0.322398 0.126528 0.061119
v -0.322398 -0.004715 0.061119
v -0.255629 -0.004715 0.165551
v -0.255629 0.126528 0.165551
v -0.259070 0.126528 0.167465
v -0.259070 -0.004715 0.167465
v -0.259070 -0.004715 0.167465
v -0.259070 0.126528 0.167465
v -0.262016 0.126528 0.169695
v -0.262016 -0.004715 0.169695
v -0.340150 -0.004715 0.069443
v -0.340150 0.126528 0.069443
v -0.322398 0.126528 0.061119
v -0.322398 -0.004715 0.061119
v -0.262016 -0.004715 0.169695
v -0.262016 0.126528 0.169695
v -0.264465 0.126528 0.172175
v -0.264465 -0.004715 0.172175
v -0.355546 -0.004715 0.078179
v -0.355546 0.126528 0.078179
v -0.340150 0.126528 0.069443
v -0.340150 -0.004715 0.069443
v 0.431471 -0.032127 0.280184
v 0.431471 0.099116 0.280184
v 0.428801 0.099116 0.297637
v 0.428801 -0.032127 0.297637
v -0.264465 -0.004715 0.172175
v -0.264465 0.126528 0.172175
v -0.266416 0.126528 0.174838
v -0.266416 -0.004715 0.174838
v -0.368768 -0.004715 0.087290
v -0.368768 0.126528 0.087290
v -0.355546 0.126528 0.078179
v -0.355546 -0.004715 0.078179
v 0.428801 -0.032127 0.297637
v 0.428801 0.099116 0.297637
v 0.424988 0.099116 0.314402
v 0.424988 -0.032127 0.314402
v 0.316766 -0.032127 0.259824
v 0.316766 0.099116 0.259824
v 0.319397 0.099116 0.256527
v 0.319397 -0.032127 0.256527
v -0.380001 -0.004715 0.096746
v -0.380001 0.126528 0.096746
v -0.368768 0.126528 0.087290
v -0.368768 -0.004715 0.087290
v -0.266416 -0.004715 0.174838
v -0.266416 0.126528 0.174838
v -0.267867 0.126528 0.177618
v -0.267867 -0.004715 0.177618
v -0.389427 -0.004715 0.106511
v -0.389427 0.126528 0.106511
v -0.380001 0.126528 0.096746
v -0.380001 -0.004715 0.096746
v -0.397232 -0.004715 0.116553
v -0.397232 0.126528 0.116553
v -0.389427 0.126528 0.106511
v -0.389427 -0.004715 0.106511
v -0.267867 -0.004715 0.177618
v -0.267867 0.126528 0.177618
v -0.268817 0.126528 0.180447
v -0.268817 -0.004715 0.180447
v -0.403597 -0.004715 0.126839
v -0.403597 0.126528 0.126839
v -0.397232 0.126528 0.116553
v -0.397232 -0.004715 0.116553
v -0.408735 -0.004715 0.137551
v -0.408735 0.126528 0.137551
v -0.403597 0.126528 0.126839
v -0.403597 -0.004715 0.126839
v -0.412867 -0.004715 0.149838
v -0.412867 0.126528 0.149838
v -0.408735 0.126528 0.137551
v -0.408735 -0.004715 0.137551
v -0.415861 -0.004715 0.163585
v -0.415861 0.126528 0.163585
v -0.412867 0.126528 0.149838
v -0.412867 -0.004715 0.149838
v -0.268817 -0.004715 0.180447
v -0.268817 0.126528 0.180447
v -0.269264 0.126528 0.183259
v -0.269264 -0.004715 0.183259
v -0.417544 -0.004715 0.178450
v -0.417544 0.126528 0.178450
v -0.415861 0.126528 0.163585
v -0.415861 -0.004715 0.163585
v -0.417741 -0.004715 0.194089
v -0.417741 0.126528 0.194089
v -0.417544 0.126528 0.178450
v -0.417544 -0.004715 0.178450
v -0.269264 -0.004715 0.183259
v -0.269264 0.126528 0.183259
v -0.269206 0.126528 0.185986
v -0.269206 -0.004715 0.185986
v -0.416277 -0.004715 0.210157
v -0.416277 0.126528 0.210157
v -0.417741 0.126528 0.194089
v -0.417741 -0.004715 0.194089
v -0.412978 -0.004715 0.226313
v -0.412978 0.126528 0.226313
v -0.416277 0.126528 0.210157
v -0.416277 -0.004715 0.210157
v -0.269206 -0.004715 0.185986
v -0.269206 0.126528 0.185986
v -0.268642 0.126528 0.188563
v -0.268642 -0.004715 0.188563
v -0.407670 -0.004715 0.242210
v -0.407670 0.126528 0.242210
v -0.412978 0.126528 0.226313
v -0.412978 -0.004715 0.226313
v -0.400179 -0.004715 0.257508
v -0.400179 0.126528 0.257508
v -0.407670 0.126528 0.242210
v -0.407670 -0.004715 0.242210
v -0.390330 -0.004715 0.271860
v -0.390330 0.126528 0.271860
v -0.400179 0.126528 0.257508
v -0.400179 -0.004715 0.257508
v -0.268642 -0.004715 0.188563
v -0.268642 0.126528 0.188563
v -0.267571 0.126528 0.190921
v -0.267571 -0.004715 0.190921
v -0.377548 -0.004715 0.284599
v -0.377548 0.126528 0.284599
v -0.390330 0.126528 0.271860
v -0.390330 -0.004715 0.271860
v -0.361781 -0.004715 0.295277
v -0.361781 0.126528 0.295277
v -0.377548 0.126528 0.284599
v -0.377548 -0.004715 0.284599
v -0.343639 -0.004715 0.303881
v -0.343639 0.126528 0.303881
v -0.361781 0.126528 0.295277
v -0.361781 -0.004715 0.295277
v -0.267571 -0.004715 0.190921
v -0.267571 0.126528 0.190921
v -0.265990 0.126528 0.192995
v -0.265990 -0.004715 0.192995
v -0.323733 -0.004715 0.310399
v -0.323733 0.126528 0.310399
v -0.343639 0.126528 0.303881
v -0.343639 -0.004715 0.303881
v -0.265990 -0.004715 0.192995
v -0.265990 0.126528 0.192995
v -0.263898 0.126528 0.194717
v -0.263898 -0.004715 0.194717
v -0.302672 -0.004715 0.314820
v -0.302672 0.126528 0.314820
v -0.323733 0.126528 0.310399
v -0.323733 -0.004715 0.310399
v -0.281067 -0.004715 0.317130
v -0.281067 0.126528 0.317130
v -0.302672 0.126528 0.314820
v -0.302672 -0.004715 0.314820
v -0.263898 -0.004715 0.194717
v -0.263898 0.126528 0.194717
v -0.261294 0.126528 0.196021
v -0.261294 -0.004715 0.196021
v -0.259527 -0.004715 0.317320
v -0.259527 0.126528 0.317320
v -0.281067 0.126528 0.317130
v -0.281067 -0.004715 0.317130
v -0.261294 -0.004715 0.196021
v -0.261294 0.126528 0.196021
v -0.258176 0.126528 0.196839
v -0.258176 -0.004715 0.196839
v -0.238664 -0.004715 0.315376
v -0.238664 0.126528 0.315376
v -0.259527 0.126528 0.317320
v -0.259527 -0.004715 0.317320
v -0.258176 -0.004715 0.196839
v -0.258176 0.126528 0.196839
v -0.250392 0.126528 0.196752
v -0.250392 -0.004715 0.196752
v -0.219086 -0.004715 0.311286
v -0.219086 0.126528 0.311286
v -0.238664 0.126528 0.315376
v -0.238664 -0.004715 0.315376
v -0.250392 -0.004715 0.196752
v -0.250392 0.126528 0.196752
v -0.245723 0.126528 0.195713
v -0.245723 -0.004715 0.195713
v -0.199194 -0.005491 0.304396
v -0.199194 0.125752 0.304396
v -0.219086 0.126528 0.311286
v -0.219086 -0.004715 0.311286
v -0.057517 -0.020214 0.250698
v -0.057517 0.111029 0.250698
v -0.046758 -0.021026 0.246870
v -0.046758 0.110217 0.246870
v -0.245723 -0.004715 0.195713
v -0.245723 0.126528 0.195713
v -0.240533 0.126272 0.193921
v -0.240533 -0.004971 0.193921
v -0.079963 0.112473 0.133226
v -0.079963 -0.018770 0.133226
v -0.069378 0.111627 0.129709
v -0.069378 -0.019616 0.129709
v -0.064038 0.111209 0.128077
v -0.064038 -0.020034 0.128077
v -0.058698 0.110790 0.126444
v -0.058698 -0.020453 0.126444
v -0.053335 0.110379 0.124982
v -0.053335 -0.020864 0.124982
v -0.047971 0.109968 0.123519
v -0.047971 -0.021275 0.123519
v -0.037245 0.109168 0.121021
v -0.037245 -0.022075 0.121021
v -0.026565 0.108394 0.119036
v -0.026565 -0.022850 0.119035
v -0.041947 -0.021402 0.245448
v -0.041947 0.109841 0.245448
v -0.046758 0.110217 0.246870
v -0.046758 -0.021026 0.246870
v -0.037136 -0.021777 0.244026
v -0.037136 0.109466 0.244026
v -0.032799 -0.022125 0.243094
v -0.032799 0.109118 0.243094
v -0.037136 0.109466 0.244026
v -0.037136 -0.021777 0.244026
v -0.028463 -0.022472 0.242162
v -0.028463 0.108771 0.242162
v -0.024424 -0.022801 0.241597
v -0.024424 0.108442 0.241597
v -0.028463 0.108771 0.242162
v -0.028463 -0.022472 0.242162
v -0.020552 -0.023118 0.241277
v -0.020552 0.108125 0.241277
v -0.024424 0.108442 0.241597
v -0.024424 -0.022801 0.241597
v -0.016825 -0.023424 0.241201
v -0.016825 0.107819 0.241201
v -0.020552 0.108125 0.241277
v -0.020552 -0.023118 0.241277
v -0.026565 -0.022850 0.119035
v -0.026565 0.108394 0.119036
v -0.015979 0.107652 0.117650
v -0.015979 -0.023591 0.117650
v -0.013218 -0.023720 0.241369
v -0.013218 0.107523 0.241369
v -0.016825 0.107819 0.241201
v -0.016825 -0.023424 0.241201
v -0.015979 -0.023591 0.117650
v -0.015979 0.107652 0.117650
v -0.005533 0.106949 0.116953
v -0.005533 -0.024294 0.116952
v -0.000404 -0.024623 0.116990
v -0.000404 0.106620 0.116991
v 0.004725 0.106291 0.117029
v 0.004725 -0.024952 0.117029
v -0.005533 -0.024294 0.116952
v -0.005533 0.106949 0.116953
v -0.007990 -0.024146 0.242108
v -0.007990 0.107097 0.242108
v -0.013218 0.107523 0.241369
v -0.013218 -0.023720 0.241369
v -0.006271 -0.024285 0.242436
v -0.006271 0.106958 0.242436
v 0.009737 -0.025257 0.117497
v 0.009737 0.105986 0.117497
v 0.014748 0.105682 0.117965
v 0.014748 -0.025561 0.117965
v 0.004725 -0.024952 0.117029
v 0.004725 0.106291 0.117029
v 0.014748 -0.025561 0.117965
v 0.014748 0.105682 0.117965
v 0.024491 0.105130 0.119850
v 0.024491 -0.026113 0.119850
v 0.024491 -0.026113 0.119850
v 0.024491 0.105130 0.119850
v 0.033905 0.104640 0.122770
v 0.033905 -0.026603 0.122769
v 0.033905 -0.026603 0.122769
v 0.033905 0.104640 0.122770
v 0.042944 0.104218 0.126810
v 0.042944 -0.027025 0.126810
v 0.047253 -0.027149 0.129435
v 0.047253 0.104094 0.129435
v 0.051562 0.103971 0.132060
v 0.051562 -0.027272 0.132060
v 0.042944 -0.027025 0.126810
v 0.042944 0.104218 0.126810
v -0.004578 -0.024420 0.242886
v -0.004578 0.106823 0.242886
v -0.006271 0.106958 0.242436
v -0.006271 -0.024285 0.242436
v -0.002886 -0.024555 0.243335
v -0.002886 0.106688 0.243335
v -0.002046 -0.024621 0.243621
v -0.002046 0.106622 0.243621
v -0.002886 0.106688 0.243335
v -0.002886 -0.024555 0.243335
v -0.001206 -0.024687 0.243906
v -0.001206 0.106557 0.243906
v 0.000473 -0.024818 0.244477
v 0.000473 0.106425 0.244477
v 0.003839 -0.025021 0.245984
v 0.003839 0.106223 0.245984
v 0.000473 0.106425 0.244477
v 0.000473 -0.024818 0.244477
v 0.007204 -0.025223 0.247490
v 0.007204 0.106020 0.247490
v 0.208200 -0.030726 0.382934
v 0.208200 0.100517 0.382934
v 0.007204 0.106020 0.247490
v 0.007204 -0.025223 0.247490
v 0.051562 -0.027272 0.132060
v 0.051562 0.103971 0.132060
v 0.249357 0.099598 0.266542
v 0.249357 -0.031645 0.266542
v 0.249357 -0.031645 0.266542
v 0.249357 0.099598 0.266542
v 0.261734 0.099288 0.270769
v 0.261734 -0.031955 0.270769
v 0.229592 -0.031450 0.395448
v 0.229592 0.099793 0.395448
v 0.208200 0.100517 0.382934
v 0.208200 -0.030726 0.382934
v 0.252178 -0.031900 0.403624
v 0.252178 0.099343 0.403624
v 0.229592 0.099793 0.395448
v 0.229592 -0.031450 0.395448
v 0.261734 -0.031955 0.270769
v 0.261734 0.099288 0.270769
v 0.272606 0.099199 0.272921
v 0.272606 -0.032044 0.272921
v 0.275362 -0.032093 0.407847
v 0.275362 0.099150 0.407847
v 0.252178 0.099343 0.403624
v 0.252178 -0.031900 0.403624
v 0.272606 -0.032044 0.272921
v 0.272606 0.099199 0.272921
v 0.282263 0.099130 0.273308
v 0.282263 -0.032113 0.273308
v 0.298545 -0.032127 0.408504
v 0.298545 0.099116 0.408504
v 0.275362 0.099150 0.407847
v 0.275362 -0.032093 0.407847
v 0.321130 -0.032127 0.405982
v 0.321130 0.099116 0.405982
v 0.298545 0.099116 0.408504
v 0.298545 -0.032127 0.408504
v 0.282263 -0.032113 0.273308
v 0.282263 0.099130 0.273308
v 0.290997 0.099081 0.272239
v 0.290997 -0.032162 0.272239
v 0.342519 -0.032127 0.400668
v 0.342519 0.099116 0.400668
v 0.321130 0.099116 0.405982
v 0.321130 -0.032127 0.405982
v 0.290997 -0.032162 0.272239
v 0.290997 0.099081 0.272239
v 0.295108 0.099065 0.271256
v 0.295108 -0.032179 0.271256
v 0.295108 -0.032179 0.271256
v 0.295108 0.099065 0.271256
v 0.299098 0.099116 0.270025
v 0.299098 -0.032127 0.270025
v 0.362116 -0.032127 0.392947
v 0.362116 0.099116 0.392947
v 0.342519 0.099116 0.400668
v 0.342519 -0.032127 0.400668
v 0.299098 -0.032127 0.270025
v 0.299098 0.099116 0.270025
v 0.303003 0.099116 0.268585
v 0.303003 -0.032127 0.268585
v 0.379323 -0.032127 0.383208
v 0.379323 0.099116 0.383208
v 0.362116 0.099116 0.392947
v 0.362116 -0.032127 0.392947
v 0.393543 -0.032127 0.371836
v 0.393543 0.099116 0.371836
v 0.379323 0.099116 0.383208
v 0.379323 -0.032127 0.383208
v 0.303003 -0.032127 0.268585
v 0.303003 0.099116 0.268585
v 0.310515 0.099116 0.265056
v 0.310515 -0.032127 0.265056
v 0.404408 -0.032127 0.359180
v 0.404408 0.099116 0.359180
v 0.393543 0.099116 0.371836
v 0.393543 -0.032127 0.371836
v 0.413020 -0.032127 0.345311
v 0.413020 0.099116 0.345311
v 0.404408 0.099116 0.359180
v 0.404408 -0.032127 0.359180
v 0.310515 -0.032127 0.265056
v 0.310515 0.099116 0.265056
v 0.313812 0.099116 0.262669
v 0.313812 -0.032127 0.262669
v 0.419804 -0.032127 0.330339
v 0.419804 0.099116 0.330339
v 0.413020 0.099116 0.345311
v 0.413020 -0.032127 0.345311
v 0.313812 -0.032127 0.262669
v 0.313812 0.099116 0.262669
v 0.316766 0.099116 0.259824
v 0.316766 -0.032127 0.259824
v 0.424988 -0.032127 0.314402
v 0.424988 0.099116 0.314402
v 0.419804 0.099116 0.330339
v 0.419804 -0.032127 0.330339
v -0.257283 -0.025512 0.003401
v -0.257283 0.105731 0.003401
v -0.282734 0.105731 0.006133
v -0.282734 -0.025512 0.006133
v -0.325594 -0.025512 0.005549
v -0.325594 0.105731 0.005549
v -0.349727 0.105731 0.002343
v -0.349727 -0.025512 0.002343
v -0.133930 -0.025511 -0.060864
v -0.133930 0.105732 -0.060864
v -0.150816 0.105732 -0.045874
v -0.150816 -0.025511 -0.045874
v -0.363695 -0.025514 -0.142638
v -0.363695 0.105729 -0.142638
v -0.361748 0.105729 -0.140549
v -0.361748 -0.025514 -0.140549
v 0.053803 0.027048 -0.043650
v 0.053803 0.158291 -0.043650
v 0.058366 0.158645 -0.045228
v 0.058366 0.027402 -0.045228
v 0.442130 0.042414 0.035118
v 0.329465 0.042414 0.035118
v 0.329465 0.060950 0.035118
v 0.442130 0.060950 0.035118
v 0.442130 0.060950 0.035118
v 0.329465 0.060950 0.035118
v 0.329465 0.060950 0.031386
v 0.442130 0.060950 0.031386
v 0.442130 0.060950 0.031386
v 0.329465 0.060950 0.031386
v 0.329465 0.042414 0.031386
v 0.442130 0.042414 0.031386
v 0.442130 0.042414 0.031386
v 0.329465 0.042414 0.031386
v 0.329465 0.042414 0.035118
v 0.442130 0.042414 0.035118
vn -0.8741 -0.0000 -0.4858
vn -0.0000 0.0001 -1.0000
vn -0.0000 -0.0000 -1.0000
vn -0.0037 0.0047 -1.0000
vn -0.0037 0.0048 -1.0000
vn -0.0121 0.0051 -0.9999
vn -0.0122 0.0051 -0.9999
vn 0.0023 -0.0000 -1.0000
vn 0.0021 -0.0000 -1.0000
vn 0.0023 -0.0001 -1.0000
vn 0.0030 -0.0000 -1.0000
vn 0.0029 -0.0001 -1.0000
vn 0.0031 -0.0000 -1.0000
vn 0.0035 -0.0000 -1.0000
vn 0.0026 -0.0041 1.0000
vn 0.0053 -0.0032 1.0000
vn 0.0053 -0.0031 1.0000
vn -0.0000 -0.0000 1.0000
vn -0.0001 -0.0000 1.0000
vn 0.0002 -0.0000 1.0000
vn -0.0008 -0.0000 1.0000
vn -0.0009 -0.0000 1.0000
vn -0.0010 -0.0000 1.0000
vn -0.0014 -0.0000 1.0000
vn -0.0011 -0.0000 1.0000
vn -0.0195 -0.0000 0.9998
vn 0.0821 -0.0000 0.9966
vn 0.1303 -0.0000 0.9915
vn -0.1753 -0.0000 -0.9845
vn 0.0746 -0.0000 -0.9972
vn -0.2547 -0.0000 -0.9670
vn 0.1947 -0.0000 0.9809
vn 0.1416 -0.0000 -0.9899
vn -0.0780 -0.0000 0.9970
vn 0.2298 -0.0000 -0.9732
vn -0.1382 -0.0000 0.9904
vn -0.3381 -0.0000 -0.9411
vn 0.2605 -0.0000 0.9655
vn 0.2878 -0.0000 -0.9577
vn -0.2091 -0.0000 0.9779
vn 0.3471 -0.0000 -0.9378
vn -0.2859 -0.0000 0.9582
vn 0.4224 -0.0000 -0.9064
vn -0.3636 -0.0000 0.9315
vn 0.4908 -0.0000 -0.8712
vn 0.4909 -0.0000 -0.8712
vn -0.4379 -0.0000 0.8990
vn 0.5363 -0.0000 -0.8440
vn 0.5839 -0.0000 -0.8118
vn -0.5057 -0.0000 0.8627
vn -0.5853 -0.0000 0.8108
vn 0.6563 -0.0000 -0.7545
vn 0.7311 -0.0000 -0.6823
vn -0.6804 -0.0000 0.7329
vn -0.7671 -0.0000 0.6416
vn 0.8184 -0.0000 -0.5746
vn -0.8409 -0.0000 0.5412
vn -0.8994 -0.0000 0.4370
vn 0.8860 -0.0000 -0.4636
vn -0.9424 -0.0000 0.3344
vn 0.9332 -0.0000 -0.3595
vn -0.9714 -0.0000 0.2375
vn 0.9629 -0.0000 -0.2699
vn -0.9854 -0.0000 0.1700
vn 0.9768 -0.0000 -0.2143
vn 0.9852 -0.0000 -0.1713
vn 0.9896 -0.0000 -0.1439
vn -0.9941 -0.0000 0.1081
vn -0.9987 -0.0000 0.0513
vn -0.9999 -0.0000 0.0166
vn -0.9999 -0.0000 0.0165
vn -1.0000 -0.0000 -0.0000
vn -0.9998 -0.0000 -0.0178
vn -0.9995 -0.0000 -0.0328
vn -0.9983 -0.0000 -0.0580
vn -0.9953 -0.0000 -0.0971
vn 0.9981 -0.0000 -0.0623
vn 1.0000 -0.0000 0.0028
vn 0.9968 -0.0000 0.0797
vn 0.9927 -0.0000 0.1208
vn 0.9789 -0.0000 0.2043
vn 0.3293 -0.0000 0.9442
vn -0.4665 -0.0000 -0.8845
vn 0.9464 -0.0000 0.3230
vn 0.4029 -0.0000 0.9152
vn -0.5934 -0.0000 -0.8049
vn 0.4833 -0.0000 0.8754
vn -0.6721 -0.0000 -0.7404
vn 0.5726 -0.0000 0.8198
vn -0.7438 -0.0000 -0.6684
vn -0.7438 -0.0000 -0.6685
vn 0.6717 -0.0000 0.7408
vn 0.7303 -0.0000 0.6832
vn 0.7577 -0.0000 0.6526
vn -0.8065 -0.0000 -0.5912
vn -0.8596 -0.0000 -0.5110
vn 0.8025 -0.0000 0.5966
vn -0.9027 -0.0000 -0.4302
vn 0.8559 -0.0000 0.5172
vn 0.9084 -0.0000 0.4181
vn -0.9500 -0.0000 -0.3124
vn 0.9520 -0.0000 0.3062
vn 0.9818 -0.0000 0.1898
vn -0.9860 -0.0000 -0.1668
vn 0.9970 -0.0000 0.0772
vn -0.9993 -0.0000 -0.0387
vn 0.9997 -0.0000 -0.0258
vn 0.9997 -0.0000 -0.0259
vn 0.9920 -0.0000 -0.1264
vn -0.9913 -0.0000 0.1317
vn -0.9526 -0.0000 0.3044
vn -0.9526 -0.0000 0.3043
vn 0.9697 -0.0000 -0.2443
vn 0.9121 -0.0000 -0.4099
vn -0.8987 -0.0000 0.4386
vn 0.8428 -0.0000 -0.5383
vn -0.8011 -0.0000 0.5985
vn 0.7287 -0.0000 -0.6848
vn 0.5970 -0.0000 -0.8022
vn -0.6872 -0.0000 0.7265
vn 0.4596 -0.0000 -0.8881
vn -0.5657 -0.0000 0.8246
vn 0.3256 -0.0000 -0.9455
vn -0.4717 -0.0000 0.8818
vn 0.2102 -0.0000 -0.9777
vn -0.3855 -0.0000 0.9227
vn -0.2814 -0.0000 0.9596
vn 0.0580 -0.0000 -0.9983
vn -0.1883 -0.0000 0.9821
vn -0.0152 -0.0000 -0.9999
vn -0.1032 -0.0000 0.9947
vn 0.0257 -0.0000 0.9997
vn -0.2414 -0.0000 -0.9704
vn 0.1967 -0.0000 0.9805
vn -0.3786 -0.0000 -0.9256
vn 0.3139 -0.0000 0.9495
vn -0.5014 -0.0000 -0.8652
vn 0.4173 -0.0000 0.9088
vn 0.5358 -0.0000 0.8444
vn -0.6002 -0.0000 -0.7998
vn 0.6335 -0.0000 0.7738
vn -0.7410 -0.0000 -0.6715
vn 0.7142 -0.0000 0.7000
vn 0.7818 -0.0000 0.6235
vn -0.8131 -0.0000 -0.5822
vn 0.8399 -0.0000 0.5428
vn 0.8910 -0.0000 0.4540
vn -0.9250 -0.0000 -0.3800
vn 0.9264 -0.0000 0.3765
vn -0.9516 -0.0000 -0.3075
vn -0.9466 -0.0000 -0.3223
vn 0.9450 -0.0000 0.3270
vn 0.9486 -0.0000 0.3164
vn 0.9418 -0.0000 0.3361
vn 0.9506 -0.0000 0.3104
vn -0.9204 -0.0000 -0.3910
vn -0.8649 -0.0000 -0.5019
vn 0.8782 -0.0000 0.4784
vn -0.8179 -0.0000 -0.5754
vn 0.7806 -0.0000 0.6251
vn -0.7629 -0.0000 -0.6465
vn -0.7227 -0.0000 -0.6912
vn 0.6658 -0.0000 0.7461
vn -0.6796 -0.0000 -0.7336
vn -0.6337 -0.0000 -0.7736
vn 0.5448 -0.0000 0.8386
vn -0.5325 -0.0000 -0.8465
vn 0.4258 -0.0000 0.9048
vn -0.3310 -0.0000 -0.9436
vn 0.3135 -0.0000 0.9496
vn 0.2096 -0.0000 0.9778
vn -0.1438 -0.0000 -0.9896
vn 0.1136 -0.0000 0.9935
vn -0.0226 -0.0000 -0.9997
vn 0.0243 -0.0000 0.9997
vn 0.0901 -0.0000 -0.9959
vn -0.0831 -0.0000 0.9965
vn 0.2875 -0.0000 -0.9578
vn -0.2106 -0.0000 0.9776
vn -0.3300 -0.0000 0.9440
vn 0.5048 -0.0000 -0.8632
vn -0.4387 -0.0000 0.8987
vn -0.5356 -0.0000 0.8445
vn 0.6243 -0.0000 -0.7812
vn -0.6217 -0.0000 0.7833
vn 0.7030 -0.0000 -0.7112
vn -0.6988 -0.0000 0.7153
vn 0.7770 -0.0000 -0.6294
vn -0.7697 -0.0000 0.6384
vn 0.8431 -0.0000 -0.5378
vn -0.8381 -0.0000 0.5456
vn -0.9017 -0.0000 0.4324
vn 0.8983 -0.0000 -0.4393
vn -0.9381 -0.0000 0.3465
vn 0.9412 -0.0000 -0.3377
vn -0.9694 -0.0000 0.2453
vn 0.9715 -0.0000 -0.2369
vn -0.9880 -0.0000 0.1546
vn 0.9902 -0.0000 -0.1400
vn -0.9958 -0.0000 0.0915
vn -0.9958 -0.0000 0.0916
vn -0.9976 -0.0000 0.0691
vn 0.9988 -0.0000 -0.0494
vn -0.9999 -0.0000 -0.0122
vn -0.9999 -0.0000 -0.0121
vn -0.9993 -0.0000 -0.0379
vn -0.9981 -0.0000 -0.0620
vn -0.9946 -0.0000 -0.1037
vn 1.0000 -0.0000 0.0021
vn 1.0000 -0.0000 0.0022
vn 0.9998 -0.0000 0.0216
vn 0.9971 -0.0000 0.0766
vn 0.9886 -0.0000 0.1506
vn 0.9697 -0.0000 0.2442
vn 0.9453 -0.0000 0.3262
vn 0.9220 -0.0000 0.3872
vn 0.8921 -0.0000 0.4519
vn -0.9868 -0.0000 -0.1620
vn 0.8758 -0.0000 0.4827
vn 0.8546 -0.0000 0.5193
vn -0.9690 -0.0000 -0.2469
vn 0.7822 -0.0000 0.6230
vn -0.9265 -0.0000 -0.3763
vn -0.8543 -0.0000 -0.5197
vn -0.7655 -0.0000 -0.6435
vn -0.6910 -0.0000 -0.7228
vn -0.5705 -0.0000 -0.8213
vn -0.4574 -0.0000 -0.8893
vn 0.6925 -0.0000 0.7214
vn -0.4099 -0.0000 -0.9121
vn -0.3915 -0.0000 -0.9202
vn 0.6233 -0.0000 0.7820
vn -0.3364 -0.0000 -0.9417
vn -0.2967 -0.0000 -0.9550
vn -0.2762 -0.0000 -0.9611
vn -0.2663 -0.0000 -0.9639
vn -0.2591 -0.0000 -0.9658
vn -0.2690 -0.0000 -0.9631
vn -0.2691 -0.0000 -0.9631
vn -0.3104 -0.0000 -0.9506
vn 0.5487 -0.0000 0.8360
vn 0.4707 -0.0000 0.8823
vn 0.3921 -0.0000 0.9199
vn 0.2596 -0.0000 0.9657
vn 0.2935 -0.0000 0.9560
vn 0.2934 -0.0000 0.9560
vn 0.3197 -0.0000 0.9475
vn 0.3620 -0.0000 0.9322
vn -0.4859 -0.0000 -0.8740
vn -0.6036 -0.0000 -0.7973
vn 0.4246 -0.0000 0.9054
vn -0.7115 -0.0000 -0.7027
vn 0.4935 -0.0000 0.8698
vn -0.9885 -0.0000 -0.1512
vn -0.8067 -0.0000 -0.5909
vn 0.5674 -0.0000 0.8234
vn -0.9751 -0.0000 -0.2218
vn 0.7817 -0.0000 0.6237
vn 0.6440 -0.0000 0.7650
vn -0.8865 -0.0000 -0.4628
vn 0.7195 -0.0000 0.6945
vn 0.7896 -0.0000 0.6136
vn -0.9480 -0.0000 -0.3183
vn 0.8503 -0.0000 0.5262
vn 0.9016 -0.0000 0.4325
vn 0.9478 -0.0000 0.3187
vn 0.9771 -0.0000 0.2128
vn -0.9876 -0.0000 -0.1570
vn 0.9937 -0.0000 0.1125
vn 0.9999 -0.0000 0.0126
vn -0.9998 -0.0000 0.0211
vn 0.9959 -0.0000 -0.0907
vn 0.9798 -0.0000 -0.2001
vn -0.9769 -0.0000 0.2138
vn 0.9485 -0.0000 -0.3167
vn 0.8981 -0.0000 -0.4398
vn 0.8245 -0.0000 -0.5658
vn -0.9104 -0.0000 0.4136
vn 0.7059 -0.0000 -0.7083
vn 0.5607 -0.0000 -0.8280
vn 0.4285 -0.0000 -0.9035
vn -0.7953 -0.0000 0.6062
vn 0.3112 -0.0000 -0.9503
vn -0.6356 -0.0000 0.7720
vn 0.2054 -0.0000 -0.9787
vn 0.1064 -0.0000 -0.9943
vn -0.4477 -0.0000 0.8942
vn -0.4476 -0.0000 0.8942
vn 0.0088 -0.0000 -1.0000
vn -0.2538 -0.0000 0.9672
vn -0.0928 -0.0000 -0.9957
vn 0.0112 -0.0000 0.9999
vn -0.2045 -0.0000 -0.9789
vn 0.2172 -0.0000 0.9761
vn -0.3273 -0.0000 -0.9449
vn -0.3544 -0.0000 -0.9351
vn -0.3351 -0.0000 -0.9422
vn 0.3264 -0.0000 0.9452
vn 0.3263 -0.0000 0.9453
vn 0.3536 -0.0000 0.9354
vn 0.3153 -0.0000 0.9490
vn 0.2923 -0.0000 0.9563
vn 0.2631 -0.0000 0.9648
vn 0.2268 -0.0000 0.9739
vn 0.1828 -0.0000 0.9832
vn -0.2835 -0.0000 -0.9590
vn -0.2101 -0.0000 -0.9777
vn -0.1385 -0.0000 -0.9904
vn -0.0824 -0.0000 -0.9966
vn -0.0204 -0.0000 -0.9998
vn 0.1297 -0.0000 0.9915
vn 0.0466 -0.0000 -0.9989
vn 0.0667 -0.0000 0.9978
vn -0.0074 -0.0000 1.0000
vn 0.1401 -0.0000 -0.9901
vn 0.1874 -0.0000 -0.9823
vn -0.0931 -0.0000 0.9957
vn -0.1899 -0.0000 0.9818
vn -0.2962 -0.0000 0.9551
vn -0.4081 -0.0000 0.9129
vn -0.5202 -0.0000 0.8540
vn 0.2566 -0.0000 -0.9665
vn 0.3219 -0.0000 -0.9468
vn 0.4086 -0.0000 -0.9127
vn 0.5588 -0.0000 -0.8293
vn -0.5623 -0.0000 0.8270
vn -0.3232 -0.0000 0.9463
vn 0.5050 -0.0000 -0.8631
vn 0.3404 -0.0000 -0.9403
vn -0.1942 -0.0000 0.9810
vn 0.1792 -0.0000 -0.9838
vn -0.0400 -0.0000 0.9992
vn 0.0283 -0.0000 -0.9996
vn -0.1110 -0.0000 -0.9938
vn 0.1214 -0.0000 0.9926
vn -0.2411 -0.0000 -0.9705
vn 0.2326 -0.0000 0.9726
vn 0.2948 -0.0000 0.9555
vn -0.3665 -0.0000 -0.9304
vn 0.3460 -0.0000 0.9382
vn -0.4926 -0.0000 -0.8703
vn -0.6246 -0.0000 -0.7810
vn 0.4252 -0.0000 0.9051
vn -0.7587 -0.0000 -0.6514
vn -0.8495 -0.0000 -0.5275
vn 0.5864 -0.0000 0.8100
vn -0.9109 -0.0000 -0.4127
vn 0.6937 -0.0000 0.7203
vn -0.9510 -0.0000 -0.3093
vn -0.1067 -0.0000 -0.9943
vn 0.1317 -0.0000 -0.9913
vn -0.6639 -0.0000 -0.7478
vn -0.7315 -0.0000 0.6819
vn 0.3268 -0.0000 0.9451
vn -0.0000 1.0000 -0.0000
vn -0.0000 -1.0000 -0.0000
vt 0.000000 0.000000
vt 0.035283 0.973512
vt 0.035274 0.802075
vt 0.875859 0.802075
vt 0.875849 0.973512
vt 0.035288 0.992464
vt 0.875844 0.992464
vt 0.860416 0.554970
vt 0.860414 0.726395
vt 0.019855 0.726395
vt 0.019852 0.554970
vt 0.035273 0.783126
vt 0.875859 0.783126
s 1
usemtl 24_-_Default
f 3/1/1 2/1/1 1/1/1
f 4/1/1 3/1/1 1/1/1
f 7/1/2 6/1/3 5/1/3
f 8/1/3 7/1/2 5/1/3
f 9/1/4 7/1/2 8/1/3
f 10/1/5 9/1/4 8/1/3
f 11/1/6 9/1/4 10/1/5
f 12/1/7 11/1/6 10/1/5
f 5/1/3 6/1/3 13/1/3
f 6/1/3 14/1/3 13/1/3
f 13/1/3 14/1/3 15/1/3
f 14/1/3 16/1/3 15/1/3
f 15/1/3 16/1/3 17/1/3
f 16/1/3 18/1/3 17/1/3
f 17/1/3 18/1/3 19/1/3
f 18/1/3 20/1/3 19/1/3
f 19/1/3 20/1/3 21/1/8
f 20/1/3 22/1/8 21/1/8
f 21/1/8 22/1/8 23/1/8
f 22/1/8 24/1/9 23/1/8
f 23/1/8 24/1/9 25/1/10
f 24/1/9 26/1/11 25/1/10
f 25/1/10 26/1/11 27/1/12
f 26/1/11 28/1/13 27/1/12
f 27/1/12 28/1/13 29/1/14
f 28/1/13 30/1/14 29/1/14
f 33/1/15 32/1/15 31/1/15
f 34/1/15 33/1/15 31/1/15
f 31/1/15 32/1/15 35/1/16
f 32/1/15 36/1/17 35/1/16
f 37/1/18 33/1/15 34/1/15
f 38/1/18 37/1/18 34/1/15
f 39/1/18 37/1/18 38/1/18
f 40/1/18 39/1/18 38/1/18
f 41/1/18 39/1/18 40/1/18
f 42/1/18 41/1/18 40/1/18
f 43/1/18 41/1/18 42/1/18
f 44/1/18 43/1/18 42/1/18
f 45/1/18 43/1/18 44/1/18
f 46/1/18 45/1/18 44/1/18
f 47/1/19 45/1/18 46/1/18
f 48/1/20 47/1/19 46/1/18
f 49/1/21 47/1/19 48/1/20
f 50/1/22 49/1/21 48/1/20
f 51/1/23 49/1/21 50/1/22
f 52/1/22 51/1/23 50/1/22
f 53/1/24 51/1/23 52/1/22
f 54/1/25 53/1/24 52/1/22
f 55/1/24 53/1/24 54/1/25
f 56/1/24 55/1/24 54/1/25
f 57/1/26 55/1/24 56/1/24
f 58/1/26 57/1/26 56/1/24
f 59/1/26 57/1/26 58/1/26
f 60/1/26 59/1/26 58/1/26
f 63/1/27 62/1/27 61/1/27
f 64/1/27 63/1/27 61/1/27
f 67/1/28 66/1/28 65/1/28
f 68/1/28 67/1/28 65/1/28
f 71/1/29 70/1/29 69/1/29
f 72/1/29 71/1/29 69/1/29
f 75/1/30 74/1/30 73/1/30
f 76/1/30 75/1/30 73/1/30
f 73/1/30 74/1/30 77/1/30
f 74/1/30 78/1/30 77/1/30
f 81/1/31 80/1/31 79/1/31
f 82/1/31 81/1/31 79/1/31
f 85/1/32 84/1/32 83/1/32
f 86/1/32 85/1/32 83/1/32
f 89/1/33 88/1/33 87/1/33
f 90/1/33 89/1/33 87/1/33
f 93/1/34 92/1/34 91/1/34
f 94/1/34 93/1/34 91/1/34
f 97/1/35 96/1/35 95/1/35
f 98/1/35 97/1/35 95/1/35
f 101/1/36 100/1/36 99/1/36
f 102/1/36 101/1/36 99/1/36
f 105/1/37 104/1/37 103/1/37
f 106/1/37 105/1/37 103/1/37
f 109/1/38 108/1/38 107/1/38
f 110/1/38 109/1/38 107/1/38
f 113/1/39 112/1/39 111/1/39
f 114/1/39 113/1/39 111/1/39
f 117/1/40 116/1/40 115/1/40
f 118/1/40 117/1/40 115/1/40
f 121/1/41 120/1/41 119/1/41
f 122/1/41 121/1/41 119/1/41
f 125/1/42 124/1/42 123/1/42
f 126/1/42 125/1/42 123/1/42
f 129/1/43 128/1/43 127/1/43
f 130/1/43 129/1/43 127/1/43
f 133/1/44 132/1/44 131/1/44
f 134/1/44 133/1/44 131/1/44
f 137/1/45 136/1/45 135/1/46
f 138/1/46 137/1/45 135/1/46
f 141/1/47 140/1/47 139/1/47
f 142/1/47 141/1/47 139/1/47
f 145/1/48 144/1/48 143/1/48
f 146/1/48 145/1/48 143/1/48
f 149/1/49 148/1/49 147/1/49
f 150/1/49 149/1/49 147/1/49
f 153/1/50 152/1/50 151/1/50
f 154/1/50 153/1/50 151/1/50
f 157/1/51 156/1/51 155/1/51
f 158/1/51 157/1/51 155/1/51
f 161/1/52 160/1/52 159/1/52
f 162/1/52 161/1/52 159/1/52
f 165/1/53 164/1/53 163/1/53
f 166/1/53 165/1/53 163/1/53
f 169/1/54 168/1/54 167/1/54
f 170/1/54 169/1/54 167/1/54
f 173/1/55 172/1/55 171/1/55
f 174/1/55 173/1/55 171/1/55
f 177/1/56 176/1/56 175/1/56
f 178/1/56 177/1/56 175/1/56
f 181/1/57 180/1/57 179/1/57
f 182/1/57 181/1/57 179/1/57
f 185/1/58 184/1/58 183/1/58
f 186/1/58 185/1/58 183/1/58
f 189/1/59 188/1/59 187/1/59
f 190/1/59 189/1/59 187/1/59
f 193/1/60 192/1/60 191/1/60
f 194/1/60 193/1/60 191/1/60
f 197/1/61 196/1/61 195/1/61
f 198/1/61 197/1/61 195/1/61
f 201/1/62 200/1/62 199/1/62
f 202/1/62 201/1/62 199/1/62
f 205/1/63 204/1/63 203/1/63
f 206/1/63 205/1/63 203/1/63
f 209/1/64 208/1/64 207/1/64
f 210/1/64 209/1/64 207/1/64
f 213/1/65 212/1/65 211/1/65
f 214/1/65 213/1/65 211/1/65
f 211/1/65 212/1/65 215/1/66
f 212/1/65 216/1/66 215/1/66
f 215/1/66 216/1/66 217/1/67
f 216/1/66 218/1/67 217/1/67
f 221/1/68 220/1/68 219/1/68
f 222/1/68 221/1/68 219/1/68
f 225/1/69 224/1/69 223/1/69
f 226/1/69 225/1/69 223/1/69
f 227/1/70 225/1/69 226/1/69
f 228/1/71 227/1/70 226/1/69
f 229/1/72 227/1/70 228/1/71
f 230/1/72 229/1/72 228/1/71
f 231/1/73 229/1/72 230/1/72
f 232/1/73 231/1/73 230/1/72
f 233/1/74 231/1/73 232/1/73
f 234/1/74 233/1/74 232/1/73
f 235/1/75 233/1/74 234/1/74
f 236/1/75 235/1/75 234/1/74
f 237/1/76 235/1/75 236/1/75
f 238/1/76 237/1/76 236/1/75
f 241/1/77 240/1/77 239/1/77
f 242/1/77 241/1/77 239/1/77
f 245/1/78 244/1/78 243/1/78
f 246/1/78 245/1/78 243/1/78
f 249/1/79 248/1/79 247/1/79
f 250/1/79 249/1/79 247/1/79
f 247/1/79 248/1/79 251/1/80
f 248/1/79 252/1/80 251/1/80
f 255/1/81 254/1/81 253/1/81
f 256/1/81 255/1/81 253/1/81
f 259/1/82 258/1/82 257/1/82
f 260/1/82 259/1/82 257/1/82
f 263/1/83 262/1/83 261/1/83
f 264/1/83 263/1/83 261/1/83
f 267/1/84 266/1/84 265/1/84
f 268/1/84 267/1/84 265/1/84
f 271/1/85 270/1/85 269/1/85
f 272/1/85 271/1/85 269/1/85
f 275/1/86 274/1/86 273/1/86
f 276/1/86 275/1/86 273/1/86
f 279/1/87 278/1/87 277/1/87
f 280/1/87 279/1/87 277/1/87
f 283/1/88 282/1/88 281/1/88
f 284/1/88 283/1/88 281/1/88
f 287/1/89 286/1/89 285/1/89
f 288/1/89 287/1/89 285/1/89
f 291/1/90 290/1/90 289/1/91
f 292/1/91 291/1/90 289/1/91
f 295/1/92 294/1/92 293/1/92
f 296/1/92 295/1/92 293/1/92
f 299/1/93 298/1/93 297/1/93
f 300/1/93 299/1/93 297/1/93
f 297/1/93 298/1/93 301/1/94
f 298/1/93 302/1/94 301/1/94
f 305/1/95 304/1/95 303/1/95
f 306/1/95 305/1/95 303/1/95
f 309/1/96 308/1/96 307/1/96
f 310/1/96 309/1/96 307/1/96
f 313/1/97 312/1/97 311/1/97
f 314/1/97 313/1/97 311/1/97
f 317/1/98 316/1/98 315/1/98
f 318/1/98 317/1/98 315/1/98
f 321/1/99 320/1/99 319/1/99
f 322/1/99 321/1/99 319/1/99
f 325/1/100 324/1/100 323/1/100
f 326/1/100 325/1/100 323/1/100
f 329/1/101 328/1/101 327/1/101
f 330/1/101 329/1/101 327/1/101
f 333/1/102 332/1/102 331/1/102
f 334/1/102 333/1/102 331/1/102
f 337/1/103 336/1/103 335/1/103
f 338/1/103 337/1/103 335/1/103
f 341/1/104 340/1/104 339/1/104
f 342/1/104 341/1/104 339/1/104
f 345/1/105 344/1/105 343/1/105
f 346/1/105 345/1/105 343/1/105
f 349/1/106 348/1/106 347/1/106
f 350/1/106 349/1/106 347/1/106
f 353/1/107 352/1/107 351/1/107
f 354/1/108 353/1/107 351/1/107
f 357/1/109 356/1/109 355/1/109
f 358/1/109 357/1/109 355/1/109
f 361/1/110 360/1/110 359/1/110
f 362/1/110 361/1/110 359/1/110
f 365/1/111 364/1/111 363/1/112
f 366/1/112 365/1/111 363/1/112
f 369/1/113 368/1/113 367/1/113
f 370/1/113 369/1/113 367/1/113
f 373/1/114 372/1/114 371/1/114
f 374/1/114 373/1/114 371/1/114
f 377/1/115 376/1/115 375/1/115
f 378/1/115 377/1/115 375/1/115
f 381/1/116 380/1/116 379/1/116
f 382/1/116 381/1/116 379/1/116
f 385/1/117 384/1/117 383/1/117
f 386/1/117 385/1/117 383/1/117
f 389/1/118 388/1/118 387/1/118
f 390/1/118 389/1/118 387/1/118
f 393/1/119 392/1/119 391/1/119
f 394/1/119 393/1/119 391/1/119
f 397/1/120 396/1/120 395/1/120
f 398/1/120 397/1/120 395/1/120
f 401/1/121 400/1/121 399/1/121
f 402/1/121 401/1/121 399/1/121
f 405/1/122 404/1/122 403/1/122
f 406/1/122 405/1/122 403/1/122
f 409/1/123 408/1/123 407/1/123
f 410/1/123 409/1/123 407/1/123
f 413/1/124 412/1/124 411/1/124
f 414/1/124 413/1/124 411/1/124
f 417/1/125 416/1/125 415/1/125
f 418/1/125 417/1/125 415/1/125
f 421/1/126 420/1/126 419/1/126
f 422/1/126 421/1/126 419/1/126
f 425/1/127 424/1/127 423/1/127
f 426/1/127 425/1/127 423/1/127
f 429/1/128 428/1/128 427/1/128
f 430/1/128 429/1/128 427/1/128
f 433/1/129 432/1/129 431/1/129
f 434/1/129 433/1/129 431/1/129
f 437/1/130 436/1/130 435/1/130
f 438/1/130 437/1/130 435/1/130
f 441/1/131 440/1/131 439/1/131
f 442/1/131 441/1/131 439/1/131
f 445/1/132 444/1/132 443/1/132
f 446/1/132 445/1/132 443/1/132
f 449/1/133 448/1/133 447/1/133
f 450/1/133 449/1/133 447/1/133
f 453/1/134 452/1/134 451/1/134
f 454/1/134 453/1/134 451/1/134
f 457/1/135 456/1/135 455/1/135
f 458/1/135 457/1/135 455/1/135
f 461/1/136 460/1/136 459/1/136
f 462/1/136 461/1/136 459/1/136
f 465/1/137 464/1/137 463/1/137
f 466/1/137 465/1/137 463/1/137
f 469/1/138 468/1/138 467/1/138
f 470/1/138 469/1/138 467/1/138
f 473/1/139 472/1/139 471/1/139
f 474/1/139 473/1/139 471/1/139
f 477/1/140 476/1/140 475/1/140
f 478/1/140 477/1/140 475/1/140
f 481/1/141 480/1/141 479/1/141
f 482/1/141 481/1/141 479/1/141
f 485/1/142 484/1/142 483/1/142
f 486/1/142 485/1/142 483/1/142
f 489/1/143 488/1/143 487/1/143
f 490/1/143 489/1/143 487/1/143
f 493/1/144 492/1/144 491/1/144
f 494/1/144 493/1/144 491/1/144
f 497/1/145 496/1/145 495/1/145
f 498/1/145 497/1/145 495/1/145
f 501/1/146 500/1/146 499/1/146
f 502/1/146 501/1/146 499/1/146
f 505/1/147 504/1/147 503/1/147
f 506/1/147 505/1/147 503/1/147
f 509/1/148 508/1/148 507/1/148
f 510/1/148 509/1/148 507/1/148
f 507/1/148 508/1/148 511/1/148
f 508/1/148 512/1/148 511/1/148
f 515/1/149 514/1/149 513/1/149
f 516/1/149 515/1/149 513/1/149
f 513/1/149 514/1/149 517/1/149
f 514/1/149 518/1/149 517/1/149
f 521/1/150 520/1/150 519/1/150
f 522/1/150 521/1/150 519/1/150
f 519/1/150 520/1/150 523/1/151
f 520/1/150 524/1/151 523/1/151
f 523/1/151 524/1/151 525/1/151
f 524/1/151 526/1/151 525/1/151
f 529/1/152 528/1/152 527/1/152
f 530/1/152 529/1/152 527/1/152
f 531/1/153 529/1/152 530/1/152
f 532/1/153 531/1/153 530/1/152
f 533/1/153 531/1/153 532/1/153
f 534/1/153 533/1/153 532/1/153
f 535/1/154 533/1/153 534/1/153
f 536/1/154 535/1/154 534/1/153
f 527/1/152 528/1/152 537/1/155
f 528/1/152 538/1/155 537/1/155
f 537/1/155 538/1/155 539/1/155
f 538/1/155 540/1/155 539/1/155
f 543/1/156 542/1/156 541/1/156
f 544/1/156 543/1/156 541/1/156
f 541/1/156 542/1/156 545/1/156
f 542/1/156 546/1/156 545/1/156
f 549/1/157 548/1/157 547/1/157
f 550/1/157 549/1/157 547/1/157
f 553/1/158 552/1/158 551/1/158
f 554/1/158 553/1/158 551/1/158
f 557/1/159 556/1/159 555/1/159
f 558/1/159 557/1/159 555/1/159
f 561/1/160 560/1/160 559/1/160
f 562/1/160 561/1/160 559/1/160
f 565/1/161 564/1/161 563/1/161
f 566/1/161 565/1/161 563/1/161
f 569/1/162 568/1/162 567/1/162
f 570/1/162 569/1/162 567/1/162
f 573/1/163 572/1/163 571/1/163
f 574/1/163 573/1/163 571/1/163
f 577/1/164 576/1/164 575/1/164
f 578/1/164 577/1/164 575/1/164
f 581/1/165 580/1/165 579/1/165
f 582/1/165 581/1/165 579/1/165
f 585/1/166 584/1/166 583/1/166
f 586/1/166 585/1/166 583/1/166
f 589/1/167 588/1/167 587/1/167
f 590/1/167 589/1/167 587/1/167
f 593/1/168 592/1/168 591/1/168
f 594/1/168 593/1/168 591/1/168
f 597/1/169 596/1/169 595/1/169
f 598/1/169 597/1/169 595/1/169
f 601/1/170 600/1/170 599/1/170
f 602/1/170 601/1/170 599/1/170
f 605/1/171 604/1/171 603/1/171
f 606/1/171 605/1/171 603/1/171
f 609/1/172 608/1/172 607/1/172
f 610/1/172 609/1/172 607/1/172
f 613/1/173 612/1/173 611/1/173
f 614/1/173 613/1/173 611/1/173
f 617/1/174 616/1/174 615/1/174
f 618/1/174 617/1/174 615/1/174
f 621/1/175 620/1/175 619/1/175
f 622/1/175 621/1/175 619/1/175
f 625/1/176 624/1/176 623/1/176
f 626/1/176 625/1/176 623/1/176
f 629/1/177 628/1/177 627/1/177
f 630/1/177 629/1/177 627/1/177
f 633/1/178 632/1/178 631/1/178
f 634/1/178 633/1/178 631/1/178
f 637/1/179 636/1/179 635/1/179
f 638/1/179 637/1/179 635/1/179
f 641/1/180 640/1/180 639/1/180
f 642/1/180 641/1/180 639/1/180
f 645/1/181 644/1/181 643/1/181
f 646/1/181 645/1/181 643/1/181
f 649/1/182 648/1/182 647/1/182
f 650/1/182 649/1/182 647/1/182
f 653/1/183 652/1/183 651/1/183
f 654/1/183 653/1/183 651/1/183
f 657/1/184 656/1/184 655/1/184
f 658/1/184 657/1/184 655/1/184
f 661/1/185 660/1/185 659/1/185
f 662/1/185 661/1/185 659/1/185
f 665/1/186 664/1/186 663/1/186
f 666/1/186 665/1/186 663/1/186
f 669/1/187 668/1/187 667/1/187
f 670/1/187 669/1/187 667/1/187
f 673/1/188 672/1/188 671/1/188
f 674/1/188 673/1/188 671/1/188
f 677/1/189 676/1/189 675/1/189
f 678/1/189 677/1/189 675/1/189
f 681/1/190 680/1/190 679/1/190
f 682/1/190 681/1/190 679/1/190
f 685/1/191 684/1/191 683/1/191
f 686/1/191 685/1/191 683/1/191
f 689/1/192 688/1/192 687/1/192
f 690/1/192 689/1/192 687/1/192
f 693/1/193 692/1/193 691/1/193
f 694/1/193 693/1/193 691/1/193
f 697/1/194 696/1/194 695/1/194
f 698/1/194 697/1/194 695/1/194
f 701/1/195 700/1/195 699/1/195
f 702/1/195 701/1/195 699/1/195
f 705/1/196 704/1/196 703/1/196
f 706/1/196 705/1/196 703/1/196
f 709/1/197 708/1/197 707/1/197
f 710/1/197 709/1/197 707/1/197
f 713/1/198 712/1/198 711/1/198
f 714/1/198 713/1/198 711/1/198
f 717/1/199 716/1/199 715/1/199
f 718/1/199 717/1/199 715/1/199
f 721/1/200 720/1/201 719/1/201
f 722/1/201 721/1/200 719/1/201
f 723/1/202 721/1/200 722/1/201
f 724/1/202 723/1/202 722/1/201
f 727/1/203 726/1/203 725/1/203
f 728/1/203 727/1/203 725/1/203
f 731/1/72 730/1/72 729/1/72
f 732/1/72 731/1/72 729/1/72
f 733/1/204 731/1/72 732/1/72
f 734/1/205 733/1/204 732/1/72
f 735/1/206 733/1/204 734/1/205
f 736/1/206 735/1/206 734/1/205
f 737/1/207 735/1/206 736/1/206
f 738/1/207 737/1/207 736/1/206
f 739/1/208 737/1/207 738/1/207
f 740/1/208 739/1/208 738/1/207
f 743/1/209 742/1/210 741/1/210
f 744/1/209 743/1/209 741/1/210
f 741/1/210 742/1/210 745/1/211
f 742/1/210 746/1/211 745/1/211
f 749/1/212 748/1/212 747/1/212
f 750/1/212 749/1/212 747/1/212
f 753/1/213 752/1/213 751/1/213
f 754/1/213 753/1/213 751/1/213
f 757/1/214 756/1/214 755/1/214
f 758/1/214 757/1/214 755/1/214
f 761/1/215 760/1/215 759/1/215
f 762/1/215 761/1/215 759/1/215
f 765/1/216 764/1/216 763/1/216
f 766/1/216 765/1/216 763/1/216
f 769/1/217 768/1/217 767/1/217
f 770/1/217 769/1/217 767/1/217
f 773/1/218 772/1/218 771/1/218
f 774/1/218 773/1/218 771/1/218
f 777/1/219 776/1/219 775/1/219
f 778/1/219 777/1/219 775/1/219
f 781/1/220 780/1/220 779/1/220
f 782/1/220 781/1/220 779/1/220
f 785/1/221 784/1/221 783/1/221
f 786/1/221 785/1/221 783/1/221
f 789/1/222 788/1/222 787/1/222
f 790/1/222 789/1/222 787/1/222
f 793/1/223 792/1/223 791/1/223
f 794/1/223 793/1/223 791/1/223
f 797/1/224 796/1/224 795/1/224
f 798/1/224 797/1/224 795/1/224
f 801/1/225 800/1/225 799/1/225
f 802/1/225 801/1/225 799/1/225
f 805/1/226 804/1/226 803/1/226
f 806/1/226 805/1/226 803/1/226
f 809/1/227 808/1/227 807/1/227
f 810/1/227 809/1/227 807/1/227
f 813/1/228 812/1/228 811/1/228
f 814/1/228 813/1/228 811/1/228
f 817/1/229 816/1/229 815/1/229
f 818/1/229 817/1/229 815/1/229
f 821/1/230 820/1/230 819/1/230
f 822/1/230 821/1/230 819/1/230
f 823/1/231 821/1/230 822/1/230
f 824/1/231 823/1/231 822/1/230
f 827/1/232 826/1/232 825/1/232
f 828/1/232 827/1/232 825/1/232
f 831/1/233 830/1/233 829/1/233
f 832/1/233 831/1/233 829/1/233
f 833/1/234 831/1/233 832/1/233
f 834/1/234 833/1/234 832/1/233
f 835/1/235 833/1/234 834/1/234
f 836/1/235 835/1/235 834/1/234
f 837/1/236 835/1/235 836/1/235
f 838/1/236 837/1/236 836/1/235
f 839/1/237 837/1/236 838/1/236
f 840/1/237 839/1/237 838/1/236
f 841/1/238 839/1/237 840/1/237
f 842/1/238 841/1/238 840/1/237
f 843/1/239 841/1/238 842/1/238
f 844/1/239 843/1/239 842/1/238
f 845/1/240 843/1/239 844/1/239
f 846/1/240 845/1/240 844/1/239
f 849/1/241 848/1/241 847/1/241
f 850/1/241 849/1/241 847/1/241
f 853/1/242 852/1/242 851/1/242
f 854/1/242 853/1/242 851/1/242
f 857/1/243 856/1/243 855/1/243
f 858/1/243 857/1/243 855/1/243
f 861/1/244 860/1/244 859/1/244
f 862/1/244 861/1/244 859/1/244
f 859/1/244 860/1/244 863/1/245
f 860/1/244 864/1/246 863/1/245
f 863/1/245 864/1/246 865/1/247
f 864/1/246 866/1/247 865/1/247
f 866/1/247 867/1/248 865/1/247
f 867/1/248 868/1/248 865/1/247
f 871/1/249 870/1/249 869/1/249
f 872/1/249 871/1/249 869/1/249
f 875/1/250 874/1/250 873/1/250
f 876/1/250 875/1/250 873/1/250
f 879/1/251 878/1/251 877/1/251
f 880/1/251 879/1/251 877/1/251
f 883/1/252 882/1/252 881/1/252
f 884/1/252 883/1/252 881/1/252
f 887/1/253 886/1/253 885/1/253
f 888/1/253 887/1/253 885/1/253
f 891/1/254 890/1/254 889/1/254
f 892/1/254 891/1/254 889/1/254
f 895/1/255 894/1/255 893/1/255
f 896/1/255 895/1/255 893/1/255
f 899/1/256 898/1/256 897/1/256
f 900/1/256 899/1/256 897/1/256
f 903/1/257 902/1/257 901/1/257
f 904/1/257 903/1/257 901/1/257
f 907/1/258 906/1/258 905/1/258
f 908/1/258 907/1/258 905/1/258
f 911/1/259 910/1/259 909/1/259
f 912/1/259 911/1/259 909/1/259
f 915/1/260 914/1/260 913/1/260
f 916/1/260 915/1/260 913/1/260
f 919/1/261 918/1/261 917/1/261
f 920/1/261 919/1/261 917/1/261
f 923/1/262 922/1/262 921/1/262
f 924/1/262 923/1/262 921/1/262
f 927/1/263 926/1/263 925/1/263
f 928/1/263 927/1/263 925/1/263
f 931/1/264 930/1/264 929/1/264
f 932/1/264 931/1/264 929/1/264
f 935/1/265 934/1/265 933/1/265
f 936/1/265 935/1/265 933/1/265
f 939/1/266 938/1/266 937/1/266
f 940/1/266 939/1/266 937/1/266
f 943/1/267 942/1/267 941/1/267
f 944/1/267 943/1/267 941/1/267
f 947/1/268 946/1/268 945/1/268
f 948/1/268 947/1/268 945/1/268
f 951/1/269 950/1/269 949/1/269
f 952/1/269 951/1/269 949/1/269
f 955/1/270 954/1/270 953/1/270
f 956/1/270 955/1/270 953/1/270
f 959/1/271 958/1/271 957/1/271
f 960/1/271 959/1/271 957/1/271
f 963/1/272 962/1/272 961/1/272
f 964/1/272 963/1/272 961/1/272
f 967/1/273 966/1/273 965/1/273
f 968/1/273 967/1/273 965/1/273
f 971/1/274 970/1/274 969/1/274
f 972/1/274 971/1/274 969/1/274
f 975/1/275 974/1/275 973/1/275
f 976/1/275 975/1/275 973/1/275
f 979/1/276 978/1/276 977/1/276
f 980/1/276 979/1/276 977/1/276
f 983/1/277 982/1/277 981/1/277
f 984/1/277 983/1/277 981/1/277
f 987/1/278 986/1/278 985/1/278
f 988/1/278 987/1/278 985/1/278
f 991/1/279 990/1/279 989/1/279
f 992/1/279 991/1/279 989/1/279
f 995/1/280 994/1/280 993/1/280
f 996/1/280 995/1/280 993/1/280
f 999/1/281 998/1/281 997/1/281
f 1000/1/281 999/1/281 997/1/281
f 1003/1/282 1002/1/282 1001/1/282
f 1004/1/282 1003/1/282 1001/1/282
f 1007/1/283 1006/1/283 1005/1/283
f 1008/1/283 1007/1/283 1005/1/283
f 1011/1/284 1010/1/284 1009/1/284
f 1012/1/284 1011/1/284 1009/1/284
f 1015/1/285 1014/1/285 1013/1/285
f 1016/1/285 1015/1/285 1013/1/285
f 1019/1/286 1018/1/286 1017/1/286
f 1020/1/286 1019/1/286 1017/1/286
f 1023/1/287 1022/1/287 1021/1/288
f 1024/1/288 1023/1/287 1021/1/288
f 1027/1/289 1026/1/289 1025/1/289
f 1028/1/289 1027/1/289 1025/1/289
f 1031/1/290 1030/1/290 1029/1/290
f 1032/1/290 1031/1/290 1029/1/290
f 1035/1/291 1034/1/291 1033/1/291
f 1036/1/291 1035/1/291 1033/1/291
f 1039/1/292 1038/1/292 1037/1/292
f 1040/1/292 1039/1/292 1037/1/292
f 1043/1/293 1042/1/293 1041/1/293
f 1044/1/293 1043/1/293 1041/1/293
f 1047/1/294 1046/1/294 1045/1/294
f 1048/1/294 1047/1/294 1045/1/294
f 1051/1/295 1050/1/295 1049/1/295
f 1052/1/295 1051/1/295 1049/1/295
f 1049/1/295 1050/1/295 1053/1/296
f 1050/1/295 1054/1/296 1053/1/296
f 1053/1/296 1054/1/296 1055/1/297
f 1054/1/296 1056/1/297 1055/1/297
f 1059/1/298 1058/1/299 1057/1/299
f 1060/1/299 1059/1/298 1057/1/299
f 1061/1/300 1059/1/298 1060/1/299
f 1062/1/300 1061/1/300 1060/1/299
f 1063/1/301 1061/1/300 1062/1/300
f 1064/1/301 1063/1/301 1062/1/300
f 1065/1/302 1063/1/301 1064/1/301
f 1066/1/302 1065/1/302 1064/1/301
f 1067/1/302 1065/1/302 1066/1/302
f 1068/1/302 1067/1/302 1066/1/302
f 1069/1/303 1067/1/302 1068/1/302
f 1070/1/303 1069/1/303 1068/1/302
f 1071/1/303 1069/1/303 1070/1/303
f 1072/1/303 1071/1/303 1070/1/303
f 1073/1/304 1071/1/303 1072/1/303
f 1074/1/304 1073/1/304 1072/1/303
f 1075/1/305 1073/1/304 1074/1/304
f 1076/1/305 1075/1/305 1074/1/304
f 1079/1/306 1078/1/306 1077/1/306
f 1080/1/306 1079/1/306 1077/1/306
f 1077/1/306 1078/1/306 1081/1/306
f 1078/1/306 1082/1/306 1081/1/306
f 1085/1/307 1084/1/307 1083/1/307
f 1086/1/307 1085/1/307 1083/1/307
f 1083/1/307 1084/1/307 1087/1/307
f 1084/1/307 1088/1/307 1087/1/307
f 1091/1/308 1090/1/308 1089/1/308
f 1092/1/308 1091/1/308 1089/1/308
f 1095/1/309 1094/1/309 1093/1/309
f 1096/1/309 1095/1/309 1093/1/309
f 1099/1/310 1098/1/310 1097/1/310
f 1100/1/310 1099/1/310 1097/1/310
f 1103/1/311 1102/1/311 1101/1/311
f 1104/1/311 1103/1/311 1101/1/311
f 1107/1/312 1106/1/312 1105/1/312
f 1108/1/312 1107/1/312 1105/1/312
f 1111/1/313 1110/1/313 1109/1/313
f 1112/1/313 1111/1/313 1109/1/313
f 1115/1/314 1114/1/314 1113/1/314
f 1116/1/314 1115/1/314 1113/1/314
f 1113/1/314 1114/1/314 1117/1/314
f 1114/1/314 1118/1/314 1117/1/314
f 1121/1/315 1120/1/315 1119/1/315
f 1122/1/315 1121/1/315 1119/1/315
f 1119/1/315 1120/1/315 1123/1/316
f 1120/1/315 1124/1/316 1123/1/316
f 1127/1/317 1126/1/317 1125/1/317
f 1128/1/317 1127/1/317 1125/1/317
f 1125/1/317 1126/1/317 1129/1/317
f 1126/1/317 1130/1/317 1129/1/317
f 1133/1/318 1132/1/318 1131/1/318
f 1134/1/318 1133/1/318 1131/1/318
f 1137/1/319 1136/1/319 1135/1/319
f 1138/1/319 1137/1/319 1135/1/319
f 1141/1/320 1140/1/320 1139/1/320
f 1142/1/320 1141/1/320 1139/1/320
f 1145/1/321 1144/1/321 1143/1/321
f 1146/1/321 1145/1/321 1143/1/321
f 1143/1/321 1144/1/321 1147/1/321
f 1144/1/321 1148/1/321 1147/1/321
f 1151/1/322 1150/1/322 1149/1/322
f 1152/1/322 1151/1/322 1149/1/322
f 1149/1/322 1150/1/322 1153/1/322
f 1150/1/322 1154/1/322 1153/1/322
f 1157/1/323 1156/1/323 1155/1/323
f 1158/1/323 1157/1/323 1155/1/323
f 1155/1/323 1156/1/323 1159/1/323
f 1156/1/323 1160/1/323 1159/1/323
f 1159/1/323 1160/1/323 1161/1/323
f 1160/1/323 1162/1/323 1161/1/323
f 1165/1/324 1164/1/324 1163/1/324
f 1166/1/324 1165/1/324 1163/1/324
f 1163/1/324 1164/1/324 1167/1/324
f 1164/1/324 1168/1/324 1167/1/324
f 1171/1/325 1170/1/325 1169/1/325
f 1172/1/325 1171/1/325 1169/1/325
f 1175/1/326 1174/1/326 1173/1/326
f 1176/1/326 1175/1/326 1173/1/326
f 1179/1/327 1178/1/327 1177/1/327
f 1180/1/327 1179/1/327 1177/1/327
f 1183/1/328 1182/1/328 1181/1/328
f 1184/1/328 1183/1/328 1181/1/328
f 1187/1/329 1186/1/329 1185/1/329
f 1188/1/329 1187/1/329 1185/1/329
f 1191/1/330 1190/1/330 1189/1/330
f 1192/1/330 1191/1/330 1189/1/330
f 1195/1/331 1194/1/331 1193/1/331
f 1196/1/331 1195/1/331 1193/1/331
f 1199/1/332 1198/1/332 1197/1/332
f 1200/1/332 1199/1/332 1197/1/332
f 1203/1/333 1202/1/333 1201/1/333
f 1204/1/333 1203/1/333 1201/1/333
f 1207/1/334 1206/1/334 1205/1/334
f 1208/1/334 1207/1/334 1205/1/334
f 1211/1/335 1210/1/335 1209/1/335
f 1212/1/335 1211/1/335 1209/1/335
f 1215/1/336 1214/1/336 1213/1/336
f 1216/1/336 1215/1/336 1213/1/336
f 1219/1/337 1218/1/337 1217/1/337
f 1220/1/337 1219/1/337 1217/1/337
f 1223/1/338 1222/1/338 1221/1/338
f 1224/1/338 1223/1/338 1221/1/338
f 1227/1/339 1226/1/339 1225/1/339
f 1228/1/339 1227/1/339 1225/1/339
f 1231/1/340 1230/1/340 1229/1/340
f 1232/1/340 1231/1/340 1229/1/340
f 1235/1/341 1234/1/341 1233/1/341
f 1236/1/341 1235/1/341 1233/1/341
f 1239/1/342 1238/1/342 1237/1/342
f 1240/1/342 1239/1/342 1237/1/342
f 1243/1/343 1242/1/343 1241/1/343
f 1244/1/343 1243/1/343 1241/1/343
f 1247/1/344 1246/1/344 1245/1/344
f 1248/1/344 1247/1/344 1245/1/344
f 1251/1/345 1250/1/345 1249/1/345
f 1252/1/345 1251/1/345 1249/1/345
f 1255/1/346 1254/1/346 1253/1/346
f 1256/1/346 1255/1/346 1253/1/346
f 1259/1/347 1258/1/347 1257/1/347
f 1260/1/347 1259/1/347 1257/1/347
f 1263/1/348 1262/1/348 1261/1/348
f 1264/1/348 1263/1/348 1261/1/348
f 1267/1/349 1266/1/349 1265/1/349
f 1268/1/349 1267/1/349 1265/1/349
f 1271/1/350 1270/1/350 1269/1/350
f 1272/1/350 1271/1/350 1269/1/350
f 1275/1/351 1274/1/351 1273/1/351
f 1276/1/351 1275/1/351 1273/1/351
f 1279/1/352 1278/1/352 1277/1/352
f 1280/1/352 1279/1/352 1277/1/352
f 1283/1/353 1282/1/353 1281/1/353
f 1284/1/353 1283/1/353 1281/1/353
f 1287/1/354 1286/1/354 1285/1/354
f 1288/1/354 1287/1/354 1285/1/354
usemtl StartPannel_Raceway
f 1291/2/18 1290/3/18 1289/4/18
f 1292/5/18 1291/2/18 1289/4/18
f 1295/6/355 1294/2/355 1293/5/355
f 1296/7/355 1295/6/355 1293/5/355
f 1299/8/3 1298/9/3 1297/10/3
f 1300/11/3 1299/8/3 1297/10/3
f 1303/3/356 1302/12/356 1301/13/356
f 1304/4/356 1303/3/356 1301/13/356
