# Blender 4.2.2 LTS
# www.blender.org
mtllib pista2.mtl
o rrgba.w.007
o rrgba.w.004
o rrgba.w
v 9.429718 -0.347249 0.346235
v 9.429718 -0.446612 0.346235
v 9.429718 -0.347249 0.955380
v 9.429718 -0.446612 0.955380
v 3.449339 -0.347249 0.346235
v 3.449339 -0.446612 0.346235
v 3.449339 -0.347249 0.955380
v 3.449339 -0.446612 0.955380
v 1.166064 -0.352467 0.947853
v 1.166061 -0.352370 0.947846
v 0.910883 -0.352386 0.884051
v 2.255988 0.150661 -6.644871
v 2.220415 0.160194 -6.653152
v 2.255991 0.150461 -6.644864
v 2.220415 0.160194 -6.653152
v 2.185679 0.169503 -6.661240
v 2.255991 0.150461 -6.644864
v 2.185679 0.169503 -6.661240
v 2.219888 0.123382 -6.653483
v 2.255991 0.150461 -6.644864
v 2.256427 0.074119 -6.645200
v 3.020961 0.312207 -6.572015
v 2.950883 0.292735 -6.581120
v 2.951324 0.216145 -6.581451
v 1.357422 -0.352344 0.373912
v 1.366229 -0.341896 0.336420
v 1.357424 -0.352418 0.373919
v 1.357827 -0.428918 0.373564
v 1.357424 -0.352418 0.373919
v 1.368169 -0.367112 0.328712
v 1.373886 -0.332812 0.303822
v 1.373886 -0.332812 0.303822
v 1.166064 -0.352467 0.947853
v 1.161870 -0.343360 0.981541
v 1.166061 -0.352370 0.947846
v 1.166501 -0.428929 0.947515
v 1.162814 -0.390638 0.975867
v 1.157324 -0.333588 1.018085
v 1.157324 -0.333588 1.018085
v 3.271477 -0.352322 0.947838
v 3.271477 -0.352308 0.373904
v 1.357422 -0.352344 0.373912
v 1.229768 -0.352333 0.310085
v 0.719501 -0.352393 0.756463
v 1.038317 -0.341685 0.182452
v 0.528105 -0.339094 0.565066
v 0.400516 -0.322576 0.373682
v 0.914712 -0.030397 -5.624089
v 0.518925 0.044928 -6.006752
v 0.401043 0.002085 -5.815375
v 1.042612 -0.010601 -5.751765
v 0.704519 0.088124 -6.198144
v 0.897710 0.109317 -6.325726
v 1.294762 0.027436 -5.815590
v 1.221752 0.108956 -6.389521
v 2.002013 0.124269 -6.389521
v 2.188438 0.191466 -5.815590
v 2.128997 0.137465 -6.453360
v 2.626421 0.278674 -6.006969
v 2.192497 0.144061 -6.517202
v 2.754528 0.288857 -6.134560
v 2.255988 0.150661 -6.644871
v 2.952446 0.366469 -9.266298
v 2.250902 0.409259 -9.582405
v 3.016261 0.400768 -9.519239
v 2.314700 0.452143 -9.898495
v 3.080086 0.417914 -9.645739
v 2.442286 0.477883 -10.088135
v 2.633681 0.503618 -10.277788
v 3.143929 0.426477 -9.709001
v 2.825058 0.520783 -10.404218
v 3.271600 0.440276 -9.772257
v 3.144042 0.538268 -10.467435
v 3.526900 0.461971 -9.771873
v 3.782060 0.545711 -10.473102
v 3.973431 0.550229 -10.409338
v 3.654569 0.466936 -9.708064
v 4.164819 0.555863 -10.281806
v 3.973645 0.487562 -9.389132
v 4.611439 0.555545 -9.835388
v 4.739029 0.566268 -9.644092
v 5.058156 1.118778 -2.561491
v 4.930629 1.118766 -3.454454
v 4.866687 1.118804 -3.454456
v 5.249521 1.118793 -2.689069
v 5.058298 1.118748 -3.518289
v 6.142813 1.056157 -3.582361
v 5.760171 1.066859 -4.220161
v 6.270483 1.046682 -3.646195
v 5.951560 1.050031 -4.347754
v 6.142933 1.046677 -4.411544
v 6.844797 1.069334 -4.411544
v 7.227561 1.076163 -3.646195
v 7.036262 1.069320 -4.475365
v 7.418924 1.076179 -3.773771
v 7.227710 1.069312 -4.602997
v 8.950247 0.952138 -5.305091
v 8.376246 0.943141 -5.751534
v 9.141628 0.952151 -5.687850
v 8.503889 0.916284 -6.006815
v 9.141632 0.952153 -6.772501
v 8.503884 0.916280 -6.453520
v 8.440064 0.903574 -6.644998
v 9.077840 0.952150 -6.963861
v 7.993367 0.878770 -7.091697
v 8.057060 0.848047 -7.857070
v 7.801888 0.884205 -7.155523
v 7.865648 0.859989 -7.857070
v 7.674274 0.900559 -7.155523
v 7.482903 0.918156 -7.219312
v 7.610361 0.862344 -7.920891
v 7.291515 0.933542 -7.346905
v 7.482709 0.860020 -8.048545
v 6.844894 0.962311 -7.793527
v 7.355058 0.854230 -8.240017
v 6.717304 0.972500 -7.984911
v 6.653515 0.980134 -8.176285
v 7.355060 0.851974 -8.367706
v 6.653515 0.976407 -8.559077
v 7.418889 0.833586 -8.559183
v 6.717310 0.974262 -8.878062
v 6.844897 0.974303 -9.069441
v 7.546575 0.813596 -8.686865
v 7.036292 0.960808 -9.260836
v 7.227671 0.946906 -9.388420
v 7.546655 0.917018 -9.452219
v 7.801898 0.786671 -8.686866
v 7.993258 0.849298 -9.452219
v 8.184617 0.798693 -9.388428
v 8.376027 0.739682 -9.197019
v 8.057168 0.761549 -8.495435
v 8.503695 0.705662 -9.133187
v 8.758931 0.752080 -8.431643
v 8.631375 0.681055 -9.133188
v 9.014112 0.740041 -8.495435
v 8.759061 0.669895 -9.197029
v 9.396891 0.730942 -8.814421
v 8.886725 0.661863 -9.388526
v 9.588269 0.694337 -9.643842
v 8.886723 0.676746 -9.643781
v 8.950524 0.694254 -9.962762
v 9.078104 0.694261 -10.154143
v 9.715938 0.694318 -9.835349
v 9.269499 0.694270 -10.345539
v 9.460883 0.694281 -10.473123
v 9.779864 0.694295 -10.536920
v 10.673178 0.681991 -9.899178
v 11.183515 0.694318 -10.473125
v 10.928335 0.694303 -10.536920
v 10.864664 0.672745 -9.771523
v 11.374896 0.695781 -10.345539
v 11.502480 0.696328 -10.217956
v 11.630062 0.697242 -9.962787
v 10.992322 0.662727 -9.580042
v 11.630062 0.594305 -7.983617
v 10.928507 0.594219 -7.983541
v 11.566273 0.579797 -7.792810
v 10.864685 0.584560 -7.856255
v 10.992035 0.536295 -7.220220
v 10.418052 0.550725 -7.410906
v 10.864399 0.521805 -7.029317
v 10.354258 0.536218 -7.220098
v 10.800587 0.502476 -6.774780
v 10.800584 0.405915 -3.071759
v 10.354262 0.405822 -2.497552
v 10.864405 0.405914 -2.816490
v 10.992038 0.405909 -2.625036
v 10.545643 0.405829 -2.114791
v 11.630381 0.405837 -1.986693
v 11.757674 0.405921 -7.538041
v 11.630382 0.405829 -7.538038
v 11.757677 0.405919 -1.859399
v 12.013180 0.405830 -0.647253
v 12.842402 0.405910 -0.774669
v 12.140816 0.405824 -0.455805
v 12.906195 0.405915 -0.647096
v 12.204633 0.405822 -0.264341
v 12.969990 0.405915 -0.391908
v 12.140781 0.405843 0.118650
v 12.906195 0.405912 0.501300
v 12.969985 0.405915 0.246112
v 12.842402 0.405905 0.628873
v 12.651022 0.405892 0.820255
v 12.523450 0.405880 0.884041
v 12.268259 0.405870 0.947838
v 10.992229 0.405857 0.310097
v 10.992225 0.405845 0.820226
v 11.119839 0.405845 0.947838
v 10.354171 0.405857 0.310097
v 10.354166 0.405845 0.820226
v 10.226557 0.405857 0.437710
v 10.226553 0.405845 0.692614
v 9.269563 0.405831 0.437710
v 9.269559 0.405817 0.692614
v 11.119843 0.405857 0.182486
v 11.949279 0.405868 0.182486
v 12.204637 0.405826 -0.009054
v 10.418056 0.405824 -2.306178
v 10.992320 0.613547 -8.238065
v 9.907438 0.694296 -9.899180
v 9.588269 0.694340 -9.260984
v 9.524482 0.715486 -9.005801
v 9.205493 0.733509 -8.623023
v 8.312329 0.764948 -8.431640
v 7.929566 0.762251 -8.623031
v 8.248417 0.848065 -7.793283
v 9.077836 0.952144 -5.496478
v 4.547783 1.118757 -2.561491
v 4.356425 1.118740 -2.625278
v 4.101246 1.118729 -2.880456
v 2.884384 0.288191 -6.325943
v 2.437269 0.247293 -5.879382
v 0.387400 -0.008799 -5.735654
v 0.401052 0.002084 -5.815379
v 0.679910 -0.020169 -5.694914
v 0.679910 -0.020169 -5.694914
v 0.899287 -0.036226 -5.592145
v 0.948570 -0.324049 0.046837
v 0.925639 -0.319902 0.010945
v 0.400516 -0.322576 0.373682
v 0.974493 -0.328681 0.086717
v 1.038317 -0.341685 0.182452
v 0.377100 -0.303814 0.236151
v 0.688073 -0.281217 -0.170909
v 0.369872 -0.293146 0.141443
v 0.400516 -0.322576 0.373682
v 0.384575 -0.312589 0.309913
v 0.908683 -0.315942 -0.016982
v 0.400516 -0.322576 0.373682
v 0.925639 -0.319902 0.010945
v 0.688073 -0.281217 -0.170909
v 0.363143 -0.278699 0.004864
v 0.369872 -0.293146 0.141443
v 0.688073 -0.281217 -0.170909
v 0.608101 -0.031338 -5.545988
v 0.374130 -0.017888 -5.552471
v 0.367682 -0.021531 -5.409162
v 0.341017 -0.070963 -3.225804
v 0.341017 -0.070963 -3.225804
v 0.864566 -0.048118 -4.940093
v 0.608101 -0.031338 -5.545988
v 0.380728 -0.013523 -5.654410
v 0.608101 -0.031338 -5.545988
v 0.387400 -0.008799 -5.735654
v 0.608101 -0.031338 -5.545988
v 0.608101 -0.031338 -5.545988
v 0.884441 -0.040885 -5.458027
v 0.891806 -0.038674 -5.535296
v 0.899287 -0.036226 -5.592145
v 0.608101 -0.031338 -5.545988
v 0.608101 -0.031338 -5.545988
v 0.899287 -0.036226 -5.592145
v 0.679910 -0.020169 -5.694914
v 0.877303 -0.042625 -5.339882
v 0.608101 -0.031338 -5.545988
v 0.877303 -0.042625 -5.339882
v 0.864566 -0.048118 -4.940093
v 0.852318 -0.073872 -3.809029
v 0.864566 -0.048118 -4.940093
v 0.341017 -0.070963 -3.225804
v 0.341017 -0.070963 -3.225804
v 0.849959 -0.134584 -2.310083
v 0.852318 -0.073872 -3.809029
v 0.861806 -0.242280 -0.692999
v 0.688073 -0.281217 -0.170909
v 0.867165 -0.263270 -0.462446
v 0.688073 -0.281217 -0.170909
v 0.873272 -0.281125 -0.293208
v 0.688073 -0.281217 -0.170909
v 0.351678 -0.238164 -0.435792
v 0.363143 -0.278699 0.004864
v 0.861806 -0.242280 -0.692999
v 0.351678 -0.238164 -0.435792
v 0.688073 -0.281217 -0.170909
v 0.873272 -0.281125 -0.293208
v 0.688073 -0.281217 -0.170909
v 0.880002 -0.294277 -0.175061
v 0.887232 -0.305171 -0.097785
v 0.896334 -0.311664 -0.049160
v 0.688073 -0.281217 -0.170909
v 0.908683 -0.315942 -0.016982
v 0.896334 -0.311664 -0.049160
v 0.351678 -0.238164 -0.435792
v 0.861806 -0.242280 -0.692999
v 0.339975 -0.119004 -2.155061
v 0.861806 -0.242280 -0.692999
v 0.849959 -0.134584 -2.310083
v 0.339975 -0.119004 -2.155061
v 0.339975 -0.119004 -2.155061
v 0.849959 -0.134584 -2.310083
v 0.341017 -0.070963 -3.225804
v 3.271918 -0.428901 0.373574
v 3.341560 -0.332489 0.303803
v 3.271917 -0.428908 0.947508
v 3.341563 -0.333115 1.018109
v 1.368169 -0.367112 0.328712
v 2.251342 0.332718 -9.582733
v 2.180606 0.428060 -9.589311
v 2.315139 0.375600 -9.898823
v 2.248578 0.471056 -9.926021
v 2.442725 0.401335 -10.088464
v 2.387844 0.496933 -10.133014
v 2.634120 0.427066 -10.278118
v 2.589105 0.522763 -10.332444
v 2.825497 0.444224 -10.404548
v 2.797772 0.540069 -10.470297
v 3.144482 0.461702 -10.467765
v 3.136736 0.557677 -10.537476
v 3.782500 0.469138 -10.473431
v 3.793033 0.565217 -10.543305
v 3.973872 0.473650 -10.409668
v 4.004421 0.569812 -10.472875
v 4.165259 0.479280 -10.282136
v 4.209415 0.575479 -10.336279
v 4.611879 0.478959 -9.835718
v 4.665863 0.575170 -9.880039
v 4.739470 0.489680 -9.644421
v 4.802521 0.585882 -9.675154
v 4.867127 1.042220 -3.454789
v 4.909963 1.138480 -3.524556
v 4.931070 1.042203 -3.454786
v 4.913959 1.138125 -3.524558
v 5.058738 1.042194 -3.518620
v 5.016620 1.137921 -3.575888
v 5.760612 0.990307 -4.220493
v 5.715354 1.086002 -4.274623
v 5.952001 0.973473 -4.348084
v 5.920350 1.069285 -4.411284
v 6.143373 0.970112 -4.411875
v 6.131438 1.066064 -4.481645
v 6.845238 0.992769 -4.411875
v 6.833302 1.088721 -4.481645
v 7.036702 0.992763 -4.475696
v 7.005048 1.088575 -4.538895
v 7.228150 0.992759 -4.603328
v 7.182892 1.088454 -4.657457
v 8.376688 0.866594 -5.751865
v 8.318455 0.962159 -5.793017
v 8.504329 0.839743 -6.007147
v 8.433601 0.935126 -6.023291
v 8.504326 0.839740 -6.453852
v 8.433599 0.935001 -6.442034
v 8.440504 0.827032 -6.645329
v 8.378632 0.922226 -6.606983
v 7.993806 0.802221 -7.092028
v 7.955359 0.897443 -7.030271
v 7.802329 0.807648 -7.155853
v 7.790373 0.902981 -7.085260
v 7.674715 0.824001 -7.155853
v 7.662746 0.919334 -7.085260
v 7.483343 0.841605 -7.219642
v 7.451660 0.936856 -7.155632
v 7.291955 0.856995 -7.347234
v 7.246679 0.952209 -7.292295
v 6.845335 0.885767 -7.793856
v 6.790237 0.980969 -7.748746
v 6.717744 0.895959 -7.985240
v 6.653584 0.991170 -7.953734
v 6.653955 0.903594 -8.176615
v 6.583230 0.998854 -8.164820
v 6.653955 0.899866 -8.559408
v 6.583229 0.995207 -8.565941
v 6.717750 0.897718 -8.878392
v 6.651108 0.993173 -8.905356
v 6.845337 0.897755 -9.069772
v 6.790251 0.993351 -9.114072
v 7.036733 0.884255 -9.261168
v 6.991477 0.979950 -9.315297
v 7.228111 0.870348 -9.388751
v 7.200200 0.966192 -9.454443
v 7.547095 0.840452 -9.452550
v 7.539638 0.936429 -9.522326
v 7.993696 0.772725 -9.452548
v 8.004622 0.868806 -9.522313
v 8.185055 0.722111 -9.388761
v 8.222520 0.818302 -9.449633
v 8.376464 0.663100 -9.197351
v 8.417585 0.759295 -9.254556
v 8.504132 0.629087 -9.133517
v 8.520245 0.725197 -9.203276
v 8.631815 0.604493 -9.133518
v 8.614738 0.700415 -9.203305
v 8.759501 0.593344 -9.197360
v 8.710899 0.689019 -9.251390
v 8.887165 0.585321 -9.388855
v 8.816444 0.680726 -9.409699
v 8.887163 0.600205 -9.644110
v 8.816438 0.695547 -9.650666
v 8.950964 0.617711 -9.963094
v 8.884327 0.713165 -9.990066
v 9.078544 0.617713 -10.154474
v 9.023458 0.713309 -10.198774
v 9.269939 0.617717 -10.345870
v 9.224684 0.713412 -10.400000
v 9.461323 0.617722 -10.473452
v 9.433403 0.713565 -10.539139
v 9.780304 0.617729 -10.537250
v 9.772814 0.713706 -10.607021
v 10.928775 0.617732 -10.537250
v 10.936873 0.713796 -10.607021
v 11.183954 0.617740 -10.473455
v 11.212229 0.713896 -10.538183
v 11.375338 0.619197 -10.345870
v 11.419508 0.715396 -10.400000
v 11.502919 0.619741 -10.218286
v 11.560059 0.715956 -10.259447
v 11.630502 0.620652 -9.963118
v 11.700151 0.716827 -9.979263
v 11.630502 0.517716 -7.983949
v 11.700143 0.613767 -7.972094
v 11.566714 0.503212 -7.793141
v 11.627469 0.599097 -7.754732
v 10.992476 0.459713 -7.220551
v 11.046412 0.555529 -7.175342
v 10.864841 0.445219 -7.029650
v 10.929409 0.541165 -7.000338
v 10.801026 0.425887 -6.775113
v 10.870669 0.521951 -6.766018
v 10.801023 0.329325 -3.072090
v 10.870669 0.425465 -3.080312
v 10.864844 0.329325 -2.816820
v 10.929443 0.425525 -2.845222
v 10.992477 0.329323 -2.625366
v 11.046478 0.425533 -2.669666
v 11.630822 0.329288 -1.987023
v 11.560089 0.425346 -2.156056
v 11.630822 0.329285 -7.538368
v 11.560094 0.424906 -7.608140
v 11.758115 0.329328 -7.538371
v 11.827758 0.425740 -7.608143
v 11.758117 0.329328 -1.859730
v 11.827761 0.425558 -1.888387
v 12.842843 0.329323 -0.774999
v 12.899982 0.425538 -0.816161
v 12.906634 0.329326 -0.647426
v 12.972314 0.425513 -0.671510
v 12.970428 0.329325 -0.392239
v 13.040072 0.425466 -0.400465
v 12.970425 0.329326 0.245781
v 13.040070 0.425390 0.254835
v 12.906634 0.329325 0.500969
v 12.972316 0.425296 0.525881
v 12.842843 0.329322 0.628543
v 12.899983 0.425170 0.670533
v 12.651462 0.329315 0.819924
v 12.692495 0.425001 0.878021
v 12.523890 0.329310 0.883711
v 12.547846 0.424862 0.950347
v 12.268699 0.329305 0.947507
v 12.276797 0.424751 1.018107
v 11.120278 0.329293 0.947508
v 11.090668 0.424526 1.018106
v 10.992665 0.329293 0.819895
v 10.963053 0.424526 0.890494
v 10.354608 0.329293 0.819895
v 10.324994 0.424526 0.890494
v 10.226993 0.329293 0.692283
v 10.197381 0.424526 0.762882
v 9.269999 0.329280 0.692283
v 9.199273 0.424281 0.762881
v 9.270003 0.329287 0.437379
v 9.199275 0.424907 0.367605
v 10.226997 0.329299 0.437379
v 10.197384 0.425151 0.367606
v 10.354610 0.329299 0.309767
v 10.324998 0.425151 0.239994
v 10.992669 0.329299 0.309767
v 10.963056 0.425151 0.239994
v 11.120282 0.329299 0.182156
v 11.090670 0.425151 0.112383
v 11.949719 0.329303 0.182155
v 11.937787 0.425254 0.112383
v 12.141223 0.329292 0.118320
v 12.090906 0.424971 0.061342
v 12.205076 0.329285 -0.009385
v 12.134350 0.424668 -0.025540
v 12.205072 0.329282 -0.264672
v 12.134347 0.424543 -0.252869
v 12.141256 0.329283 -0.456135
v 12.077103 0.424494 -0.424610
v 12.013620 0.329285 -0.647584
v 11.958537 0.424488 -0.602456
v 10.546083 0.329285 -2.115121
v 10.491000 0.424487 -2.069994
v 10.418494 0.329282 -2.306509
v 10.354342 0.424493 -2.274984
v 10.354702 0.329282 -2.497883
v 10.283975 0.424542 -2.486084
v 10.354699 0.459676 -7.220427
v 10.283974 0.555038 -7.231450
v 10.418491 0.474179 -7.411235
v 10.356652 0.569708 -7.448818
v 10.865124 0.508013 -7.856584
v 10.806957 0.603579 -7.897828
v 10.928946 0.517676 -7.983870
v 10.862210 0.613117 -8.008031
v 10.992761 0.537006 -8.238394
v 10.922034 0.632355 -8.246664
v 10.992763 0.586187 -9.580371
v 10.922032 0.681405 -9.558725
v 10.865106 0.596200 -9.771852
v 10.813938 0.691398 -9.720841
v 10.673617 0.605436 -9.899508
v 10.651814 0.700714 -9.828910
v 9.907878 0.617730 -9.899511
v 9.918723 0.713192 -9.828910
v 9.716378 0.617740 -9.835679
v 9.760878 0.713441 -9.776296
v 9.588710 0.617748 -9.644172
v 9.658354 0.713757 -9.622509
v 9.588710 0.617750 -9.261313
v 9.658354 0.713814 -9.252273
v 9.524920 0.638900 -9.006130
v 9.589530 0.734847 -8.976916
v 9.397329 0.654360 -8.814752
v 9.451336 0.750177 -8.769627
v 9.205933 0.656931 -8.623353
v 9.250107 0.752649 -8.568396
v 9.014553 0.663470 -8.495766
v 9.042824 0.759052 -8.430206
v 8.759371 0.675515 -8.431973
v 8.767460 0.770961 -8.361372
v 8.312770 0.688389 -8.431971
v 8.303586 0.783738 -8.361372
v 8.057609 0.685000 -8.495765
v 8.021187 0.780225 -8.431975
v 7.930007 0.685703 -8.623360
v 7.887863 0.780921 -8.565293
v 7.802339 0.710115 -8.687196
v 7.785173 0.805419 -8.616605
v 7.547014 0.737024 -8.687196
v 7.575535 0.832585 -8.616581
v 7.419328 0.757002 -8.559511
v 7.480142 0.852887 -8.521195
v 7.355500 0.775385 -8.368035
v 7.425145 0.871437 -8.356247
v 7.355498 0.777639 -8.240347
v 7.425140 0.873835 -8.261193
v 7.483150 0.783433 -8.048875
v 7.537144 0.879644 -8.093183
v 7.610800 0.785763 -7.921220
v 7.646140 0.881951 -7.984180
v 7.866088 0.783418 -7.857401
v 7.874198 0.879482 -7.927170
v 8.057501 0.771475 -7.857399
v 8.068358 0.867555 -7.927168
v 8.248857 0.771484 -7.793614
v 8.286207 0.867674 -7.854552
v 9.078281 0.875561 -6.964190
v 9.139076 0.971780 -7.001711
v 9.142073 0.875563 -6.772831
v 9.211716 0.971715 -6.783807
v 9.142068 0.875562 -5.688180
v 9.211714 0.971614 -5.676376
v 9.078276 0.875558 -5.496809
v 9.141347 0.971486 -5.465283
v 8.950687 0.875556 -5.305421
v 9.004691 0.971373 -5.260294
v 7.419364 0.999601 -3.774101
v 7.463539 1.095319 -3.719145
v 7.228000 0.999594 -3.646525
v 7.248714 1.095111 -3.575928
v 6.270923 0.970115 -3.646525
v 6.286951 1.065606 -3.575927
v 6.143252 0.979581 -3.582691
v 6.184286 1.075267 -3.524592
v 5.249961 1.042215 -2.689399
v 5.294136 1.137934 -2.634443
v 5.058596 1.042209 -2.561821
v 5.079305 1.137726 -2.491221
v 4.548223 1.042199 -2.561821
v 4.536293 1.137532 -2.491222
v 4.356865 1.042191 -2.625608
v 4.318411 1.137414 -2.563851
v 4.101686 1.042186 -2.880786
v 4.043464 1.137385 -2.838798
v 3.974084 0.411019 -9.389463
v 3.912230 0.506213 -9.351093
v 3.655008 0.390388 -9.708396
v 3.612920 0.485606 -9.650281
v 3.527340 0.385415 -9.772204
v 3.510207 0.480719 -9.701623
v 3.272040 0.363709 -9.772587
v 3.287900 0.459198 -9.701968
v 3.144371 0.349901 -9.709332
v 3.185166 0.445585 -9.651071
v 3.080528 0.341331 -9.646070
v 3.137492 0.437177 -9.603828
v 3.016703 0.324181 -9.519572
v 3.082305 0.420152 -9.494437
v 2.952887 0.289879 -9.266630
v 3.022525 0.385943 -9.257453
v 1.162814 -0.390638 0.975867
v 4.771359 0.496852 -9.548794
v 4.840658 0.593006 -9.560823
v 4.795285 0.575827 -8.743249
v 4.864925 0.671934 -8.744043
v 4.803260 0.813595 -6.517859
v 4.872904 0.909698 -6.517736
v 4.811236 1.012636 -4.300430
v 4.880876 1.108744 -4.301242
v 4.835164 1.042228 -3.518713
v 4.904299 1.138405 -3.535886
v 4.069811 1.042181 -2.944537
v 3.999569 1.137417 -2.926585
v 4.045885 1.006742 -3.766071
v 3.975163 1.102047 -3.764489
v 4.037909 0.790146 -6.103176
v 3.967183 0.885456 -6.102485
v 4.029933 0.557827 -8.448249
v 3.959210 0.653132 -8.446671
v 4.006006 0.423039 -9.293743
v 3.935612 0.518297 -9.280910
v 1.161870 -0.343360 0.981541
v 4.770918 0.573442 -9.548466
v 4.794845 0.652417 -8.742921
v 4.802820 0.890184 -6.517531
v 4.810797 1.089226 -4.300102
v 4.834723 1.118819 -3.518384
v 4.069371 1.118721 -2.944206
v 4.045445 1.083282 -3.765739
v 4.037469 0.866687 -6.102843
v 4.029493 0.634367 -8.447915
v 4.005567 0.499579 -9.293409
v 0.401491 -0.074458 -5.815707
v 0.680352 -0.096734 -5.695237
v 0.401482 -0.074458 -5.815703
v 0.679910 -0.020169 -5.694914
v 0.401052 0.002084 -5.815379
v 2.220415 0.160194 -6.653152
v 1.366229 -0.341896 0.336420
vn -0.0000 1.0000 -0.0000
vn -0.0000 -1.0000 -0.0000
vn -0.0000 -0.0000 1.0000
vn 1.0000 -0.0000 -0.0000
vn -0.0000 -0.0000 -1.0000
vn -1.0000 -0.0000 -0.0000
vn -0.8674 0.0362 0.4963
vn -0.0816 0.9686 0.2350
vn -0.0001 1.0000 0.0002
vn -0.2186 0.0333 0.9752
vn -0.2189 0.0195 0.9755
vn -0.7548 0.4563 0.4712
vn -0.6810 -0.4022 0.6119
vn -0.2283 -0.0056 0.9736
vn -0.7792 -0.5188 0.3518
vn 0.6608 0.4500 0.6007
vn -0.2547 0.8925 0.3723
vn 0.7377 -0.5703 0.3613
vn -0.9688 -0.0545 -0.2418
vn -0.9683 -0.0532 -0.2439
vn -0.3736 -0.5030 -0.7793
vn -0.9732 -0.0042 -0.2299
vn -0.9732 -0.0044 -0.2299
vn -0.4524 0.5053 -0.7348
vn -0.9928 -0.0338 -0.1151
vn -0.9930 -0.0328 -0.1134
vn -0.3694 -0.5756 0.7295
vn -0.9925 -0.0051 -0.1221
vn -0.8673 0.0362 0.4964
vn -0.5929 0.4553 0.6643
vn -0.1007 0.9899 -0.1002
vn -0.1033 0.9892 0.1039
vn -0.0000 0.9973 0.0736
vn 0.0126 0.9998 0.0145
vn 0.0180 0.9996 0.0204
vn 0.0340 0.9987 0.0392
vn 0.0397 0.9981 0.0462
vn 0.0464 0.9974 0.0551
vn 0.0024 0.9837 0.1799
vn -0.0062 0.9779 0.2090
vn 0.0895 0.9666 0.2401
vn -0.0285 0.9786 0.2039
vn 0.0112 0.9781 0.2079
vn 0.0084 0.9840 0.1781
vn -0.0690 0.9889 0.1320
vn 0.0048 0.9901 0.1400
vn -0.1305 0.9911 -0.0255
vn -0.2034 0.9773 -0.0595
vn -0.1811 0.9803 -0.0792
vn -0.1951 0.9767 -0.0898
vn -0.2027 0.9763 -0.0753
vn -0.1728 0.9795 -0.1040
vn -0.0726 0.9973 0.0113
vn -0.1291 0.9887 0.0759
vn 0.1333 0.9834 0.1228
vn -0.1358 0.9871 0.0850
vn 0.1057 0.9790 0.1741
vn -0.1240 0.9912 0.0474
vn 0.0727 0.9788 0.1915
vn 0.0543 0.9788 0.1974
vn -0.1123 0.9936 0.0117
vn 0.0177 0.9777 0.2094
vn -0.0983 0.9951 -0.0073
vn -0.0148 0.9785 0.2055
vn -0.0389 0.9982 -0.0457
vn -0.0478 0.9805 0.1904
vn -0.1068 0.9804 0.1654
vn -0.0024 0.9978 -0.0667
vn -0.1338 0.9812 0.1394
vn 0.0091 0.9958 -0.0912
vn -0.1556 0.9829 0.0983
vn -0.1897 0.9814 0.0290
vn -0.0434 0.9888 -0.1426
vn 0.0262 0.9938 0.1085
vn -0.0391 0.9972 0.0644
vn -0.0700 0.9904 -0.1188
vn 0.0980 0.9916 0.0840
vn -0.0145 0.9926 -0.1208
vn 0.1432 0.9866 0.0786
vn -0.0077 0.9934 -0.1143
vn 0.1032 0.9884 0.1117
vn 0.0157 0.9893 0.1452
vn 0.0013 0.9929 0.1193
vn -0.0586 0.9883 -0.1407
vn 0.0514 0.9932 0.1049
vn -0.0695 0.9899 -0.1237
vn 0.1107 0.9912 0.0724
vn -0.0915 0.9891 -0.1152
vn 0.1261 0.9920 -0.0050
vn -0.1571 0.9871 -0.0306
vn 0.0912 0.9956 -0.0215
vn -0.1734 0.9845 0.0267
vn 0.0745 0.9963 -0.0432
vn 0.0381 0.9961 -0.0798
vn -0.1701 0.9837 0.0576
vn 0.0440 0.9924 -0.1150
vn 0.0095 0.9912 0.1321
vn 0.0985 0.9874 -0.1238
vn 0.0313 0.9944 0.1009
vn 0.1286 0.9817 -0.1404
vn 0.1415 0.9817 -0.1277
vn -0.0215 0.9986 0.0485
vn 0.1640 0.9796 -0.1165
vn -0.0487 0.9985 0.0262
vn 0.1865 0.9774 -0.0993
vn -0.0152 0.9998 -0.0113
vn 0.2098 0.9760 -0.0581
vn 0.2188 0.9755 -0.0214
vn -0.0160 0.9982 -0.0582
vn 0.2213 0.9751 0.0127
vn 0.0367 0.9955 -0.0869
vn 0.2065 0.9750 0.0826
vn 0.1916 0.9736 0.1241
vn 0.0990 0.9941 -0.0435
vn 0.1847 0.9724 0.1422
vn 0.1525 0.9726 0.1753
vn 0.1354 0.9716 0.1942
vn 0.1688 0.9852 -0.0294
vn 0.1560 0.9631 0.2192
vn 0.1162 0.9621 0.2467
vn 0.1269 0.9715 0.2001
vn 0.0824 0.9859 -0.1455
vn 0.1638 0.9814 0.1005
vn 0.0179 0.9828 -0.1840
vn 0.1455 0.9891 0.0209
vn -0.0406 0.9825 -0.1818
vn 0.0799 0.9967 0.0102
vn -0.1154 0.9830 -0.1427
vn 0.0743 0.9970 0.0203
vn -0.1130 0.9933 -0.0236
vn 0.1220 0.9902 0.0674
vn 0.1227 0.9892 0.0798
vn 0.1079 0.9902 0.0886
vn -0.0604 0.9950 -0.0795
vn 0.0888 0.9901 0.1086
vn 0.0562 0.9891 0.1362
vn 0.0159 0.9896 0.1431
vn 0.0472 0.9957 -0.0798
vn -0.0660 0.9873 0.1443
vn -0.0190 0.9882 0.1518
vn 0.0912 0.9950 -0.0417
vn -0.1035 0.9875 0.1189
vn -0.1326 0.9869 0.0919
vn -0.1553 0.9859 0.0621
vn 0.0934 0.9954 0.0203
vn -0.1505 0.9880 0.0351
vn 0.1024 0.9882 0.1139
vn -0.1457 0.9892 -0.0159
vn 0.0789 0.9879 0.1336
vn -0.1136 0.9934 -0.0167
vn 0.1056 0.9845 0.1397
vn -0.1200 0.9925 0.0233
vn 0.1402 0.9873 0.0750
vn -0.1069 0.9938 0.0297
vn -0.1085 0.9936 0.0320
vn 0.1439 0.9895 -0.0123
vn -0.1096 0.9928 0.0485
vn -0.0983 0.9919 0.0807
vn 0.1057 0.9906 -0.0866
vn 0.0049 0.9999 0.0120
vn -0.1041 0.9892 0.1034
vn 0.0985 0.9900 0.1014
vn -0.0879 0.9955 0.0363
vn 0.0933 0.9927 -0.0765
vn -0.1200 0.9890 0.0866
vn 0.1056 0.9931 -0.0516
vn -0.1354 0.9895 0.0501
vn 0.1136 0.9934 -0.0185
vn -0.1439 0.9894 0.0178
vn 0.0606 0.9957 0.0694
vn -0.1339 0.9898 -0.0493
vn -0.1433 0.9895 -0.0175
vn -0.1179 0.9894 -0.0847
vn -0.0844 0.9896 -0.1166
vn -0.0486 0.9902 -0.1310
vn -0.0172 0.9902 -0.1388
vn 0.0358 0.9956 0.0862
vn 0.0346 0.9959 -0.0834
vn 0.0571 0.9888 -0.1381
vn 0.0590 0.9880 0.1427
vn 0.0357 0.9956 0.0863
vn 0.0345 0.9959 -0.0834
vn 0.0995 0.9900 0.1001
vn 0.0974 0.9906 -0.0961
vn 0.0589 0.9880 0.1427
vn 0.0194 0.9929 0.1176
vn 0.1057 0.9941 0.0248
vn 0.1248 0.9903 -0.0610
vn 0.1203 0.9904 0.0685
vn -0.0103 0.9931 -0.1166
vn -0.1565 0.9860 -0.0583
vn -0.1292 0.9823 -0.1358
vn -0.1000 0.9835 -0.1506
vn 0.0292 0.9843 -0.1742
vn 0.1535 0.9867 -0.0543
vn -0.1075 0.9897 0.0940
vn -0.1344 0.9888 -0.0655
vn 0.0225 0.9900 -0.1396
vn 0.0758 0.9895 -0.1228
vn 0.1140 0.9901 -0.0822
vn -0.1774 0.9814 -0.0736
vn -0.2214 0.9729 -0.0672
vn 0.0897 0.9666 0.2399
vn 0.0212 0.9920 0.1247
vn 0.0834 0.9853 0.1489
vn 0.0252 0.9950 0.0965
vn -0.0099 0.9845 0.1749
vn 0.0516 0.9953 0.0820
vn 0.0554 0.9944 0.0897
vn 0.0553 0.9944 0.0895
vn 0.0585 0.9937 0.0959
vn 0.0715 0.9914 0.1096
vn 0.0777 0.9905 0.1133
vn 0.0674 0.9920 0.1066
vn 0.1023 0.9864 0.1289
vn 0.0957 0.9875 0.1249
vn 0.0699 0.9917 0.1077
vn 0.0745 0.9907 0.1137
vn 0.0649 0.9927 0.1013
vn 0.0756 0.9905 0.1151
vn 0.0628 0.9928 0.1019
vn 0.0549 0.9982 0.0250
vn 0.0562 0.9977 0.0370
vn 0.0548 0.9982 0.0248
vn 0.0540 0.9983 0.0233
vn 0.0197 0.9996 0.0193
vn 0.0514 0.9971 0.0560
vn 0.0563 0.9977 0.0370
vn 0.0531 0.9972 0.0524
vn 0.0486 0.9969 0.0620
vn 0.0265 0.9958 0.0875
vn 0.0247 0.9992 0.0309
vn 0.0273 0.9994 0.0227
vn 0.0244 0.9989 0.0388
vn 0.0241 0.9986 0.0462
vn 0.0244 0.9989 0.0389
vn 0.0309 0.9955 0.0896
vn 0.0293 0.9994 0.0165
vn 0.0273 0.9994 0.0226
vn 0.0301 0.9994 0.0154
vn 0.0306 0.9994 0.0147
vn 0.0303 0.9994 0.0152
vn 0.0320 0.9992 0.0231
vn 0.0519 0.9978 0.0405
vn 0.0460 0.9949 0.0895
vn 0.0499 0.9945 0.0919
vn 0.0671 0.9925 0.1023
vn 0.0564 0.9943 0.0900
vn 0.0546 0.9942 0.0923
vn 0.0698 0.9919 0.1064
vn 0.0709 0.9906 0.1171
vn 0.0700 0.9903 0.1201
vn 0.0738 0.9896 0.1231
vn 0.0757 0.9901 0.1180
vn 0.0875 0.9913 0.0982
vn 0.0427 0.9967 0.0688
vn 0.0505 0.9965 0.0660
vn 0.0441 0.9980 0.0448
vn 0.4947 -0.7149 -0.4941
vn 0.6626 0.3492 -0.6625
vn 0.4937 -0.7191 0.4890
vn 0.6626 0.3448 0.6649
vn -0.4524 0.5054 -0.7348
vn -0.3736 -0.5031 -0.7794
vn -0.0000 -0.5873 -0.8093
vn -0.7906 -0.5962 -0.1394
vn -0.8517 0.5228 -0.0368
vn -0.7123 -0.5991 -0.3656
vn -0.8117 0.5098 -0.2850
vn -0.5838 -0.5921 -0.5555
vn -0.6812 0.5373 -0.4972
vn -0.4713 -0.5919 -0.6538
vn -0.5611 0.5411 -0.6264
vn -0.2746 -0.5959 -0.7547
vn -0.3510 0.5171 -0.7806
vn -0.0648 -0.5895 -0.8052
vn -0.1027 0.5512 -0.8280
vn 0.1346 -0.5924 -0.7943
vn 0.1257 0.5226 -0.8432
vn 0.3659 -0.5893 -0.7203
vn 0.3616 0.5339 -0.7643
vn 0.5178 -0.5874 -0.6219
vn 0.5246 0.5492 -0.6505
vn 0.6335 -0.5874 -0.5035
vn 0.6471 0.5353 -0.5429
vn 0.7391 -0.5884 -0.3278
vn 0.7511 0.5305 -0.3930
vn 0.4000 -0.6480 -0.6481
vn 0.4115 0.7431 -0.5277
vn -0.1851 -0.5988 -0.7793
vn -0.1820 0.6250 -0.7591
vn -0.4842 -0.5960 -0.6406
vn -0.4416 0.6224 -0.6463
vn -0.5368 -0.5932 -0.6000
vn -0.5117 0.5409 -0.6676
vn -0.3731 -0.5943 -0.7124
vn -0.3576 0.5184 -0.7767
vn -0.1239 -0.5939 -0.7949
vn -0.1407 0.5148 -0.8457
vn -0.1187 -0.5936 -0.7960
vn -0.1359 0.6216 -0.7714
vn -0.3540 -0.5935 -0.7227
vn -0.3490 0.6054 -0.7153
vn -0.5298 -0.5933 -0.6061
vn -0.4815 0.6089 -0.6304
vn -0.6829 -0.5971 -0.4208
vn -0.5999 0.6098 -0.5179
vn -0.7833 -0.6035 -0.1489
vn -0.7665 0.6056 -0.2137
vn -0.7850 -0.6013 0.1493
vn -0.7787 0.6200 0.0957
vn -0.6563 -0.6056 0.4499
vn -0.6873 0.6189 0.3802
vn -0.4139 -0.6067 0.6786
vn -0.4158 0.6115 0.6731
vn -0.1792 -0.6006 0.7792
vn -0.0797 0.5826 0.8088
vn -0.1853 -0.5997 0.7785
vn -0.0933 0.5233 0.8470
vn -0.3876 -0.5983 0.7012
vn -0.3417 0.5264 0.7786
vn -0.5314 -0.5979 0.6001
vn -0.5132 0.5363 0.6701
vn -0.6349 -0.5986 0.4884
vn -0.6411 0.5332 0.5520
vn -0.7281 -0.5998 0.3317
vn -0.7565 0.5249 0.3901
vn -0.7901 -0.6009 0.1210
vn -0.8383 0.5259 0.1440
vn -0.7984 -0.5975 -0.0749
vn -0.8409 0.5342 -0.0868
vn -0.7383 -0.6017 -0.3048
vn -0.7954 0.5082 -0.3302
vn -0.6303 -0.5946 -0.4991
vn -0.6405 0.5471 -0.5389
vn -0.5328 -0.5937 -0.6030
vn -0.5147 0.5393 -0.6665
vn -0.3417 -0.5977 -0.7252
vn -0.2991 0.5176 -0.8016
vn -0.1456 -0.5900 -0.7942
vn -0.0232 0.5478 -0.8363
vn 0.0216 -0.5899 -0.8072
vn 0.2138 0.5297 -0.8208
vn 0.3240 -0.5966 -0.7342
vn 0.5382 0.4859 -0.6887
vn 0.3456 -0.5849 -0.7337
vn 0.6165 0.5901 -0.5212
vn 0.0337 -0.5847 -0.8106
vn 0.3603 0.5923 -0.7206
vn -0.2807 -0.5901 -0.7569
vn -0.0890 0.5938 -0.7996
vn -0.5609 -0.6014 -0.5690
vn -0.4811 0.6266 -0.6131
vn -0.7563 -0.6102 -0.2361
vn -0.7512 0.6250 -0.2124
vn -0.7942 -0.5975 -0.1110
vn -0.8425 0.5355 -0.0585
vn -0.7329 -0.6011 -0.3188
vn -0.7944 0.5196 -0.3146
vn -0.6215 -0.5946 -0.5101
vn -0.6523 0.5377 -0.5342
vn -0.5100 -0.5935 -0.6227
vn -0.5346 0.5387 -0.6511
vn -0.3062 -0.5973 -0.7412
vn -0.3290 0.5138 -0.7923
vn -0.0792 -0.5903 -0.8033
vn -0.0831 0.5419 -0.8363
vn 0.0989 -0.5902 -0.8012
vn 0.1026 0.5363 -0.8378
vn 0.3279 -0.5920 -0.7362
vn 0.3436 0.5225 -0.7804
vn 0.5150 -0.5876 -0.6241
vn 0.5297 0.5450 -0.6499
vn 0.6556 -0.5906 -0.4706
vn 0.6886 0.5273 -0.4978
vn 0.7781 -0.5965 -0.1970
vn 0.8350 0.5175 -0.1870
vn 0.8000 -0.5921 0.0967
vn 0.8344 0.5272 0.1608
vn 0.6953 -0.6005 0.3949
vn 0.7216 0.4997 0.4792
vn 0.6455 -0.5915 0.4832
vn 0.5929 0.5963 0.5412
vn 0.7537 -0.5928 0.2838
vn 0.6964 0.6176 0.3655
vn 0.8054 -0.5889 0.0666
vn 0.7943 0.5937 0.1290
vn 0.8008 -0.5893 -0.1069
vn 0.7945 0.6006 -0.0894
vn 0.7374 -0.5915 -0.3261
vn 0.7168 0.6210 -0.3172
vn 0.6258 -0.5875 -0.5131
vn 0.6187 0.6002 -0.5069
vn -0.1783 -0.8856 -0.4288
vn -0.1489 0.9159 -0.3728
vn -0.4882 -0.7205 -0.4925
vn -0.6658 0.3433 -0.6624
vn 0.4951 -0.7153 -0.4932
vn 0.6626 0.3493 -0.6626
vn 0.7277 -0.6163 -0.3012
vn 0.6721 0.6859 -0.2789
vn 0.6546 -0.5906 -0.4719
vn 0.6894 0.5272 -0.4968
vn 0.7585 -0.5882 -0.2807
vn 0.7887 0.5413 -0.2916
vn 0.8018 -0.5893 -0.0989
vn 0.8373 0.5371 -0.1028
vn 0.8013 -0.5902 0.0983
vn 0.8377 0.5363 0.1036
vn 0.7570 -0.5906 0.2796
vn 0.7898 0.5389 0.2929
vn 0.6526 -0.5946 0.4696
vn 0.6909 0.5233 0.4989
vn 0.4698 -0.5965 0.6507
vn 0.4982 0.5215 0.6927
vn 0.2792 -0.5953 0.7534
vn 0.2929 0.5342 0.7930
vn 0.0984 -0.5971 0.7961
vn 0.1032 0.5294 0.8421
vn -0.2976 -0.6265 0.7204
vn -0.3416 0.4536 0.8232
vn -0.2987 -0.6265 0.7199
vn -0.2817 0.6744 0.6825
vn -0.2976 -0.6265 0.7203
vn -0.3417 0.4536 0.8231
vn -0.2820 0.6745 0.6824
vn -0.4869 -0.7247 0.4876
vn -0.6650 0.3392 0.6654
vn -0.4877 -0.7207 -0.4927
vn -0.6651 0.3437 -0.6629
vn -0.3009 -0.6203 -0.7244
vn -0.2784 0.6817 -0.6766
vn -0.2989 -0.6203 -0.7252
vn -0.3410 0.4596 -0.8200
vn -0.3010 -0.6203 -0.7244
vn -0.2785 0.6816 -0.6766
vn -0.3411 0.4596 -0.8200
vn -0.1293 -0.5937 -0.7943
vn -0.1245 0.6153 -0.7784
vn -0.5140 -0.6218 -0.5909
vn -0.4777 0.6798 -0.5565
vn -0.7751 -0.6050 -0.1821
vn -0.7568 0.6286 -0.1791
vn -0.7887 -0.6013 0.1283
vn -0.7846 0.6069 0.1270
vn -0.7184 -0.6003 0.3515
vn -0.7198 0.5983 0.3520
vn -0.6193 -0.5990 0.5077
vn -0.6253 0.5884 0.5127
vn -0.6542 0.5333 0.5363
vn -0.7184 -0.6004 0.3513
vn -0.7651 0.5239 0.3744
vn -0.7898 -0.6014 0.1204
vn -0.8473 0.5113 0.1437
vn -0.7849 -0.6000 -0.1546
vn -0.8519 0.5096 -0.1206
vn -0.6617 -0.6023 -0.4465
vn -0.7491 0.5023 -0.4318
vn -0.6259 -0.5973 -0.5015
vn -0.6732 0.6038 -0.4269
vn -0.7346 -0.5971 -0.3222
vn -0.7715 0.5908 -0.2360
vn -0.7898 -0.5985 -0.1345
vn -0.7950 0.6034 -0.0614
vn -0.7641 -0.6133 0.2003
vn -0.7218 0.6414 0.2600
vn -0.5838 -0.6054 0.5410
vn -0.5321 0.6159 0.5809
vn -0.2504 -0.6138 0.7487
vn -0.1974 0.6509 0.7330
vn 0.1223 -0.5993 0.7912
vn 0.1335 0.6123 0.7792
vn 0.4788 -0.6130 0.6285
vn 0.4572 0.6614 0.5946
vn 0.7617 -0.6051 0.2315
vn 0.7238 0.6545 0.2185
vn 0.7985 -0.5901 0.1192
vn 0.8492 0.5204 0.0902
vn 0.7206 -0.5932 0.3590
vn 0.7917 0.5225 0.3165
vn 0.6109 -0.5911 0.5266
vn 0.6582 0.5505 0.5136
vn 0.5028 -0.5930 0.6289
vn 0.5413 0.5353 0.6484
vn 0.3074 -0.5980 0.7402
vn 0.3598 0.5139 0.7788
vn 0.0789 -0.5966 0.7987
vn 0.1209 0.5321 0.8380
vn -0.1017 -0.5981 0.7949
vn -0.0988 0.5364 0.8382
vn -0.3880 -0.6109 0.6901
vn -0.4333 0.4835 0.7606
vn -0.5123 -0.6009 0.6136
vn -0.4187 0.5549 0.7189
vn -0.2827 -0.6085 0.7415
vn -0.0598 0.6275 0.7763
vn 0.2119 -0.6246 0.7517
vn 0.4048 0.6603 0.6326
vn 0.6342 -0.6035 0.4833
vn 0.6979 0.6332 0.3346
vn 0.7866 -0.5942 0.1677
vn 0.7727 0.6293 0.0837
vn 0.7677 -0.6037 -0.2149
vn 0.7172 0.6549 -0.2383
vn 0.6335 -0.5879 -0.5030
vn 0.6090 0.6025 -0.5158
vn 0.3952 -0.6006 -0.6951
vn 0.3731 0.6544 -0.6577
vn 0.0751 -0.5899 -0.8040
vn 0.1202 0.6151 -0.7792
vn 0.1138 -0.5923 -0.7977
vn 0.1502 0.5129 -0.8452
vn 0.4404 -0.5963 -0.6712
vn 0.4452 0.4897 -0.7497
vn 0.6947 -0.5957 -0.4032
vn 0.7142 0.5238 -0.4643
vn 0.7960 -0.5913 -0.1295
vn 0.8392 0.5265 -0.1359
vn 0.7953 -0.5924 0.1287
vn 0.8397 0.5255 0.1370
vn 0.7241 -0.5922 0.3536
vn 0.7605 0.5318 0.3726
vn 0.6137 -0.5919 0.5225
vn 0.6648 0.5280 0.5283
vn 0.4982 -0.5930 0.6326
vn 0.5401 0.5500 0.6370
vn 0.2380 -0.6100 0.7558
vn 0.2468 0.4891 0.8366
vn 0.1706 -0.6041 0.7784
vn 0.2081 0.6054 0.7682
vn 0.4340 -0.5984 0.6734
vn 0.4919 0.6150 0.6163
vn 0.4997 -0.5931 0.6312
vn 0.5390 0.5487 0.6391
vn 0.2307 -0.6101 0.7580
vn 0.2528 0.4833 0.8382
vn -0.1276 -0.6005 0.7894
vn -0.1376 0.5177 0.8444
vn -0.4175 -0.6070 0.6762
vn -0.4564 0.4971 0.7380
vn -0.6477 -0.6021 0.4669
vn -0.6947 0.5161 0.5009
vn -0.6447 -0.6024 0.4706
vn -0.7064 0.6018 0.3726
vn -0.4446 -0.6011 0.6641
vn -0.4915 0.6036 0.6277
vn -0.1414 -0.6046 0.7839
vn -0.2300 0.6356 0.7370
vn 0.2447 -0.6009 0.7610
vn 0.0974 0.6271 0.7728
vn 0.5203 -0.5925 0.6150
vn 0.3962 0.6067 0.6891
vn 0.6935 -0.5903 0.4131
vn 0.5881 0.6105 0.5305
vn 0.7838 -0.5863 0.2048
vn 0.7204 0.5936 0.3585
vn 0.8073 -0.5881 0.0488
vn 0.8015 0.5796 0.1476
vn -0.5929 0.4553 0.6642
vn 0.0001 -0.5950 0.8038
vn -0.3693 -0.5756 0.7296
vn 0.8024 -0.5884 -0.0998
vn 0.8322 0.5221 -0.1868
vn 0.8093 -0.5857 0.0454
vn 0.8249 0.5609 -0.0708
vn 0.8085 -0.5859 0.0549
vn 0.8195 0.5700 -0.0592
vn 0.8096 -0.5865 0.0245
vn 0.8108 0.5830 -0.0525
vn 0.7823 -0.5953 -0.1834
vn 0.7401 0.6403 -0.2056
vn -0.7689 -0.6057 0.2048
vn -0.8364 0.5095 0.2020
vn -0.8014 -0.5958 0.0534
vn -0.8239 0.5662 -0.0252
vn -0.8014 -0.5951 0.0599
vn -0.8275 0.5591 -0.0509
vn -0.7990 -0.5944 0.0913
vn -0.8193 0.5698 -0.0638
vn -0.7681 -0.5979 0.2292
vn -0.8105 0.5852 0.0237
vn -0.0001 0.9660 -0.2584
vn -0.1991 0.9785 -0.0534
vn -0.1675 0.9812 -0.0959
vn -0.1766 0.9795 -0.0974
vn -0.1638 0.9843 -0.0658
vn -0.1233 0.9923 0.0072
vn 0.1319 0.9899 -0.0529
vn 0.1067 0.9922 -0.0642
vn 0.0893 0.9914 -0.0959
vn 0.0879 0.9888 -0.1206
vn 0.0222 0.9884 -0.1505
vn -0.0790 -0.9965 -0.0289
vn 0.1185 -0.0168 -0.9928
vn -0.0388 0.9627 0.2677
vn -0.0886 -0.9936 0.0706
vn 0.2395 0.9672 0.0848
vn -0.0001 0.9633 0.2685
vt 0.007188 0.529192
vt 0.992812 0.529192
vt 0.992812 0.887220
vt 0.007188 0.887220
vt 0.375000 0.250000
vt 0.625000 0.250000
vt 0.625000 0.500000
vt 0.375000 0.500000
vt 0.625000 0.750000
vt 0.375000 0.750000
vt 0.625000 1.000000
vt 0.375000 1.000000
vt 0.125000 0.500000
vt 0.125000 0.750000
vt 0.875000 0.500000
vt 0.875000 0.750000
vt 0.065700 1.000000
vt 0.045500 0.994400
vt 0.151500 0.338900
vt 0.717500 0.164000
vt 0.763500 0.091200
vt 0.900700 0.164900
vt 0.809100 0.009800
vt 0.346200 0.164700
vt 0.506600 0.164900
vt 0.458900 0.014400
vt 0.080800 0.950000
vt 0.456400 0.016000
vt 0.507100 0.164600
vt 0.398200 0.098200
vt 0.343300 0.164700
vt 0.809900 0.008800
vt 0.853500 0.089900
vt 0.714700 0.164000
vt 0.897800 0.164900
vt 0.171100 0.749600
vt 0.171100 0.642100
vt 0.606400 0.642100
vt 0.197300 0.568500
vt 0.186500 0.745300
vt 0.104600 0.744200
vt 0.212900 0.742200
vt 0.257900 0.565900
vt 0.242300 0.741300
vt 0.307600 0.735700
vt 0.453800 0.723500
vt 0.462400 0.854600
vt 0.405200 0.852900
vt 0.495700 0.722200
vt 0.504100 0.854500
vt 0.526400 0.856200
vt 0.575800 0.731400
vt 0.565400 0.847600
vt 0.677200 0.855700
vt 0.710600 0.715600
vt 0.719700 0.862800
vt 0.781100 0.701800
vt 0.793800 0.874600
vt 0.811800 0.699400
vt 0.847700 0.880500
vt 0.748700 0.965200
vt 0.788500 0.882800
vt 0.379000 0.883400
vt 0.789300 0.964900
vt 0.805700 0.883200
vt 0.826500 0.966700
vt 0.820700 0.884600
vt 0.837600 0.887300
vt 0.845400 0.967300
vt 0.864600 0.887600
vt 0.863000 0.966600
vt 0.880700 0.888200
vt 0.898000 0.969500
vt 0.898800 0.889200
vt 0.922100 0.889400
vt 0.941800 0.971000
vt 0.932700 0.890100
vt 0.979600 0.977000
vt 0.981000 0.893700
vt 0.986500 0.891600
vt 0.490100 0.521900
vt 0.510200 0.680600
vt 0.463000 0.680100
vt 0.524400 0.521500
vt 0.593300 0.677300
vt 0.736400 0.510300
vt 0.767500 0.676500
vt 0.802200 0.509000
vt 0.826900 0.672000
vt 0.837200 0.672200
vt 0.971200 0.674400
vt 0.004200 0.824500
vt 0.018300 0.730000
vt 0.004700 0.729100
vt 0.020100 0.824700
vt 0.089900 0.736800
vt 0.362100 0.831500
vt 0.353500 0.743300
vt 0.403000 0.831400
vt 0.456600 0.745100
vt 0.567000 0.848100
vt 0.526700 0.745700
vt 0.547300 0.744400
vt 0.065600 0.643900
vt 0.177100 0.753800
vt 0.080800 0.754800
vt 0.273200 0.636300
vt 0.216300 0.756100
vt 0.322700 0.631900
vt 0.251400 0.751600
vt 0.313500 0.752400
vt 0.340300 0.624300
vt 0.339300 0.752300
vt 0.402900 0.631400
vt 0.426500 0.737800
vt 0.464400 0.634600
vt 0.469500 0.740400
vt 0.496900 0.739100
vt 0.521300 0.628500
vt 0.522300 0.738300
vt 0.554400 0.623900
vt 0.558500 0.735100
vt 0.082900 0.743700
vt 0.098800 0.596200
vt 0.040100 0.608400
vt 0.152300 0.742900
vt 0.138100 0.595000
vt 0.173100 0.592200
vt 0.213300 0.593100
vt 0.277200 0.745900
vt 0.248500 0.591700
vt 0.327300 0.591100
vt 0.344900 0.589300
vt 0.348400 0.741000
vt 0.401800 0.592400
vt 0.421700 0.739500
vt 0.446300 0.592500
vt 0.466900 0.743200
vt 0.484000 0.592100
vt 0.528900 0.747600
vt 0.593600 0.591400
vt 0.637400 0.752600
vt 0.632800 0.587100
vt 0.152100 0.831100
vt 0.176700 0.670500
vt 0.112900 0.673500
vt 0.214600 0.672800
vt 0.278100 0.824500
vt 0.240500 0.670700
vt 0.296900 0.667500
vt 0.327000 0.664100
vt 0.526600 0.825600
vt 0.594600 0.669400
vt 0.568400 0.668800
vt 0.654300 0.819300
vt 0.635700 0.665900
vt 0.662000 0.668200
vt 0.720400 0.666100
vt 0.277800 0.792400
vt 0.525600 0.606700
vt 0.218400 0.598500
vt 0.591200 0.785600
vt 0.548400 0.608900
vt 0.625700 0.795900
vt 0.727800 0.596700
vt 0.225900 0.765900
vt 0.274000 0.597100
vt 0.254500 0.580100
vt 0.245400 0.754900
vt 0.312300 0.621200
vt 0.877100 0.638200
vt 0.963500 0.782100
vt 0.915400 0.617300
vt 0.424300 0.748300
vt 0.509900 0.653000
vt 0.456800 0.649600
vt 0.515300 0.770500
vt 0.670300 0.652000
vt 0.039500 0.743500
vt 0.039700 0.785100
vt 0.673800 0.787100
vt 0.686100 0.743500
vt 0.884000 0.761900
vt 0.966700 0.644500
vt 0.704700 0.649500
vt 0.411900 0.793600
vt 0.429900 0.729000
vt 0.422500 0.730700
vt 0.462300 0.784900
vt 0.467300 0.730700
vt 0.594300 0.795800
vt 0.564200 0.733900
vt 0.527300 0.725200
vt 0.573200 0.731800
vt 0.579600 0.731100
vt 0.584400 0.729400
vt 0.600300 0.731800
vt 0.360200 0.708900
vt 0.360200 0.842300
vt 0.330600 0.875700
vt 0.507900 0.708900
vt 0.507900 0.842300
vt 0.537500 0.742200
vt 0.537500 0.809000
vt 0.759100 0.742200
vt 0.759100 0.809000
vt 0.330600 0.675500
vt 0.823100 0.724500
vt 0.658100 0.796500
vt 0.825500 0.793600
vt 0.525600 0.788200
vt 0.922200 0.761600
vt 0.467800 0.763400
vt 0.758900 0.782400
vt 0.492900 0.787700
vt 0.738100 0.814700
vt 0.355400 0.818000
vt 0.580400 0.745100
vt 0.564500 0.742600
vt 0.486700 0.741000
vt 0.367600 0.739800
vt 0.321100 0.743500
vt 0.234900 0.637500
vt 0.579100 0.849000
vt 0.383300 0.831700
vt 0.996900 0.504400
vt 0.409200 0.536400
vt 0.406500 0.538600
vt 0.408000 0.616900
vt 0.367000 0.967200
vt 0.846500 0.704800
vt 0.869900 0.702900
vt 0.745500 0.710400
vt 0.146800 0.571300
vt 0.650000 0.749600
vt 0.964600 0.899900
vt 0.931200 0.906600
vt 0.932900 0.797300
vt 0.407700 0.773100
vt 0.409700 0.724200
vt 0.303500 0.567900
vt 0.318200 0.567000
vt 0.287900 0.568600
vt 0.328000 0.880800
vt 0.400800 0.798200
vt 0.353500 0.907200
vt 0.292000 0.798100
vt 0.309900 0.852900
vt 0.328500 0.568000
vt 0.307600 0.735800
vt 0.334300 0.714500
vt 0.356900 0.908800
vt 0.892000 0.814300
vt 0.888700 0.905700
vt 0.852700 0.906100
vt 0.220700 0.905400
vt 0.720000 0.676600
vt 0.907400 0.909000
vt 0.864700 0.666500
vt 0.894700 0.661600
vt 0.915700 0.660400
vt 0.837200 0.671300
vt 0.396000 0.685000
vt 0.725000 0.901800
vt 0.458600 0.677200
vt 0.898800 0.684900
vt 0.553700 0.710000
vt 0.483200 0.715200
vt 0.436600 0.713700
vt 0.485700 0.901000
vt 0.387400 0.715600
vt 0.367500 0.716900
vt 0.352200 0.715900
vt 0.922800 0.871500
vt 0.965800 0.707900
vt 0.410500 0.902700
vt 0.112300 0.180100
vt 0.056200 0.334500
vt 0.609900 0.180400
vt 0.676400 0.336500
vt 0.062700 0.338400
vt 0.091700 0.187000
vt 0.968500 0.332800
vt 0.975200 0.181800
vt 0.970900 0.278900
vt 0.987900 0.178300
vt 0.983300 0.339100
vt 0.858700 0.178300
vt 0.856500 0.339100
vt 0.968400 0.178300
vt 0.960500 0.338100
vt 0.867500 0.178200
vt 0.862400 0.338100
vt 0.761200 0.178300
vt 0.754500 0.338100
vt 0.640000 0.178300
vt 0.637200 0.339100
vt 0.407400 0.178300
vt 0.410700 0.338100
vt 0.528600 0.178300
vt 0.526400 0.339100
vt 0.424300 0.178300
vt 0.421700 0.337200
vt 0.195400 0.178300
vt 0.194200 0.339100
vt 0.297800 0.178300
vt 0.301200 0.338200
vt 0.601400 0.179000
vt 0.604100 0.335100
vt 0.580900 0.179100
vt 0.583500 0.335100
vt 0.525000 0.179100
vt 0.528000 0.335100
vt 0.857600 0.179100
vt 0.859300 0.335100
vt 0.759400 0.179000
vt 0.758200 0.335100
vt 0.650100 0.179000
vt 0.648700 0.335100
vt 0.306000 0.179100
vt 0.299100 0.335100
vt 0.196800 0.179100
vt 0.198400 0.335100
vt 0.074600 0.179100
vt 0.072400 0.335100
vt 0.756800 0.179000
vt 0.757900 0.335100
vt 0.966900 0.183300
vt 0.966700 0.333300
vt 0.858900 0.183600
vt 0.858700 0.332700
vt 0.968800 0.184300
vt 0.968900 0.333700
vt 0.751300 0.184300
vt 0.751300 0.333700
vt 0.645100 0.184100
vt 0.645200 0.333800
vt 0.859500 0.184300
vt 0.860400 0.334000
vt 0.753500 0.183900
vt 0.753700 0.334100
vt 0.695600 0.183800
vt 0.695800 0.334000
vt 0.587700 0.184300
vt 0.587900 0.333900
vt 0.473900 0.184000
vt 0.474100 0.333900
vt 0.197300 0.184500
vt 0.197200 0.333700
vt 0.311400 0.184300
vt 0.311100 0.333700
vt 0.417500 0.184300
vt 0.417600 0.333700
vt 0.645300 0.184300
vt 0.645400 0.333700
vt 0.971400 0.184400
vt 0.970300 0.332700
vt 0.865400 0.184400
vt 0.863900 0.332700
vt 0.749500 0.184400
vt 0.746300 0.332700
vt 0.640300 0.184400
vt 0.641400 0.332700
vt 0.536600 0.184400
vt 0.536700 0.332700
vt 0.749300 0.332600
vt 0.535700 0.184400
vt 0.535400 0.332600
vt 0.644300 0.184400
vt 0.644200 0.332700
vt 0.527300 0.184400
vt 0.525600 0.332600
vt 0.422200 0.184400
vt 0.422600 0.332600
vt 0.306200 0.184400
vt 0.306800 0.332600
vt 0.423100 0.184400
vt 0.423000 0.332500
vt 0.305300 0.184400
vt 0.305000 0.332500
vt 0.424900 0.184400
vt 0.423200 0.333100
vt 0.621600 0.184400
vt 0.623400 0.331900
vt 0.542700 0.184400
vt 0.542400 0.331400
vt 0.422600 0.184400
vt 0.424400 0.332000
vt 0.300500 0.184400
vt 0.304800 0.331400
vt 0.472400 0.184400
vt 0.472800 0.331700
vt 0.527900 0.182600
vt 0.530100 0.333700
vt 0.415000 0.182600
vt 0.415200 0.333100
vt 0.309100 0.182600
vt 0.309000 0.333300
vt 0.196800 0.182600
vt 0.197700 0.333300
vt 0.090000 0.182600
vt 0.090200 0.333400
vt 0.858700 0.182600
vt 0.859300 0.332700
vt 0.968200 0.182400
vt 0.969800 0.333400
vt 0.858900 0.182400
vt 0.859900 0.335300
vt 0.415000 0.182500
vt 0.414300 0.335500
vt 0.305100 0.182600
vt 0.306300 0.335500
vt 0.199400 0.182700
vt 0.194000 0.333800
vt 0.975400 0.184700
vt 0.975900 0.332600
vt 0.086300 0.185200
vt 0.086600 0.333700
vt 0.196800 0.186900
vt 0.195000 0.330100
vt 0.306100 0.185100
vt 0.305000 0.333800
vt 0.777700 0.183800
vt 0.707900 0.333600
vt 0.855200 0.180900
vt 0.796100 0.334500
vt 0.975500 0.184600
vt 0.971800 0.334100
vt 0.972100 0.185200
vt 0.963300 0.336600
vt 0.089700 0.182800
vt 0.087800 0.336600
vt 0.093400 0.184600
vt 0.085500 0.336000
vt 0.512700 0.186500
vt 0.512300 0.332800
vt 0.972700 0.186800
vt 0.972700 0.333500
vt 0.862600 0.186800
vt 0.862700 0.333400
vt 0.744500 0.186800
vt 0.745800 0.333400
vt 0.529300 0.183300
vt 0.532100 0.331300
vt 0.423200 0.187100
vt 0.427800 0.333200
vt 0.300700 0.183100
vt 0.305700 0.333200
vt 0.090500 0.186700
vt 0.093000 0.333200
vt 0.185900 0.186600
vt 0.188200 0.333100
vt 0.363700 0.186600
vt 0.362900 0.331300
vt 0.970600 0.186500
vt 0.983200 0.335000
vt 0.853900 0.188400
vt 0.870600 0.333200
vt 0.530300 0.188400
vt 0.531100 0.335000
vt 0.424600 0.188400
vt 0.429600 0.333200
vt 0.427900 0.182900
vt 0.424800 0.331300
vt 0.308500 0.183700
vt 0.308700 0.333500
vt 0.833800 0.182800
vt 0.861500 0.333200
vt 0.745600 0.183600
vt 0.746800 0.333300
vt 0.861200 0.183600
vt 0.860400 0.334200
vt 0.531500 0.183600
vt 0.530700 0.333300
vt 0.641400 0.183600
vt 0.640700 0.334200
vt 0.297200 0.183700
vt 0.297000 0.333200
vt 0.195600 0.183700
vt 0.198700 0.334300
vt 0.080100 0.183700
vt 0.080200 0.333700
vt 0.425400 0.183700
vt 0.424100 0.334000
vt 0.302700 0.183700
vt 0.302100 0.334000
vt 0.195300 0.183700
vt 0.196000 0.333100
vt 0.084700 0.183700
vt 0.084000 0.333100
vt 0.858400 0.186100
vt 0.860900 0.335700
vt 0.304900 0.186100
vt 0.307500 0.335700
vt 0.198100 0.184200
vt 0.199100 0.330200
vt 0.087300 0.184200
vt 0.089500 0.337600
vt 0.971700 0.186700
vt 0.971200 0.334100
vt 0.087000 0.183900
vt 0.088500 0.334300
vt 0.197800 0.183600
vt 0.195400 0.332200
vt 0.414300 0.183300
vt 0.414500 0.334200
vt 0.526200 0.183900
vt 0.530200 0.336300
vt 0.633500 0.185300
vt 0.632700 0.333400
vt 0.087700 0.183400
vt 0.096100 0.333300
vt 0.969500 0.186000
vt 0.968800 0.335100
vt 0.861300 0.185900
vt 0.857700 0.335100
vt 0.749700 0.185900
vt 0.747700 0.333300
vt 0.417200 0.185200
vt 0.417300 0.335900
vt 0.746900 0.185500
vt 0.745400 0.336100
vt 0.859800 0.185300
vt 0.859300 0.336000
vt 0.744100 0.185200
vt 0.746100 0.335900
vt 0.639400 0.185300
vt 0.639000 0.335900
vt 0.743500 0.185300
vt 0.743800 0.335900
vt 0.859500 0.335900
vt 0.742700 0.185300
vt 0.743600 0.335900
vt 0.642200 0.185200
vt 0.641200 0.335900
vt 0.518600 0.185200
vt 0.518400 0.335900
vt 0.744600 0.185300
vt 0.745500 0.335900
vt 0.636100 0.185300
vt 0.636500 0.335900
vt 0.580500 0.185300
vt 0.580900 0.335900
vt 0.516900 0.185300
vt 0.517200 0.335900
vt 0.418000 0.185300
vt 0.418200 0.335900
vt 0.297700 0.185300
vt 0.297700 0.335900
vt 0.136000 0.185300
vt 0.137200 0.335900
vt 0.080600 0.185300
vt 0.081800 0.335900
vt 0.975100 0.185600
vt 0.974500 0.338000
vt 0.846800 0.185600
vt 0.848400 0.338000
vt 0.746300 0.185600
vt 0.747400 0.338100
vt 0.628100 0.185600
vt 0.629200 0.338100
vt 0.517700 0.185400
vt 0.518100 0.337800
vt 0.409000 0.185800
vt 0.409700 0.338400
vt 0.852100 0.185600
vt 0.851600 0.338100
vt 0.735700 0.185600
vt 0.737800 0.338000
vt 0.737500 0.185500
vt 0.297400 0.185300
vt 0.298600 0.337500
vt 0.298200 0.185400
vt 0.297300 0.337700
vt 0.199800 0.185400
vt 0.200100 0.337700
vt 0.078000 0.185300
vt 0.076000 0.337700
vt 0.074700 0.179400
vt 0.074400 0.337400
vt 0.860900 0.179500
vt 0.862400 0.337400
vt 0.744900 0.179500
vt 0.743100 0.337400
vt 0.281400 0.179500
vt 0.283000 0.337400
vt 0.208300 0.179500
vt 0.209300 0.337400
vt 0.638900 0.179500
vt 0.639900 0.337400
vt 0.522900 0.179500
vt 0.522400 0.337400
vt 0.302600 0.179500
vt 0.306500 0.337400
vt 0.186500 0.179600
vt 0.186600 0.337400
vt 0.359700 0.179500
vt 0.360600 0.337400
vt 0.586000 0.183100
vt 0.579000 0.338200
vt 0.308300 0.182900
vt 0.304800 0.336100
vt 0.421300 0.182400
vt 0.420800 0.334200
vt 0.586400 0.183100
vt 0.588900 0.334800
vt 0.696000 0.183500
vt 0.697800 0.334800
vt 0.753700 0.182300
vt 0.760100 0.335800
vt 0.869300 0.182400
vt 0.874200 0.335900
vt 0.963400 0.181900
vt 0.968600 0.334200
vt 0.972400 0.183200
vt 0.970200 0.337700
vt 0.084200 0.181900
vt 0.082000 0.336400
vt 0.077100 0.332600
vt 0.079400 0.242400
vt 0.988900 0.333400
vt 0.081000 0.181800
vt 0.959800 0.182000
vt 0.970300 0.184400
vt 0.971300 0.330900
vt 0.746400 0.186500
vt 0.746100 0.333300
vt 0.532200 0.333400
vt 0.530200 0.184200
vt 0.360200 0.178300
vt 0.361700 0.339100
vt 0.916300 0.178300
vt 0.914000 0.339100
vt 0.527600 0.178300
vt 0.527100 0.338400
vt 0.982100 0.178800
vt 0.982300 0.337400
vt 0.080300 0.177800
vt 0.080600 0.336400
vt 0.971900 0.178400
vt 0.968900 0.336100
vt 0.091000 0.178700
vt 0.088000 0.336400
vt 0.963800 0.179000
vt 0.965100 0.335100
vt 0.636700 0.179100
vt 0.641100 0.335100
vt 0.420100 0.179500
vt 0.419800 0.337400
vt 0.098600 0.179500
vt 0.098300 0.337400
vt 0.085900 0.179100
vt 0.087600 0.336700
vt 0.965900 0.181100
vt 0.967700 0.338700
vt 0.979700 0.184600
vt 0.980000 0.340100
vt 0.079700 0.184900
vt 0.081900 0.338500
vt 0.086700 0.182500
vt 0.087200 0.334200
vt 0.519600 0.183000
vt 0.522900 0.335200
vt 0.616700 0.010500
vt 0.664800 0.168300
vt 0.253700 0.010500
vt 0.213100 0.168300
vt 0.887600 0.013200
vt 0.886800 0.168700
vt 0.946000 0.011700
vt 0.945700 0.169300
vt 0.846800 0.014500
vt 0.852900 0.169100
vt 0.806000 0.012400
vt 0.802700 0.166100
vt 0.748900 0.011700
vt 0.750400 0.164900
vt 0.693700 0.014800
vt 0.691900 0.167000
vt 0.638900 0.013100
vt 0.636500 0.168100
vt 0.566700 0.012100
vt 0.565900 0.163500
vt 0.514400 0.011200
vt 0.513200 0.165700
vt 0.457500 0.011300
vt 0.460500 0.164900
vt 0.403000 0.013900
vt 0.405300 0.166100
vt 0.085400 0.010300
vt 0.084200 0.161400
vt 0.070500 0.010300
vt 0.083300 0.161400
vt 0.115100 0.010300
vt 0.107800 0.161600
vt 0.278800 0.010300
vt 0.324700 0.161600
vt 0.323500 0.010300
vt 0.372000 0.161200
vt 0.368100 0.010300
vt 0.420600 0.161400
vt 0.531100 0.010300
vt 0.536300 0.161700
vt 0.575700 0.010300
vt 0.575800 0.162000
vt 0.620200 0.010300
vt 0.616700 0.162300
vt 0.806900 0.010300
vt 0.818800 0.162300
vt 0.900100 0.010300
vt 0.870300 0.161400
vt 0.420300 0.012600
vt 0.427500 0.165500
vt 0.427200 0.165600
vt 0.494400 0.009400
vt 0.496300 0.161200
vt 0.867900 0.010200
vt 0.857400 0.161600
vt 0.895700 0.007700
vt 0.919900 0.164500
vt 0.971000 0.008300
vt 0.990100 0.164600
vt 0.845100 0.008100
vt 0.865300 0.164600
vt 0.769400 0.008300
vt 0.775200 0.164600
vt 0.693800 0.008400
vt 0.687800 0.164600
vt 0.517500 0.008000
vt 0.493300 0.164500
vt 0.467100 0.008000
vt 0.435000 0.164500
vt 0.441900 0.008200
vt 0.404900 0.164500
vt 0.402700 0.008100
vt 0.371100 0.164500
vt 0.029900 0.008000
vt 0.024400 0.166000
vt 0.017500 0.008000
vt 0.011100 0.166000
vt 0.054700 0.007800
vt 0.051500 0.166100
vt 0.092100 0.008000
vt 0.090800 0.166000
vt 0.134900 0.008100
vt 0.131500 0.166000
vt 0.200800 0.007900
vt 0.197800 0.165800
vt 0.270000 0.008800
vt 0.267000 0.165800
vt 0.311200 0.008500
vt 0.317200 0.165700
vt 0.341600 0.008700
vt 0.359200 0.165700
vt 0.375800 0.009100
vt 0.386800 0.165700
vt 0.400800 0.009900
vt 0.403600 0.165700
vt 0.425700 0.010200
vt 0.418700 0.165700
vt 0.456100 0.010100
vt 0.446600 0.165800
vt 0.483300 0.009800
vt 0.477500 0.165700
vt 0.515600 0.009800
vt 0.499700 0.165700
vt 0.551300 0.009900
vt 0.526800 0.165700
vt 0.577600 0.009800
vt 0.566000 0.165800
vt 0.614900 0.009700
vt 0.606700 0.165900
vt 0.664200 0.009400
vt 0.672800 0.166000
vt 0.755100 0.009500
vt 0.761600 0.166000
vt 0.709100 0.009500
vt 0.708000 0.165900
vt 0.797700 0.009300
vt 0.802000 0.166100
vt 0.837100 0.008800
vt 0.829400 0.166100
vt 0.872900 0.008500
vt 0.856600 0.166200
vt 0.962900 0.008700
vt 0.979600 0.166100
vt 0.357300 0.009400
vt 0.308800 0.163600
vt 0.240300 0.009400
vt 0.257600 0.163600
vt 0.713700 0.009400
vt 0.718200 0.163600
vt 0.795600 0.009500
vt 0.800600 0.163600
vt 0.027700 0.006000
vt 0.022200 0.166000
vt 0.009200 0.006200
vt 0.008200 0.166000
vt 0.038100 0.005600
vt 0.046500 0.166200
vt 0.047500 0.005600
vt 0.054800 0.166200
vt 0.066500 0.005600
vt 0.071300 0.166200
vt 0.161200 0.005600
vt 0.143800 0.166100
vt 0.180000 0.005600
vt 0.181600 0.166200
vt 0.253300 0.006200
vt 0.289600 0.167600
vt 0.253300 0.006300
vt 0.289600 0.171300
vt 0.340900 0.005600
vt 0.332900 0.166200
vt 0.432400 0.005700
vt 0.539600 0.167000
vt 0.328900 0.005700
vt 0.422300 0.167200
vt 0.535800 0.005700
vt 0.649400 0.166600
vt 0.048800 0.006600
vt 0.032100 0.165400
vt 0.032600 0.006600
vt 0.014800 0.165400
vt 0.065000 0.006500
vt 0.050400 0.165500
vt 0.113500 0.006400
vt 0.103200 0.165500
vt 0.145900 0.006300
vt 0.139900 0.165500
vt 0.210600 0.006200
vt 0.208800 0.165500
vt 0.534200 0.006000
vt 0.542600 0.165600
vt 0.501800 0.006000
vt 0.510200 0.165600
vt 0.696000 0.006000
vt 0.704700 0.165600
vt 0.728400 0.006000
vt 0.737100 0.165600
vt 0.054600 0.007500
vt 0.035200 0.164000
vt 0.054600 0.007400
vt 0.035200 0.158900
vt 0.971000 0.005800
vt 0.990700 0.165600
vt 0.318000 0.007800
vt 0.310000 0.166000
vt 0.353100 0.007800
vt 0.345100 0.166000
vt 0.528800 0.007800
vt 0.520700 0.166000
vt 0.563900 0.007800
vt 0.555900 0.166000
vt 0.792200 0.007800
vt 0.789000 0.166900
vt 0.844900 0.007600
vt 0.831200 0.164600
vt 0.862500 0.007500
vt 0.843100 0.162100
vt 0.226700 0.005800
vt 0.245000 0.165600
vt 0.226700 0.005900
vt 0.242900 0.005800
vt 0.259500 0.165600
vt 0.275300 0.005900
vt 0.289600 0.165600
vt 0.813400 0.006200
vt 0.841600 0.164100
vt 0.055600 0.006200
vt 0.083900 0.164100
vt 0.879300 0.006200
vt 0.912200 0.164100
vt 0.912200 0.006200
vt 0.948500 0.164500
vt 0.612800 0.008900
vt 0.567900 0.166400
vt 0.477900 0.008700
vt 0.487500 0.165800
vt 0.637800 0.009000
vt 0.596400 0.166500
vt 0.810000 0.008400
vt 0.807800 0.165900
vt 0.855600 0.008200
vt 0.848500 0.165700
vt 0.910900 0.008300
vt 0.901500 0.165900
vt 0.251600 0.011000
vt 0.243800 0.164100
vt 0.012600 0.008400
vt 0.012800 0.163400
vt 0.959700 0.007600
vt 0.922400 0.165400
vt 0.986600 0.007600
vt 0.944000 0.165400
vt 0.919300 0.007500
vt 0.890100 0.165400
vt 0.853900 0.007500
vt 0.744500 0.164900
vt 0.801400 0.007500
vt 0.713200 0.164800
vt 0.739300 0.007600
vt 0.692900 0.164700
vt 0.688500 0.007600
vt 0.678900 0.164900
vt 0.661500 0.007600
vt 0.651300 0.164900
vt 0.628300 0.007600
vt 0.611300 0.164800
vt 0.588100 0.007500
vt 0.570100 0.164700
vt 0.534400 0.007500
vt 0.515300 0.164600
vt 0.449300 0.007400
vt 0.423100 0.164300
vt 0.385300 0.007400
vt 0.370500 0.164300
vt 0.358500 0.007300
vt 0.345700 0.164300
vt 0.331300 0.007400
vt 0.323300 0.164300
vt 0.277300 0.007500
vt 0.276300 0.164300
vt 0.204600 0.007500
vt 0.254200 0.164300
vt 0.169600 0.007500
vt 0.231000 0.164300
vt 0.144700 0.007600
vt 0.206400 0.164300
vt 0.704300 0.009400
vt 0.709200 0.163700
vt 0.658600 0.009400
vt 0.681400 0.163600
vt 0.750000 0.009400
vt 0.736300 0.163700
vt 0.841600 0.009400
vt 0.821600 0.164100
vt 0.910500 0.009400
vt 0.882400 0.163800
vt 0.979100 0.009400
vt 0.950500 0.164300
vt 0.629600 0.012900
vt 0.636400 0.162200
vt 0.235100 0.012900
vt 0.294200 0.162700
vt 0.743000 0.012100
vt 0.737700 0.160800
vt 0.102800 0.009100
vt 0.058900 0.162800
vt 0.091600 0.009100
vt 0.046400 0.162800
vt 0.125300 0.009100
vt 0.083200 0.163000
vt 0.352000 0.009200
vt 0.358000 0.161200
vt 0.385700 0.009100
vt 0.396200 0.161400
vt 0.569900 0.009100
vt 0.566900 0.163200
vt 0.592400 0.009100
vt 0.585200 0.163000
vt 0.738200 0.009200
vt 0.743900 0.162200
vt 0.771900 0.009200
vt 0.782100 0.162400
vt 0.843800 0.009200
vt 0.878600 0.163000
vt 0.877500 0.009100
vt 0.917400 0.163200
vt 0.958200 0.009100
vt 0.966200 0.163500
vt 0.461600 0.011100
vt 0.452400 0.166400
vt 0.523800 0.011200
vt 0.524900 0.166300
vt 0.398500 0.011100
vt 0.400000 0.166500
vt 0.271800 0.011100
vt 0.278300 0.166800
vt 0.203300 0.011100
vt 0.234900 0.167200
vt 0.149000 0.011100
vt 0.193900 0.167600
vt 0.096500 0.011100
vt 0.128200 0.167700
vt 0.759600 0.010800
vt 0.730000 0.166800
vt 0.658200 0.010700
vt 0.652800 0.166600
vt 0.992700 0.011000
vt 0.974200 0.167600
vt 0.870600 0.167700
vt 0.922900 0.086600
vt 0.971100 0.011900
vt 0.649400 0.166000
vt 0.342000 0.007900
vt 0.345000 0.161100
vt 0.062800 0.012400
vt 0.064300 0.164800
vt 0.016000 0.012500
vt 0.016100 0.166100
vt 0.205700 0.012200
vt 0.214200 0.163400
vt 0.358500 0.012000
vt 0.339600 0.162200
vt 0.374900 0.012000
vt 0.356600 0.161200
vt 0.063100 0.010300
vt 0.082000 0.161400
vt 0.963800 0.009100
vt 0.974000 0.163500
vt 0.914300 0.011400
vt 0.918100 0.166000
vt 0.941100 0.011500
vt 0.945100 0.165800
vt 0.761100 0.011400
vt 0.763400 0.166000
vt 0.632300 0.011000
vt 0.633300 0.166500
vt 0.536300 0.011000
vt 0.536400 0.166500
vt 0.005100 0.411100
vt 0.026900 0.421600
vt 0.408400 0.775900
vt 0.045400 0.427800
vt 0.087300 0.339100
vt 0.077400 0.184900
vt 0.992000 0.339900
vt 0.992000 0.264500
vt 0.992000 0.184000
vt 0.988200 0.009500
vt 0.988300 0.090300
vt 0.988400 0.169200
vt 0.028900 0.010100
vt 0.019500 0.094200
vt 0.011200 0.167300
vt 0.986600 0.891700
vt 0.980200 0.976900
vt 0.987400 0.978900
vt 0.992200 0.891900
vt 0.477200 0.786700
vt 0.513600 0.566000
vt 0.629000 0.564400
vt 0.587900 0.786400
vt 0.964300 0.557400
vt 0.909000 0.778400
vt 0.408800 0.867800
vt 0.463400 0.753400
vt 0.797600 0.729600
vt 0.724000 0.858800
vt 0.234800 0.665300
vt 0.289300 0.535000
vt 0.402100 0.526000
vt 0.346700 0.651300
vt 0.440500 0.529200
vt 0.427400 0.662000
s 0
usemtl Material.001
f 1/1/1 5/2/1 7/3/1 3/4/1
f 6/5/2 2/6/2 4/7/2 8/8/2
f 4/8/3 3/7/3 7/9/3 8/10/3
f 2/10/4 1/9/4 3/11/4 4/12/4
f 6/13/5 5/8/5 1/10/5 2/14/5
f 8/7/6 7/15/6 5/16/6 6/9/6
s 1
f 9/17/7 10/17/8 11/18/9
f 12/19/10 13/19/10 14/19/10
f 15/19/11 16/19/11 17/19/11
f 18/20/12 19/21/13 20/22/14
f 20/22/14 19/21/13 21/23/15
f 22/24/16 23/25/17 24/26/18
f 25/27/19 26/27/20 27/27/19
f 28/28/21 29/29/22 30/30/23
f 30/30/23 29/29/22 31/31/24
f 32/27/20 27/27/19 26/27/20
f 33/17/25 34/17/26 35/17/25
f 36/32/27 37/33/28 9/34/29
f 37/33/28 38/35/30 9/34/29
f 39/17/26 34/17/26 33/17/25
f 40/36/31 41/37/32 42/38/33
f 43/39/34 11/40/9 10/41/8
f 43/39/34 44/42/35 11/40/9
f 45/43/36 46/44/37 44/42/35
f 45/43/36 47/45/38 46/44/37
f 48/46/39 49/47/40 50/48/41
f 51/49/42 52/50/43 49/47/40
f 51/49/42 53/51/44 52/50/43
f 54/52/45 55/53/46 53/51/44
f 54/52/45 56/54/47 55/53/46
f 57/55/48 58/56/49 56/54/47
f 59/57/50 60/58/51 58/56/49
f 61/59/52 62/60/53 60/58/51
f 63/61/54 64/62/55 62/63/53
f 65/64/56 66/65/57 64/62/55
f 67/66/58 68/67/59 66/65/57
f 67/66/58 69/68/60 68/67/59
f 70/69/61 71/70/62 69/68/60
f 72/71/63 73/72/64 71/70/62
f 74/73/65 75/74/66 73/72/64
f 74/73/65 76/75/67 75/74/66
f 77/76/68 78/77/69 76/75/67
f 79/78/70 80/79/71 78/77/69
f 79/78/70 81/80/72 80/79/71
f 82/81/73 83/82/74 84/83/75
f 85/84/76 86/85/77 83/82/74
f 87/86/78 88/87/79 86/85/77
f 89/88/80 90/89/81 88/87/79
f 89/88/80 91/90/82 90/89/81
f 89/88/80 92/91/83 91/90/82
f 93/92/84 94/93/85 92/94/83
f 95/95/86 96/96/87 94/93/85
f 97/97/88 98/98/89 96/96/87
f 99/99/90 100/100/91 98/98/89
f 101/101/92 102/102/93 100/100/91
f 101/101/92 103/103/94 102/102/93
f 104/104/95 105/105/96 103/106/94
f 106/107/97 107/108/98 105/105/96
f 108/109/99 109/110/100 107/108/98
f 108/109/99 110/111/101 109/110/100
f 111/112/102 112/113/103 110/111/101
f 113/114/104 114/115/105 112/113/103
f 115/116/106 116/117/107 114/115/105
f 115/116/106 117/118/108 116/117/107
f 118/119/109 119/120/110 117/118/108
f 120/121/111 121/122/112 119/120/110
f 120/123/111 122/124/113 121/125/112
f 123/126/114 124/127/115 122/124/113
f 123/126/114 125/128/116 124/127/115
f 123/126/114 126/129/117 125/128/116
f 127/130/118 128/131/119 126/129/117
f 127/130/118 129/132/120 128/131/119
f 127/130/118 130/133/121 129/132/120
f 131/134/122 132/135/123 130/133/121
f 133/136/124 134/137/125 132/135/123
f 135/138/126 136/139/127 134/137/125
f 137/140/128 138/141/129 136/139/127
f 139/142/130 140/143/131 138/141/129
f 139/144/130 141/145/132 140/146/131
f 139/144/130 142/147/133 141/145/132
f 143/148/134 144/149/135 142/147/133
f 143/148/134 145/150/136 144/149/135
f 143/148/134 146/151/137 145/150/136
f 147/152/138 148/153/139 149/154/140
f 150/155/141 151/156/142 148/153/139
f 150/155/141 152/157/143 151/156/142
f 150/155/141 153/158/144 152/157/143
f 154/159/145 155/160/146 153/161/144
f 156/162/147 157/163/148 155/160/146
f 158/164/149 159/165/150 157/163/148
f 160/166/151 161/167/152 159/168/150
f 162/169/153 163/170/154 161/167/152
f 162/169/153 164/171/155 163/170/154
f 165/172/156 166/173/157 164/171/155
f 165/174/156 167/175/158 166/176/157
f 168/177/159 169/178/160 167/175/158
f 170/179/161 171/180/162 169/181/160
f 169/181/160 172/182/163 170/179/161
f 173/183/164 174/184/165 172/185/163
f 175/186/166 176/187/167 174/188/165
f 177/189/168 178/190/169 176/187/167
f 179/191/170 180/192/171 181/193/172
f 179/191/170 182/194/173 180/192/171
f 179/191/170 183/195/174 182/194/173
f 179/191/170 184/196/175 183/195/174
f 179/191/170 185/197/176 184/196/175
f 186/198/177 187/199/178 188/200/179
f 189/201/180 190/202/179 187/199/178
f 191/203/181 192/204/182 190/202/179
f 193/205/183 194/206/184 192/204/182
f 192/204/182 191/203/181 193/205/183
f 190/202/179 189/201/180 191/203/181
f 187/199/178 186/198/177 189/201/180
f 188/200/179 195/207/185 186/198/177
f 188/208/179 196/209/186 195/210/185
f 185/197/176 179/191/170 196/209/186
f 181/193/172 197/211/187 179/191/170
f 178/190/169 177/189/168 197/211/187
f 176/187/167 175/186/166 177/189/168
f 174/184/165 173/183/164 175/212/166
f 172/185/163 168/177/159 173/183/164
f 167/175/158 198/213/188 168/177/159
f 167/175/158 165/174/156 198/213/188
f 164/171/155 162/169/153 165/172/156
f 161/167/152 160/166/151 162/169/153
f 159/165/150 158/164/149 160/214/151
f 157/163/148 156/162/147 158/164/149
f 155/160/146 199/215/189 156/162/147
f 155/160/146 154/159/145 199/215/189
f 153/158/144 150/155/141 154/216/145
f 148/153/139 147/152/138 150/155/141
f 146/151/137 200/217/190 147/152/138
f 146/151/137 143/148/134 200/217/190
f 142/147/133 139/144/130 143/148/134
f 138/141/129 201/218/191 139/142/130
f 138/141/129 202/219/192 201/218/191
f 138/141/129 137/140/128 202/219/192
f 136/139/127 203/220/193 137/140/128
f 136/139/127 135/138/126 203/220/193
f 134/137/125 133/136/124 135/138/126
f 132/135/123 204/221/194 133/136/124
f 132/135/123 131/134/122 204/221/194
f 130/133/121 205/222/195 131/134/122
f 130/133/121 127/130/118 205/222/195
f 126/129/117 123/126/114 127/130/118
f 122/124/113 120/123/111 123/126/114
f 119/120/110 118/119/109 120/121/111
f 117/118/108 115/116/106 118/119/109
f 114/115/105 113/114/104 115/116/106
f 112/113/103 111/112/102 113/114/104
f 110/111/101 108/109/99 111/112/102
f 107/108/98 106/107/97 108/109/99
f 105/105/96 206/223/196 106/107/97
f 105/105/96 104/104/95 206/223/196
f 103/103/94 101/101/92 104/224/95
f 100/100/91 99/99/90 101/101/92
f 98/98/89 207/225/197 99/99/90
f 98/98/89 97/97/88 207/225/197
f 96/96/87 95/95/86 97/97/88
f 94/93/85 93/92/84 95/95/86
f 92/91/83 89/88/80 93/226/84
f 88/87/79 87/86/78 89/88/80
f 86/85/77 85/84/76 87/86/78
f 83/82/74 82/81/73 85/84/76
f 84/83/75 208/227/198 82/81/73
f 84/83/75 209/228/199 208/227/198
f 84/83/75 210/229/200 209/228/199
f 78/77/69 77/76/68 79/78/70
f 76/75/67 74/73/65 77/76/68
f 73/72/64 72/71/63 74/73/65
f 71/70/62 70/69/61 72/71/63
f 69/68/60 67/66/58 70/69/61
f 66/65/57 65/64/56 67/66/58
f 64/62/55 63/61/54 65/64/56
f 62/63/53 23/230/17 63/61/54
f 62/60/53 211/231/201 23/232/17
f 62/60/53 61/59/52 211/231/201
f 60/58/51 59/57/50 61/59/52
f 58/56/49 212/233/202 59/57/50
f 58/56/49 57/55/48 212/233/202
f 56/54/47 54/52/45 57/55/48
f 53/51/44 51/49/42 54/52/45
f 49/47/40 48/46/39 51/49/42
f 44/42/35 43/39/34 45/43/36
f 10/41/8 42/234/33 43/39/34
f 196/209/186 188/208/179 185/197/176
f 42/38/33 10/235/8 40/36/31
f 147/152/138 149/154/140 146/151/137
f 197/211/187 181/193/172 178/190/169
f 172/185/163 169/178/160 168/177/159
f 50/236/203 213/237/204 214/236/205
f 215/238/206 214/236/205 213/237/204
f 216/239/207 217/240/207 48/46/39
f 218/241/208 219/242/208 220/45/209
f 221/243/210 220/45/209 222/43/211
f 218/241/208 220/45/209 221/243/210
f 223/244/212 224/245/213 225/246/214
f 226/247/215 224/245/213 227/248/216
f 227/248/216 224/245/213 223/244/212
f 228/249/217 229/250/218 230/242/219
f 228/251/217 231/245/220 229/247/218
f 232/252/221 233/246/221 234/245/221
f 235/253/222 236/254/223 237/255/224
f 235/253/222 237/255/224 238/256/225
f 239/256/226 240/257/226 241/253/226
f 242/258/227 236/254/228 243/253/229
f 242/258/227 243/253/229 244/237/230
f 213/237/204 245/253/231 215/238/206
f 246/253/232 247/259/233 248/260/234
f 249/261/235 250/253/235 248/260/236
f 251/253/237 252/261/237 253/238/237
f 254/262/238 247/259/239 255/253/240
f 256/262/241 255/253/242 257/257/241
f 258/263/243 259/257/243 260/256/243
f 261/264/244 262/265/244 263/266/244
f 264/267/245 265/245/245 266/268/246
f 267/245/247 268/269/247 266/268/246
f 269/245/248 270/270/248 271/252/248
f 272/267/249 273/270/249 274/245/249
f 275/269/250 276/245/251 277/271/252
f 278/272/253 277/271/252 276/245/251
f 278/272/253 276/245/251 279/273/254
f 280/245/255 281/251/255 282/273/255
f 283/270/256 284/267/256 285/274/256
f 286/267/257 287/275/257 288/274/257
f 289/276/258 290/265/258 291/264/258
f 292/277/259 293/278/260 294/279/261
f 295/280/262 294/279/261 293/278/260
f 293/281/260 292/282/259 31/283/263
f 28/284/264 296/285/265 292/282/259
f 292/282/259 296/285/265 31/283/263
f 297/286/266 298/287/267 299/288/268
f 300/289/269 299/288/268 298/287/267
f 299/288/268 300/289/269 301/290/270
f 302/291/271 301/290/270 300/289/269
f 301/290/270 302/291/271 303/292/272
f 304/293/273 303/292/272 302/291/271
f 303/292/272 304/293/273 305/294/274
f 306/295/275 305/294/274 304/293/273
f 305/294/274 306/295/275 307/296/276
f 308/297/277 307/296/276 306/295/275
f 307/296/276 308/297/277 309/298/278
f 310/299/279 309/298/278 308/297/277
f 309/298/278 310/299/279 311/300/280
f 312/301/281 311/300/280 310/299/279
f 311/300/280 312/301/281 313/302/282
f 314/303/283 313/302/282 312/301/281
f 313/302/282 314/303/283 315/304/284
f 316/305/285 315/304/284 314/303/283
f 315/304/284 316/305/285 317/306/286
f 318/307/287 317/306/286 316/305/285
f 319/308/288 320/309/289 321/310/290
f 322/311/291 321/310/290 320/309/289
f 321/310/290 322/311/291 323/312/292
f 324/313/293 323/312/292 322/311/291
f 323/312/292 324/313/293 325/314/294
f 326/315/295 325/314/294 324/313/293
f 325/314/294 326/315/295 327/316/296
f 328/317/297 327/316/296 326/315/295
f 327/316/296 328/317/297 329/318/298
f 330/319/299 329/318/298 328/317/297
f 329/318/298 330/319/299 331/320/300
f 332/321/301 331/320/300 330/319/299
f 331/320/300 332/321/301 333/322/302
f 334/323/303 333/322/302 332/321/301
f 333/322/302 334/323/303 335/324/304
f 336/325/305 335/324/304 334/323/303
f 335/324/304 336/325/305 337/326/306
f 338/327/307 337/326/306 336/325/305
f 337/328/306 338/329/307 339/330/308
f 340/331/309 339/330/308 338/329/307
f 339/332/308 340/333/309 341/334/310
f 342/335/311 341/334/310 340/333/309
f 341/334/310 342/335/311 343/336/312
f 344/337/313 343/336/312 342/335/311
f 343/336/312 344/337/313 345/338/314
f 346/339/315 345/338/314 344/337/313
f 345/338/314 346/339/315 347/340/316
f 348/341/317 347/340/316 346/339/315
f 347/340/316 348/341/317 349/342/318
f 350/343/319 349/342/318 348/341/317
f 349/342/318 350/343/319 351/344/320
f 352/345/321 351/344/320 350/343/319
f 351/344/320 352/345/321 353/346/322
f 354/347/323 353/346/322 352/345/321
f 353/346/322 354/347/323 355/348/324
f 356/349/325 355/348/324 354/347/323
f 355/348/324 356/349/325 357/350/326
f 358/351/327 357/350/326 356/349/325
f 357/350/326 358/351/327 359/352/328
f 360/353/329 359/352/328 358/351/327
f 359/352/328 360/353/329 361/354/330
f 362/355/331 361/354/330 360/353/329
f 361/356/330 362/357/331 363/358/332
f 364/359/333 363/358/332 362/357/331
f 363/358/332 364/359/333 365/360/334
f 366/361/335 365/360/334 364/359/333
f 365/360/334 366/361/335 367/362/336
f 368/363/337 367/362/336 366/361/335
f 367/362/336 368/363/337 369/364/338
f 370/365/339 369/364/338 368/363/337
f 369/364/338 370/365/339 371/360/340
f 372/366/341 371/360/340 370/365/339
f 371/360/340 372/366/341 373/367/342
f 374/368/343 373/367/342 372/366/341
f 373/367/342 374/368/343 375/369/344
f 376/370/345 375/369/344 374/368/343
f 375/369/344 376/370/345 377/371/346
f 378/372/347 377/371/346 376/370/345
f 377/371/346 378/372/347 379/373/348
f 380/374/349 379/373/348 378/372/347
f 379/373/348 380/374/349 381/375/350
f 382/376/351 381/375/350 380/374/349
f 381/375/350 382/376/351 383/377/352
f 384/378/353 383/377/352 382/376/351
f 383/377/352 384/378/353 385/379/354
f 386/380/355 385/379/354 384/378/353
f 385/379/354 386/380/355 387/381/356
f 388/382/357 387/381/356 386/380/355
f 387/381/356 388/382/357 389/383/358
f 390/384/359 389/383/358 388/382/357
f 389/383/358 390/384/359 391/385/360
f 392/386/361 391/385/360 390/384/359
f 391/385/360 392/386/361 393/387/362
f 394/388/363 393/387/362 392/386/361
f 393/387/362 394/388/363 395/389/364
f 396/390/365 395/389/364 394/388/363
f 395/389/364 396/390/365 397/391/366
f 398/392/367 397/391/366 396/390/365
f 399/393/368 400/394/369 401/395/370
f 402/396/371 401/395/370 400/394/369
f 401/395/370 402/396/371 403/397/372
f 404/398/373 403/397/372 402/396/371
f 403/397/372 404/398/373 405/399/374
f 406/400/375 405/399/374 404/398/373
f 405/399/374 406/400/375 407/401/376
f 408/402/377 407/401/376 406/400/375
f 407/401/376 408/402/377 409/403/378
f 410/404/379 409/403/378 408/402/377
f 409/405/378 410/406/379 411/407/380
f 412/408/381 411/407/380 410/406/379
f 411/407/380 412/408/381 413/409/382
f 414/410/383 413/409/382 412/408/381
f 413/409/382 414/410/383 415/411/384
f 416/412/385 415/411/384 414/410/383
f 415/411/384 416/412/385 417/413/386
f 418/414/387 417/413/386 416/412/385
f 417/415/386 418/416/387 419/417/388
f 420/418/389 419/417/388 418/416/387
f 419/417/388 420/418/389 421/419/390
f 422/420/391 421/419/390 420/418/389
f 421/419/390 422/420/391 423/421/392
f 424/422/393 423/421/392 422/420/391
f 423/421/392 424/422/393 425/423/394
f 426/424/395 425/423/394 424/422/393
f 427/425/396 428/426/397 429/427/398
f 430/428/399 429/427/398 428/426/397
f 425/429/394 426/430/395 427/431/396
f 428/432/397 427/431/396 426/430/395
f 429/427/398 430/428/399 431/433/400
f 432/434/401 431/433/400 430/428/399
f 431/433/400 432/434/401 433/435/402
f 434/436/403 433/435/402 432/434/401
f 433/437/402 434/438/403 435/439/404
f 436/440/405 435/439/404 434/438/403
f 435/439/404 436/440/405 437/441/406
f 438/442/407 437/441/406 436/440/405
f 439/443/408 440/444/409 441/445/410
f 442/446/411 441/445/410 440/444/409
f 441/445/410 442/446/411 443/447/412
f 444/448/413 443/447/412 442/446/411
f 443/447/412 444/448/413 445/449/414
f 446/450/415 445/449/414 444/448/413
f 445/449/414 446/450/415 447/451/416
f 448/452/417 447/451/416 446/450/415
f 447/451/416 448/452/417 449/453/418
f 450/454/419 449/453/418 448/452/417
f 451/455/420 452/456/421 453/457/422
f 454/458/423 453/457/422 452/456/421
f 453/457/422 454/458/423 455/459/424
f 456/460/425 455/459/424 454/458/423
f 455/459/424 456/460/425 457/461/422
f 458/462/426 457/461/422 456/460/425
f 459/463/427 460/464/428 461/465/429
f 462/466/430 461/465/429 460/464/428
f 457/461/422 458/462/426 459/467/427
f 460/468/428 459/467/427 458/462/426
f 461/465/429 462/466/430 463/469/431
f 464/470/432 463/469/431 462/466/430
f 463/469/431 464/470/432 465/471/433
f 466/472/434 465/471/433 464/470/432
f 465/471/433 466/472/434 467/473/435
f 468/474/436 467/473/435 466/472/434
f 467/473/435 468/474/436 469/475/433
f 470/476/437 469/475/433 468/474/436
f 469/475/433 470/476/437 471/477/438
f 472/478/439 471/477/438 470/476/437
f 471/477/438 472/478/439 473/479/440
f 474/480/441 473/479/440 472/478/439
f 473/479/440 474/480/441 475/481/442
f 476/482/443 475/481/442 474/480/441
f 475/483/442 476/484/443 477/485/444
f 478/486/445 477/485/444 476/484/443
f 477/485/444 478/486/445 479/487/446
f 480/488/447 479/487/446 478/486/445
f 479/487/446 480/488/447 481/489/448
f 482/490/449 481/489/448 480/488/447
f 481/491/448 482/492/449 483/493/448
f 484/494/450 483/493/448 482/492/449
f 483/493/448 484/494/450 485/495/451
f 486/496/452 485/495/451 484/494/450
f 485/495/451 486/496/452 487/497/453
f 488/498/454 487/497/453 486/496/452
f 487/499/453 488/500/454 489/501/455
f 490/502/456 489/501/455 488/500/454
f 489/501/455 490/502/456 491/503/457
f 492/504/458 491/503/457 490/502/456
f 491/503/457 492/504/458 493/505/459
f 494/506/460 493/505/459 492/504/458
f 493/505/459 494/506/460 495/507/461
f 496/508/462 495/507/461 494/506/460
f 495/507/461 496/508/462 497/509/463
f 498/510/464 497/509/463 496/508/462
f 497/509/463 498/510/464 499/511/465
f 500/512/466 499/511/465 498/510/464
f 499/513/465 500/514/466 501/515/467
f 502/516/468 501/515/467 500/514/466
f 501/515/467 502/516/468 503/517/469
f 504/518/470 503/517/469 502/516/468
f 503/519/469 504/520/470 505/521/471
f 506/522/472 505/521/471 504/520/470
f 505/521/471 506/522/472 507/523/473
f 508/524/474 507/523/473 506/522/472
f 507/523/473 508/524/474 509/525/475
f 510/526/476 509/525/475 508/524/474
f 509/525/475 510/526/476 511/527/477
f 512/528/478 511/527/477 510/526/476
f 511/527/477 512/528/478 513/529/479
f 514/530/480 513/529/479 512/528/478
f 513/529/479 514/530/480 515/523/481
f 516/531/482 515/523/481 514/530/480
f 515/523/481 516/531/482 517/532/483
f 518/533/484 517/532/483 516/531/482
f 517/532/483 518/533/484 519/534/485
f 520/535/486 519/534/485 518/533/484
f 519/534/485 520/535/486 521/536/487
f 522/537/488 521/536/487 520/535/486
f 521/536/487 522/537/488 523/538/489
f 524/539/490 523/538/489 522/537/488
f 523/538/489 524/539/490 525/540/491
f 526/541/492 525/540/491 524/539/490
f 525/540/491 526/541/492 527/542/493
f 528/543/494 527/542/493 526/541/492
f 527/542/493 528/543/494 529/544/495
f 530/545/496 529/544/495 528/543/494
f 529/544/495 530/545/496 531/546/497
f 532/547/498 531/546/497 530/545/496
f 531/546/497 532/547/498 533/548/499
f 534/549/500 533/548/499 532/547/498
f 533/548/499 534/549/500 535/550/501
f 536/551/502 535/550/501 534/549/500
f 535/550/501 536/551/502 537/552/503
f 538/553/504 537/552/503 536/551/502
f 537/554/503 538/555/504 539/556/505
f 540/557/506 539/556/505 538/555/504
f 539/556/505 540/557/506 541/558/507
f 542/559/508 541/558/507 540/557/506
f 541/558/507 542/559/508 543/560/509
f 544/561/510 543/560/509 542/559/508
f 543/560/509 544/561/510 545/562/511
f 546/563/512 545/562/511 544/561/510
f 545/562/511 546/563/512 547/564/513
f 548/565/514 547/564/513 546/563/512
f 547/564/513 548/565/514 549/566/515
f 550/567/516 549/566/515 548/565/514
f 549/566/515 550/567/516 551/568/517
f 552/569/518 551/568/517 550/567/516
f 551/570/517 552/569/518 553/571/519
f 554/572/520 553/573/519 552/569/518
f 553/571/519 554/574/520 555/575/521
f 556/576/522 555/575/521 554/574/520
f 555/575/521 556/576/522 557/577/523
f 558/578/524 557/577/523 556/576/522
f 557/579/523 558/580/524 559/581/525
f 560/582/526 559/581/525 558/580/524
f 559/581/525 560/582/526 561/583/527
f 562/584/528 561/583/527 560/582/526
f 561/583/527 562/584/528 563/585/529
f 564/586/530 563/585/529 562/584/528
f 563/585/529 564/586/530 565/587/531
f 566/588/532 565/587/531 564/586/530
f 565/587/531 566/588/532 567/589/533
f 568/590/534 567/589/533 566/588/532
f 567/589/533 568/590/534 569/591/535
f 570/592/536 569/591/535 568/590/534
f 569/591/535 570/592/536 571/593/537
f 572/594/538 571/593/537 570/592/536
f 571/593/537 572/594/538 573/595/539
f 574/596/540 573/595/539 572/594/538
f 573/595/539 574/596/540 575/597/541
f 576/598/542 575/597/541 574/596/540
f 577/599/543 578/600/544 579/601/545
f 580/602/546 579/601/545 578/600/544
f 579/601/545 580/602/546 581/603/547
f 582/604/548 581/603/547 580/602/546
f 581/603/547 582/604/548 583/605/549
f 584/606/550 583/605/549 582/604/548
f 583/605/549 584/606/550 585/607/551
f 586/608/552 585/607/551 584/606/550
f 585/607/551 586/608/552 587/609/553
f 588/610/554 587/609/553 586/608/552
f 587/609/553 588/610/554 589/611/555
f 590/612/556 589/611/555 588/610/554
f 589/611/555 590/612/556 591/613/557
f 592/614/558 591/613/557 590/612/556
f 591/615/557 592/616/558 24/617/18
f 22/618/16 24/617/18 592/616/558
f 449/453/418 450/454/419 451/455/420
f 452/456/421 451/455/420 450/454/419
f 38/619/559 593/620/560 295/621/262
f 593/620/560 36/622/561 295/621/262
f 36/622/561 294/623/261 295/621/262
f 397/391/366 398/392/367 399/624/368
f 400/625/369 399/624/368 398/392/367
f 437/626/406 438/627/407 439/443/408
f 440/628/409 439/629/408 438/442/407
f 317/306/286 318/307/287 594/630/562
f 595/631/563 594/630/562 318/307/287
f 594/632/562 595/633/563 596/634/564
f 597/635/565 596/634/564 595/633/563
f 596/636/564 597/637/565 598/638/566
f 599/639/567 598/638/566 597/637/565
f 598/640/566 599/641/567 600/642/568
f 601/643/569 600/642/568 599/641/567
f 600/644/568 601/645/569 602/646/570
f 603/647/571 602/646/570 601/645/569
f 602/646/570 603/647/571 319/308/288
f 320/309/289 319/308/288 603/647/571
f 575/597/541 576/598/542 604/648/572
f 605/649/573 604/648/572 576/598/542
f 604/648/572 605/649/573 606/650/574
f 607/651/575 606/650/574 605/649/573
f 606/652/574 607/653/575 608/654/576
f 609/655/577 608/654/576 607/653/575
f 608/656/576 609/657/577 610/658/578
f 611/659/579 610/658/578 609/657/577
f 610/660/578 611/661/579 612/662/580
f 613/663/581 612/662/580 611/661/579
f 612/662/580 613/663/581 577/599/543
f 578/600/544 577/599/543 613/663/581
f 40/664/31 295/665/262 41/666/32
f 293/667/260 41/666/32 295/665/262
f 66/668/57 300/669/269 64/670/55
f 298/671/267 64/670/55 300/669/269
f 68/672/59 302/673/271 66/668/57
f 300/669/269 66/668/57 302/673/271
f 69/674/60 304/675/273 68/672/59
f 302/673/271 68/672/59 304/675/273
f 71/676/62 306/677/275 69/674/60
f 304/675/273 69/674/60 306/677/275
f 73/678/64 308/679/277 71/676/62
f 306/677/275 71/676/62 308/679/277
f 75/680/66 310/681/279 73/678/64
f 308/679/277 73/678/64 310/681/279
f 76/682/67 312/683/281 75/680/66
f 310/681/279 75/680/66 312/683/281
f 78/684/69 314/685/283 76/682/67
f 312/683/281 76/682/67 314/685/283
f 80/686/71 316/687/285 78/684/69
f 314/685/283 78/684/69 316/687/285
f 81/688/72 318/689/287 80/686/71
f 316/687/285 80/686/71 318/689/287
f 83/690/74 322/691/291 84/692/75
f 320/693/289 84/692/75 322/691/291
f 86/694/77 324/695/293 83/690/74
f 322/691/291 83/690/74 324/695/293
f 88/696/79 326/697/295 86/694/77
f 324/695/293 86/694/77 326/697/295
f 90/698/81 328/699/297 88/696/79
f 326/697/295 88/696/79 328/699/297
f 91/700/82 330/701/299 90/698/81
f 328/699/297 90/698/81 330/701/299
f 92/702/83 332/703/301 91/700/82
f 330/701/299 91/700/82 332/703/301
f 94/704/85 334/705/303 92/702/83
f 332/703/301 92/702/83 334/705/303
f 96/706/87 336/707/305 94/704/85
f 334/705/303 94/704/85 336/707/305
f 98/708/89 338/709/307 96/706/87
f 336/707/305 96/706/87 338/709/307
f 100/710/91 340/711/309 98/708/89
f 338/709/307 98/708/89 340/711/309
f 102/712/93 342/713/311 100/712/91
f 340/714/309 100/712/91 342/713/311
f 103/715/94 344/716/313 102/712/93
f 342/713/311 102/712/93 344/716/313
f 105/717/96 346/718/315 103/715/94
f 344/716/313 103/715/94 346/718/315
f 107/719/98 348/720/317 105/721/96
f 346/722/315 105/721/96 348/720/317
f 109/723/100 350/724/319 107/719/98
f 348/720/317 107/719/98 350/724/319
f 110/725/101 352/726/321 109/723/100
f 350/724/319 109/723/100 352/726/321
f 112/727/103 354/728/323 110/725/101
f 352/726/321 110/725/101 354/728/323
f 114/729/105 356/730/325 112/727/103
f 354/728/323 112/727/103 356/730/325
f 116/731/107 358/732/327 114/729/105
f 356/730/325 114/729/105 358/732/327
f 117/733/108 360/734/329 116/731/107
f 358/732/327 116/731/107 360/734/329
f 119/735/110 362/736/331 117/733/108
f 360/734/329 117/733/108 362/736/331
f 121/737/112 364/738/333 119/739/110
f 362/740/331 119/739/110 364/738/333
f 122/741/113 366/742/335 121/737/112
f 364/738/333 121/737/112 366/742/335
f 124/743/115 368/744/337 122/741/113
f 366/742/335 122/741/113 368/744/337
f 125/745/116 370/746/339 124/743/115
f 368/744/337 124/743/115 370/746/339
f 126/747/117 372/748/341 125/745/116
f 370/746/339 125/745/116 372/748/341
f 128/749/119 374/750/343 126/747/117
f 372/748/341 126/747/117 374/750/343
f 129/751/120 376/752/345 128/749/119
f 374/750/343 128/749/119 376/752/345
f 130/753/121 378/754/347 129/751/120
f 376/752/345 129/751/120 378/754/347
f 132/755/123 380/756/349 130/753/121
f 378/754/347 130/753/121 380/756/349
f 134/757/125 382/758/351 132/755/123
f 380/756/349 132/755/123 382/758/351
f 136/759/127 384/760/353 134/757/125
f 382/758/351 134/757/125 384/760/353
f 138/761/129 386/762/355 136/759/127
f 384/760/353 136/759/127 386/762/355
f 140/763/131 388/764/357 138/761/129
f 386/762/355 138/761/129 388/764/357
f 141/765/132 390/766/359 140/763/131
f 388/764/357 140/763/131 390/766/359
f 142/767/133 392/768/361 141/765/132
f 390/766/359 141/765/132 392/768/361
f 144/769/135 394/770/363 142/767/133
f 392/768/361 142/767/133 394/770/363
f 145/771/136 396/772/365 144/769/135
f 394/770/363 144/769/135 396/772/365
f 146/773/137 398/774/367 145/771/136
f 396/772/365 145/771/136 398/774/367
f 148/775/139 402/776/371 149/777/140
f 400/778/369 149/777/140 402/776/371
f 151/779/142 404/780/373 148/775/139
f 402/776/371 148/775/139 404/780/373
f 152/781/143 406/782/375 151/779/142
f 404/780/373 151/779/142 406/782/375
f 153/783/144 408/784/377 152/781/143
f 406/782/375 152/781/143 408/784/377
f 155/785/146 410/786/379 153/783/144
f 408/784/377 153/783/144 410/786/379
f 157/787/148 412/788/381 155/789/146
f 410/790/379 155/789/146 412/788/381
f 159/791/150 414/792/383 157/787/148
f 412/788/381 157/787/148 414/792/383
f 161/793/152 416/794/385 159/791/150
f 414/792/383 159/791/150 416/794/385
f 163/795/154 418/796/387 161/797/152
f 416/798/385 161/797/152 418/796/387
f 164/799/155 420/800/389 163/795/154
f 418/796/387 163/795/154 420/800/389
f 166/801/157 422/802/391 164/799/155
f 420/800/389 164/799/155 422/802/391
f 167/803/158 424/804/393 166/801/157
f 422/802/391 166/801/157 424/804/393
f 169/805/160 426/806/395 167/803/158
f 424/804/393 167/803/158 426/806/395
f 170/807/161 430/808/399 171/805/162
f 428/806/397 171/805/162 430/808/399
f 171/809/162 428/810/397 169/811/160
f 426/812/395 169/811/160 428/810/397
f 172/807/163 432/808/401 170/807/161
f 430/808/399 170/807/161 432/808/401
f 174/813/165 434/814/403 172/807/163
f 432/808/401 172/807/163 434/814/403
f 176/815/167 436/816/405 174/817/165
f 434/818/403 174/817/165 436/816/405
f 178/819/169 438/820/407 176/815/167
f 436/816/405 176/815/167 438/820/407
f 180/821/171 442/822/411 181/823/172
f 440/824/409 181/823/172 442/822/411
f 182/825/173 444/826/413 180/821/171
f 442/822/411 180/821/171 444/826/413
f 183/827/174 446/828/415 182/825/173
f 444/826/413 182/825/173 446/828/415
f 184/829/175 448/830/417 183/827/174
f 446/828/415 183/827/174 448/830/417
f 185/831/176 450/832/419 184/829/175
f 448/830/417 184/829/175 450/832/419
f 187/833/178 454/834/423 188/835/179
f 452/836/421 188/835/179 454/834/423
f 190/837/179 456/838/425 187/833/178
f 454/834/423 187/833/178 456/838/425
f 192/839/182 458/840/426 190/837/179
f 456/838/425 190/837/179 458/840/426
f 193/841/183 462/842/430 194/843/184
f 460/844/428 194/843/184 462/842/430
f 194/845/184 460/846/428 192/839/182
f 458/840/426 192/839/182 460/846/428
f 191/847/181 464/848/432 193/841/183
f 462/842/430 193/841/183 464/848/432
f 189/849/180 466/850/434 191/847/181
f 464/848/432 191/847/181 466/850/434
f 186/851/177 468/852/436 189/849/180
f 466/850/434 189/849/180 468/852/436
f 195/853/185 470/854/437 186/851/177
f 468/852/436 186/851/177 470/854/437
f 196/855/186 472/856/439 195/853/185
f 470/854/437 195/853/185 472/856/439
f 179/857/170 474/858/441 196/855/186
f 472/856/439 196/855/186 474/858/441
f 197/859/187 476/860/443 179/857/170
f 474/858/441 179/857/170 476/860/443
f 177/861/168 478/862/445 197/863/187
f 476/862/443 197/863/187 478/862/445
f 175/864/166 480/865/447 177/861/168
f 478/862/445 177/861/168 480/865/447
f 173/866/164 482/867/449 175/864/166
f 480/865/447 175/864/166 482/867/449
f 168/868/159 484/869/450 173/870/164
f 482/871/449 173/870/164 484/869/450
f 198/872/188 486/873/452 168/868/159
f 484/869/450 168/868/159 486/873/452
f 165/874/156 488/875/454 198/872/188
f 486/873/452 198/872/188 488/875/454
f 162/876/153 490/877/456 165/878/156
f 488/879/454 165/878/156 490/877/456
f 160/880/151 492/881/458 162/876/153
f 490/877/456 162/876/153 492/881/458
f 158/882/149 494/883/460 160/880/151
f 492/881/458 160/880/151 494/883/460
f 156/884/147 496/885/462 158/882/149
f 494/883/460 158/882/149 496/885/462
f 199/886/189 498/887/464 156/884/147
f 496/885/462 156/884/147 498/887/464
f 154/888/145 500/889/466 199/890/189
f 498/891/464 199/890/189 500/889/466
f 150/892/141 502/893/468 154/894/145
f 500/895/466 154/894/145 502/893/468
f 147/896/138 504/897/470 150/892/141
f 502/893/468 150/892/141 504/897/470
f 200/898/190 506/899/472 147/896/138
f 504/897/470 147/896/138 506/899/472
f 143/900/134 508/901/474 200/898/190
f 506/899/472 200/898/190 508/901/474
f 139/902/130 510/903/476 143/900/134
f 508/901/474 143/900/134 510/903/476
f 201/902/191 512/903/478 139/902/130
f 510/903/476 139/902/130 512/903/478
f 202/904/192 514/905/480 201/902/191
f 512/903/478 201/902/191 514/905/480
f 137/906/128 516/907/482 202/904/192
f 514/905/480 202/904/192 516/907/482
f 203/908/193 518/909/484 137/906/128
f 516/907/482 137/906/128 518/909/484
f 135/910/126 520/911/486 203/908/193
f 518/909/484 203/908/193 520/911/486
f 133/912/124 522/913/488 135/910/126
f 520/911/486 135/910/126 522/913/488
f 204/914/194 524/915/490 133/912/124
f 522/913/488 133/912/124 524/915/490
f 131/916/122 526/917/492 204/914/194
f 524/915/490 204/914/194 526/917/492
f 205/918/195 528/919/494 131/916/122
f 526/917/492 131/916/122 528/919/494
f 127/920/118 530/921/496 205/918/195
f 528/919/494 205/918/195 530/921/496
f 123/922/114 532/923/498 127/920/118
f 530/921/496 127/920/118 532/923/498
f 120/924/111 534/925/500 123/922/114
f 532/923/498 123/922/114 534/925/500
f 118/926/109 536/927/502 120/924/111
f 534/925/500 120/924/111 536/927/502
f 115/928/106 538/929/504 118/926/109
f 536/927/502 118/926/109 538/929/504
f 113/930/104 540/931/506 115/932/106
f 538/933/504 115/932/106 540/931/506
f 111/934/102 542/935/508 113/930/104
f 540/931/506 113/930/104 542/935/508
f 108/936/99 544/937/510 111/934/102
f 542/935/508 111/934/102 544/937/510
f 106/938/97 546/939/512 108/936/99
f 544/937/510 108/936/99 546/939/512
f 206/940/196 548/941/514 106/938/97
f 546/939/512 106/938/97 548/941/514
f 104/942/95 550/943/516 206/944/196
f 548/945/514 206/944/196 550/943/516
f 101/946/92 552/947/518 104/942/95
f 550/943/516 104/942/95 552/947/518
f 99/946/90 554/947/520 101/946/92
f 552/947/518 101/946/92 554/947/520
f 207/948/197 556/949/522 99/950/90
f 554/951/520 99/950/90 556/949/522
f 97/952/88 558/953/524 207/948/197
f 556/949/522 207/948/197 558/953/524
f 95/954/86 560/955/526 97/952/88
f 558/953/524 97/952/88 560/955/526
f 93/956/84 562/957/528 95/954/86
f 560/955/526 95/954/86 562/957/528
f 89/958/80 564/959/530 93/956/84
f 562/957/528 93/956/84 564/959/530
f 87/960/78 566/961/532 89/958/80
f 564/959/530 89/958/80 566/961/532
f 85/962/76 568/963/534 87/960/78
f 566/961/532 87/960/78 568/963/534
f 82/964/73 570/965/536 85/962/76
f 568/963/534 85/962/76 570/965/536
f 208/966/198 572/967/538 82/964/73
f 570/965/536 82/964/73 572/967/538
f 209/968/199 574/969/540 208/966/198
f 572/967/538 208/966/198 574/969/540
f 210/970/200 576/971/542 209/968/199
f 574/969/540 209/968/199 576/971/542
f 77/972/68 580/973/546 79/974/70
f 578/975/544 79/974/70 580/973/546
f 74/976/65 582/977/548 77/972/68
f 580/973/546 77/972/68 582/977/548
f 72/978/63 584/979/550 74/976/65
f 582/977/548 74/976/65 584/979/550
f 70/980/61 586/981/552 72/978/63
f 584/979/550 72/978/63 586/981/552
f 67/982/58 588/983/554 70/980/61
f 586/981/552 70/980/61 588/983/554
f 65/984/56 590/985/556 67/982/58
f 588/983/554 67/982/58 590/985/556
f 63/986/54 592/987/558 65/988/56
f 590/989/556 65/988/56 592/987/558
f 23/990/17 22/991/16 63/986/54
f 592/987/558 63/986/54 22/991/16
f 188/835/179 452/836/421 185/831/176
f 450/832/419 185/831/176 452/836/421
f 38/992/559 295/665/262 614/993/582
f 295/665/262 40/664/31 614/993/582
f 40/664/31 10/994/8 614/993/582
f 149/777/140 400/778/369 146/773/137
f 398/774/367 146/773/137 400/778/369
f 181/823/172 440/824/409 178/823/169
f 438/820/407 178/819/169 440/995/409
f 615/996/583 595/997/563 81/688/72
f 318/689/287 81/688/72 595/997/563
f 616/998/584 597/999/565 615/1000/583
f 595/1001/563 615/1000/583 597/999/565
f 617/1002/585 599/1003/567 616/998/584
f 597/999/565 616/998/584 599/1003/567
f 618/1004/586 601/1005/569 617/1002/585
f 599/1003/567 617/1002/585 601/1005/569
f 619/1006/587 603/1007/571 618/1004/586
f 601/1005/569 618/1004/586 603/1007/571
f 84/692/75 320/693/289 619/1008/587
f 603/1009/571 619/1008/587 320/693/289
f 620/1010/588 605/1011/573 210/970/200
f 576/971/542 210/970/200 605/1011/573
f 621/1012/589 607/1013/575 620/1014/588
f 605/1015/573 620/1014/588 607/1013/575
f 622/1016/590 609/1017/577 621/1012/589
f 607/1013/575 621/1012/589 609/1017/577
f 623/1018/591 611/1019/579 622/1016/590
f 609/1017/577 622/1016/590 611/1019/579
f 624/1020/592 613/1021/581 623/1018/591
f 611/1019/579 623/1018/591 613/1021/581
f 79/974/70 578/975/544 624/1020/592
f 613/1021/581 624/1020/592 578/975/544
f 625/1022/593 626/1023/594 627/1022/593
f 628/1024/595 48/46/39 629/48/596
f 50/1022/41 629/1022/596 48/1025/39
f 298/1026/267 297/1027/266 18/1028/12
f 18/1028/12 297/1027/266 19/1029/13
f 19/1029/13 297/1027/266 21/1030/15
f 62/1031/53 64/670/55 630/1032/597
f 64/670/55 298/671/267 630/1032/597
f 630/1032/597 298/671/267 18/1033/12
f 42/1034/33 41/666/32 631/1035/598
f 41/666/32 293/667/260 631/1035/598
f 631/1035/598 293/667/260 31/1036/263
f 81/1037/72 79/1038/70 624/1039/592
f 615/1040/583 81/1037/72 624/1039/592
f 615/1041/583 624/1042/592 623/1043/591
f 615/1041/583 623/1043/591 616/1044/584
f 616/1044/584 623/1043/591 622/1045/590
f 616/1044/584 622/1045/590 617/1046/585
f 617/1047/585 622/1048/590 621/1049/589
f 617/1047/585 621/1049/589 618/1050/586
f 618/1051/586 621/1052/589 620/1053/588
f 618/1051/586 620/1053/588 619/1054/587
f 619/1054/587 620/1053/588 210/1055/200
f 619/1054/587 210/1055/200 84/1056/75
